<svg width="1251" height="244" viewBox="0 0 1251 244" fill="none" xmlns="http://www.w3.org/2000/svg">
<g clip-path="url(#clip0_820_3060)">
<path fill-rule="evenodd" clip-rule="evenodd" d="M126.144 -6.64139C126.543 -6.59912 126.928 -6.49036 127.277 -6.32134C127.626 -6.15233 127.933 -5.92636 128.18 -5.65635C128.427 -5.38634 128.608 -5.07759 128.715 -4.74774C128.821 -4.41789 128.85 -4.0734 128.8 -3.73397L128.083 1.15049H136.188L137.001 -4.37968C137.102 -5.06492 137.518 -5.68808 138.158 -6.11207C138.798 -6.53606 139.61 -6.72615 140.415 -6.64052C141.219 -6.55489 141.951 -6.20057 142.449 -5.65548C142.947 -5.1104 143.17 -4.41921 143.07 -3.73397L142.352 1.15049H147.169C147.98 1.15049 148.758 1.4248 149.331 1.91308C149.905 2.40136 150.227 3.06361 150.227 3.75414C150.227 4.44467 149.905 5.10692 149.331 5.5952C148.758 6.08348 147.98 6.3578 147.169 6.3578H141.588L140.568 13.3009H146.15C146.961 13.3009 147.738 13.5752 148.312 14.0635C148.885 14.5518 149.207 15.214 149.207 15.9045C149.207 16.5951 148.885 17.2573 148.312 17.7456C147.738 18.2339 146.961 18.5082 146.15 18.5082H139.804L138.993 24.0384C138.892 24.7236 138.476 25.3467 137.836 25.7707C137.196 26.1947 136.384 26.3848 135.579 26.2992C134.775 26.2136 134.043 25.8592 133.545 25.3142C133.047 24.7691 132.824 24.0779 132.924 23.3926L133.64 18.5082H125.535L124.724 24.0384C124.674 24.3777 124.546 24.7053 124.347 25.0025C124.149 25.2998 123.884 25.5608 123.567 25.7707C123.25 25.9807 122.887 26.1354 122.5 26.2261C122.113 26.3167 121.709 26.3416 121.31 26.2992C120.912 26.2568 120.527 26.148 120.178 25.979C119.829 25.81 119.522 25.5841 119.276 25.3142C119.029 25.0443 118.847 24.7357 118.741 24.406C118.634 24.0763 118.605 23.7319 118.655 23.3926L119.37 18.5082H115.573C114.762 18.5082 113.984 18.2339 113.411 17.7456C112.837 17.2573 112.515 16.5951 112.515 15.9045C112.515 15.214 112.837 14.5518 113.411 14.0635C113.984 13.5752 114.762 13.3009 115.573 13.3009H120.135L121.154 6.3578H116.592C115.781 6.3578 115.003 6.08348 114.43 5.5952C113.857 5.10692 113.534 4.44467 113.534 3.75414C113.534 3.06361 113.857 2.40136 114.43 1.91308C115.003 1.4248 115.781 1.15049 116.592 1.15049H121.919L122.732 -4.37968C122.781 -4.71913 122.909 -5.04696 123.107 -5.34445C123.305 -5.64194 123.57 -5.90324 123.887 -6.11344C124.204 -6.32364 124.567 -6.47861 124.954 -6.56949C125.341 -6.66038 125.746 -6.68366 126.144 -6.64139ZM134.408 13.3009L135.427 6.3578H127.321L126.301 13.3009H134.408Z" fill="white" fill-opacity="0.15"/>
</g>
<g clip-path="url(#clip1_820_3060)">
<path d="M1176.28 187.574C1161.53 182.9 1150.23 172.166 1146.22 157.944C1139.27 133.229 1156.64 107.347 1184.32 99.5495C1212.01 91.7517 1240.33 104.76 1247.3 129.474C1254.26 154.188 1236.88 180.069 1209.2 187.867C1207.07 188.466 1204.93 188.946 1202.76 189.312L1188.28 207.331C1185.8 209.877 1184.3 210.861 1181.23 209.69C1177.62 208.303 1177.04 205.812 1177.08 202.012L1176.28 187.574ZM1155.85 155.233C1159.01 166.434 1168.78 174.972 1181.92 178.058L1185.85 178.987L1186.09 183.284L1186.6 192.486L1197.37 179.076L1199.19 178.823C1201.57 178.501 1203.92 178.014 1206.24 177.361C1229.05 170.934 1242.81 150.444 1237.67 132.187C1232.52 113.929 1210.1 103.63 1187.28 110.057C1164.47 116.485 1150.71 136.976 1155.85 155.233ZM1224.67 133.884L1235.15 143.154C1235.4 143.372 1235.6 143.639 1235.76 143.938C1235.91 144.238 1236.01 144.565 1236.05 144.9C1236.09 145.236 1236.07 145.573 1235.99 145.894C1235.9 146.214 1235.76 146.51 1235.57 146.766C1235.38 147.023 1235.14 147.233 1234.87 147.386C1234.6 147.539 1234.3 147.632 1233.99 147.659C1233.68 147.685 1233.36 147.646 1233.06 147.542C1232.76 147.438 1232.48 147.273 1232.23 147.054L1222.35 138.309L1220.91 141.058L1222.93 148.219C1223.11 148.877 1223.05 149.575 1222.75 150.16C1222.46 150.745 1221.96 151.169 1221.35 151.339C1220.75 151.508 1220.1 151.41 1219.54 151.065C1218.98 150.72 1218.57 150.156 1218.38 149.499L1216.25 141.938C1216.06 141.579 1215.95 141.179 1215.92 140.772L1212.14 127.338C1211.95 126.68 1212.02 125.982 1212.31 125.397C1212.61 124.812 1213.11 124.388 1213.71 124.218C1214.32 124.048 1214.97 124.147 1215.52 124.492C1216.08 124.837 1216.5 125.4 1216.68 126.058L1218.97 134.159L1225.48 121.742C1225.8 121.189 1226.31 120.799 1226.9 120.655C1227.5 120.512 1228.13 120.625 1228.67 120.972C1229.21 121.318 1229.61 121.871 1229.79 122.513C1229.97 123.155 1229.92 123.837 1229.64 124.415L1224.67 133.884ZM1213.29 148.008C1213.89 147.838 1214.54 147.937 1215.1 148.282C1215.66 148.627 1216.07 149.19 1216.26 149.848C1216.44 150.505 1216.38 151.204 1216.09 151.789C1215.79 152.374 1215.29 152.798 1214.68 152.967L1205.39 155.587C1204.78 155.755 1204.13 155.655 1203.58 155.31C1203.02 154.965 1202.61 154.402 1202.42 153.745L1196.27 131.894C1196.16 131.563 1196.11 131.215 1196.13 130.871C1196.15 130.527 1196.23 130.193 1196.38 129.891C1196.52 129.589 1196.72 129.324 1196.97 129.113C1197.21 128.901 1197.5 128.748 1197.8 128.661C1198.11 128.575 1198.43 128.557 1198.75 128.609C1199.07 128.662 1199.38 128.783 1199.66 128.966C1199.94 129.148 1200.19 129.389 1200.39 129.672C1200.58 129.956 1200.72 130.277 1200.8 130.616L1206.26 149.987L1213.29 148.008ZM1183.48 150.216L1189.9 148.407L1184.31 140.299L1183.48 150.216ZM1196.35 149.354L1199.38 153.746C1199.58 154.021 1199.73 154.335 1199.82 154.667C1199.91 155 1199.93 155.346 1199.9 155.685C1199.86 156.023 1199.76 156.347 1199.61 156.637C1199.45 156.927 1199.24 157.178 1198.99 157.374C1198.73 157.57 1198.45 157.708 1198.14 157.779C1197.83 157.851 1197.51 157.854 1197.19 157.789C1196.88 157.724 1196.58 157.593 1196.31 157.402C1196.03 157.211 1195.8 156.965 1195.61 156.678L1192.99 152.885L1183.03 155.691L1182.64 160.412C1182.61 160.746 1182.52 161.067 1182.38 161.357C1182.23 161.648 1182.03 161.902 1181.79 162.106C1181.55 162.309 1181.28 162.458 1180.98 162.544C1180.68 162.629 1180.37 162.65 1180.06 162.605C1179.75 162.56 1179.44 162.449 1179.17 162.28C1178.89 162.11 1178.65 161.885 1178.45 161.617C1178.25 161.35 1178.1 161.044 1178 160.719C1177.91 160.394 1177.88 160.055 1177.9 159.722L1179.87 136.059C1179.92 135.297 1180.18 134.579 1180.63 134.002C1181.07 133.424 1181.67 133.014 1182.35 132.825C1183.04 132.665 1183.76 132.737 1184.42 133.03C1185.09 133.323 1185.66 133.824 1186.07 134.466L1195.25 147.758C1195.77 148.104 1196.16 148.643 1196.33 149.267L1196.35 149.354ZM1175.81 137.685C1176.19 139.051 1175.5 140.449 1174.24 140.803L1168.76 142.349L1174.28 161.977C1174.47 162.636 1174.41 163.334 1174.11 163.92C1173.82 164.506 1173.31 164.93 1172.71 165.1C1172.11 165.27 1171.45 165.171 1170.9 164.826C1170.34 164.481 1169.92 163.917 1169.74 163.258L1164.21 143.63L1158.62 145.202C1158.02 145.372 1157.37 145.274 1156.81 144.929C1156.26 144.583 1155.84 144.02 1155.65 143.362C1155.47 142.705 1155.53 142.007 1155.83 141.422C1156.12 140.836 1156.62 140.412 1157.23 140.243L1172.84 135.844C1174.1 135.491 1175.42 136.314 1175.81 137.685Z" fill="white" fill-opacity="0.15"/>
</g>
<g clip-path="url(#clip2_820_3060)">
<path d="M-39.6617 92.1462L-35.6606 70.9652L-43.8491 69.4184C-46.0208 69.0082 -48.2617 69.4516 -50.0787 70.651C-51.8957 71.8505 -53.1401 73.7079 -53.538 75.8144L-62.5405 123.472C-62.6293 123.964 -62.575 124.472 -62.3836 124.94C-62.1923 125.407 -61.8715 125.814 -61.4571 126.117C-61.0551 126.393 -60.5861 126.562 -60.0979 126.606C-59.6097 126.65 -59.1197 126.568 -58.6776 126.368L-42.7251 118.988L-6.04054 125.918C-5.01164 126.143 -3.9485 126.161 -2.91696 125.971C-1.88542 125.78 -0.907457 125.385 -0.0436304 124.811C0.820192 124.236 1.55148 123.494 2.10494 122.63C2.6584 121.766 3.02225 120.799 3.17394 119.789L3.7391 116.797L-26.2855 111.126C-30.6289 110.305 -34.4783 107.845 -36.9868 104.285C-39.4954 100.726 -40.4575 96.3593 -39.6617 92.1462Z" fill="white" fill-opacity="0.15"/>
<path d="M23.1381 88.9277C19.9808 88.3388 16.9989 87.0481 14.4263 85.1567C11.8538 83.2653 9.76074 80.8248 8.31156 78.0269C6.86238 75.2289 6.09651 72.1497 6.07409 69.031C6.05168 65.9123 6.77333 62.8391 8.18238 60.0526L-15.7827 55.5256C-17.9544 55.1153 -20.1953 55.5587 -22.0123 56.7582C-23.8293 57.9577 -25.0737 59.815 -25.4716 61.9216L-31.4733 93.6931C-31.8712 95.7996 -31.3901 97.9829 -30.1358 99.7626C-28.8816 101.542 -26.9569 102.773 -24.7852 103.183L12.1996 110.169L23.3912 122.456C23.7265 122.808 24.1506 123.068 24.6204 123.209C25.0902 123.351 25.5889 123.37 26.0657 123.263C26.5707 123.136 27.027 122.873 27.3819 122.503C27.7368 122.134 27.9759 121.673 28.0716 121.174L34.3483 87.9467C30.7886 89.2774 26.9077 89.617 23.1381 88.9277Z" fill="white" fill-opacity="0.15"/>
<path d="M24.3883 82.3086C31.9257 83.7324 39.1555 78.9598 40.5366 71.6486C41.9176 64.3374 36.927 57.2562 29.3897 55.8324C21.8524 54.4086 14.6226 59.1813 13.2415 66.4925C11.8604 73.8037 16.851 80.8848 24.3883 82.3086Z" fill="white" fill-opacity="0.15"/>
</g>
<g clip-path="url(#clip3_820_3060)">
<path d="M45.9132 282.308L65.2388 274.753L67.1276 279.584L47.802 287.14L45.9132 282.308ZM83.0931 270.558C82.7312 270.699 82.3421 270.757 81.9547 270.728C81.5673 270.699 81.1914 270.583 80.8547 270.388L67.5487 262.71L42.1355 272.645L40.2467 267.814L66.8194 257.425C67.1814 257.284 67.5705 257.226 67.9579 257.255C68.3453 257.285 68.7212 257.401 69.0578 257.595L80.3735 264.121L85.6092 240.179C85.6979 239.774 85.8825 239.396 86.1476 239.077C86.4126 238.758 86.7503 238.507 87.1323 238.345C87.5143 238.184 87.9295 238.116 88.3431 238.148C88.7567 238.18 89.1565 238.311 89.5091 238.529L99.4314 244.676L107.886 241.37L109.775 246.202L100.112 249.979C99.7374 250.126 99.3334 250.183 98.9324 250.147C98.5314 250.11 98.1444 249.981 97.8021 249.769L89.893 244.868L84.6827 268.697C84.5956 269.096 84.4155 269.468 84.1571 269.784C83.8988 270.1 83.5695 270.35 83.1961 270.515L83.0931 270.558ZM56.3215 244.82L51.5995 232.742L54.0152 231.797C56.5757 230.792 58.6332 228.813 59.7364 226.294C60.8397 223.774 60.8986 220.92 59.9003 218.357L57.0671 211.11L49.82 213.943C47.3478 214.914 45.3454 216.801 44.2295 219.211C42.0906 217.429 39.5129 216.253 36.765 215.805C34.0171 215.358 31.1994 215.655 28.6055 216.667L21.3584 219.5L24.1916 226.747C25.6984 230.588 28.6672 233.675 32.4467 235.33C36.2262 236.984 40.5079 237.073 44.3524 235.575L46.7681 234.63L51.4901 246.709L34.5802 253.32L36.469 258.151L70.2889 244.929L68.4 240.098L56.3215 244.82ZM51.7088 218.774L54.1245 217.83L55.0689 220.246C55.5684 221.527 55.5391 222.954 54.9875 224.214C54.4358 225.474 53.4068 226.464 52.1263 226.966L49.7106 227.91L48.7662 225.494C48.2667 224.213 48.296 222.786 48.8477 221.526C49.3993 220.266 50.4283 219.276 51.7088 218.774ZM42.4635 230.743C39.9005 231.742 37.0462 231.683 34.5266 230.58C32.007 229.476 30.0278 227.419 29.023 224.858L28.0786 222.443L30.4943 221.498C33.0573 220.5 35.9117 220.559 38.4313 221.662C40.9509 222.765 42.9301 224.823 43.9348 227.383L44.8792 229.799L42.4635 230.743Z" fill="white" fill-opacity="0.15"/>
</g>
<g clip-path="url(#clip4_820_3060)">
<path d="M1002.54 208.836C1004.22 207.917 1005.69 206.676 1006.84 205.187C1008 203.698 1008.82 201.993 1009.26 200.176C1009.69 198.358 1009.74 196.466 1009.39 194.615C1009.04 192.764 1008.3 190.992 1007.22 189.407C1005 186.165 1001.59 183.834 997.688 182.894C993.785 181.954 989.686 182.478 986.239 184.357L973.298 191.852L965.186 179.288C962.971 176.046 959.56 173.715 955.656 172.775C951.753 171.835 947.655 172.359 944.207 174.237C942.522 175.156 941.058 176.397 939.903 177.886C938.749 179.375 937.928 181.08 937.49 182.898C937.052 184.715 937.008 186.607 937.358 188.458C937.709 190.309 938.448 192.081 939.529 193.666L964.01 230.429L1002.54 208.836ZM979.208 167.304C983.112 168.244 987.213 167.667 990.607 165.701C994.001 163.735 996.411 160.541 997.307 156.82C998.203 153.1 997.511 149.159 995.383 145.863C993.256 142.568 989.867 140.188 985.962 139.248C982.058 138.308 977.957 138.885 974.563 140.851C971.169 142.817 968.758 146.011 967.863 149.732C966.967 153.452 967.659 157.393 969.787 160.689C971.914 163.984 975.303 166.364 979.208 167.304Z" fill="white" fill-opacity="0.15" stroke="white" stroke-opacity="0.15" stroke-linecap="round" stroke-linejoin="round"/>
</g>
<path fill-rule="evenodd" clip-rule="evenodd" d="M1064.13 61.8252C1053.46 53.4629 1038.89 39.6494 1038.89 26.5886C1038.89 4.76879 1058.83 -3.37842 1075.14 13.4722C1091.45 -3.37842 1111.39 4.76879 1111.39 26.5849C1111.39 39.6494 1096.82 53.4629 1086.15 61.8252C1081.32 65.6077 1078.91 67.5027 1075.14 67.5027C1071.37 67.5027 1068.95 65.6114 1064.13 61.8252ZM1091.45 16.5131C1092.17 16.5131 1092.86 16.8061 1093.37 17.3277C1093.88 17.8493 1094.17 18.5567 1094.17 19.2943V23.9297H1098.7C1099.42 23.9297 1100.11 24.2228 1100.62 24.7444C1101.13 25.2659 1101.42 25.9734 1101.42 26.711C1101.42 27.4486 1101.13 28.1561 1100.62 28.6776C1100.11 29.1992 1099.42 29.4922 1098.7 29.4922H1094.17V34.1277C1094.17 34.8653 1093.88 35.5727 1093.37 36.0943C1092.86 36.6159 1092.17 36.9089 1091.45 36.9089C1090.73 36.9089 1090.04 36.6159 1089.53 36.0943C1089.02 35.5727 1088.73 34.8653 1088.73 34.1277V29.4922H1084.2C1083.48 29.4922 1082.79 29.1992 1082.28 28.6776C1081.77 28.1561 1081.48 27.4486 1081.48 26.711C1081.48 25.9734 1081.77 25.2659 1082.28 24.7444C1082.79 24.2228 1083.48 23.9297 1084.2 23.9297H1088.73V19.2943C1088.73 18.5567 1089.02 17.8493 1089.53 17.3277C1090.04 16.8061 1090.73 16.5131 1091.45 16.5131Z" fill="white" fill-opacity="0.15"/>
<defs>
<clipPath id="clip0_820_3060">
<rect width="48.9231" height="41.6585" fill="white" transform="translate(106.4 -11)"/>
</clipPath>
<clipPath id="clip1_820_3060">
<rect width="120" height="131" fill="white" transform="translate(1122.13 100.057) rotate(-15.7317)"/>
</clipPath>
<clipPath id="clip2_820_3060">
<rect width="100" height="97" fill="white" transform="translate(-51.9951 37.7166) rotate(10.6972)"/>
</clipPath>
<clipPath id="clip3_820_3060">
<rect width="83" height="83" fill="white" transform="translate(14.6382 216.557) rotate(-21.3529)"/>
</clipPath>
<clipPath id="clip4_820_3060">
<rect width="106" height="101" fill="white" transform="translate(935.279 123.336) rotate(13.5365)"/>
</clipPath>
</defs>
</svg>
