<svg width="309" height="280" viewBox="0 0 309 280" fill="none" xmlns="http://www.w3.org/2000/svg">
<g clip-path="url(#clip0_1543_853)">
<path d="M169 14V98C169 105.7 175.3 112 183 112H281L309 140V14C309 6.3 302.7 0 295 0H183C175.3 0 169 6.3 169 14ZM221.5 38.5C221.5 44.1 216.6 49 211 49C205.4 49 200.5 44.1 200.5 38.5C200.5 32.9 205.4 28 211 28C216.6 28 221.5 32.9 221.5 38.5ZM277.5 38.5C277.5 44.1 272.6 49 267 49C261.4 49 256.5 44.1 256.5 38.5C256.5 32.9 261.4 28 267 28C272.6 28 277.5 32.9 277.5 38.5ZM199.8 63H278.9C273.3 79.1 257.9 84 239.7 84C221.5 84 205.4 79.1 199.8 63Z" fill="white"/>
</g>
<g clip-path="url(#clip1_1543_853)">
<path d="M126 140H14C10.287 140 6.72601 141.475 4.10051 144.101C1.475 146.726 0 150.287 0 154L0 280L28 252H126C129.713 252 133.274 250.525 135.899 247.899C138.525 245.274 140 241.713 140 238V154C140 150.287 138.525 146.726 135.899 144.101C133.274 141.475 129.713 140 126 140ZM98 168C100.077 168 102.107 168.616 103.833 169.77C105.56 170.923 106.906 172.563 107.701 174.482C108.495 176.4 108.703 178.512 108.298 180.548C107.893 182.585 106.893 184.456 105.425 185.925C103.956 187.393 102.085 188.393 100.048 188.798C98.0117 189.203 95.9004 188.995 93.9818 188.201C92.0632 187.406 90.4233 186.06 89.2696 184.333C88.1158 182.607 87.5 180.577 87.5 178.5C87.5 175.715 88.6062 173.045 90.5754 171.075C92.5445 169.106 95.2152 168 98 168ZM42 168C44.0767 168 46.1068 168.616 47.8335 169.77C49.5602 170.923 50.906 172.563 51.7007 174.482C52.4955 176.4 52.7034 178.512 52.2982 180.548C51.8931 182.585 50.8931 184.456 49.4246 185.925C47.9562 187.393 46.0852 188.393 44.0484 188.798C42.0116 189.203 39.9004 188.995 37.9818 188.201C36.0632 187.406 34.4233 186.06 33.2696 184.333C32.1158 182.607 31.5 180.577 31.5 178.5C31.5 175.715 32.6062 173.045 34.5754 171.075C36.5445 169.106 39.2152 168 42 168ZM70 224C51.73 224 36.19 219.31 30.45 203H109.55C103.81 219.31 88.27 224 70 224Z" fill="white"/>
</g>
<defs>
<clipPath id="clip0_1543_853">
<rect width="140" height="140" fill="white" transform="translate(169)"/>
</clipPath>
<clipPath id="clip1_1543_853">
<rect width="140" height="140" fill="white" transform="translate(0 140)"/>
</clipPath>
</defs>
</svg>
