<svg width="1338" height="731" viewBox="0 0 1338 731" fill="none" xmlns="http://www.w3.org/2000/svg">
<path fill-rule="evenodd" clip-rule="evenodd" d="M21.9863 130.329C22.4101 130.378 22.8192 130.505 23.1905 130.703C23.5617 130.9 23.8878 131.165 24.1499 131.48C24.4121 131.796 24.6053 132.157 24.7185 132.543C24.8317 132.928 24.8626 133.331 24.8095 133.728L24.0468 139.439H32.6615L33.526 132.973C33.6329 132.172 34.0752 131.443 34.7556 130.947C35.436 130.452 36.2987 130.229 37.1541 130.33C38.0094 130.43 38.7873 130.844 39.3165 131.481C39.8458 132.119 40.083 132.927 39.9762 133.728L39.2135 139.439H44.3333C45.1953 139.439 46.0219 139.76 46.6314 140.331C47.2409 140.902 47.5833 141.676 47.5833 142.483C47.5833 143.291 47.2409 144.065 46.6314 144.636C46.0219 145.207 45.1953 145.528 44.3333 145.528H38.401L37.3177 153.646H43.25C44.112 153.646 44.9386 153.966 45.5481 154.537C46.1576 155.108 46.5 155.883 46.5 156.69C46.5 157.497 46.1576 158.272 45.5481 158.843C44.9386 159.414 44.112 159.734 43.25 159.734H36.5052L35.6428 166.2C35.5359 167.002 35.0937 167.73 34.4133 168.226C33.7329 168.722 32.8701 168.944 32.0147 168.844C31.1594 168.744 30.3816 168.329 29.8523 167.692C29.3231 167.055 29.0858 166.247 29.1927 165.445L29.9532 159.734H21.3385L20.4762 166.2C20.4232 166.597 20.2874 166.98 20.0765 167.328C19.8655 167.675 19.5835 167.98 19.2466 168.226C18.9097 168.471 18.5245 168.652 18.1129 168.758C17.7014 168.864 17.2716 168.893 16.8481 168.844C16.4246 168.794 16.0156 168.667 15.6446 168.469C15.2735 168.272 14.9477 168.008 14.6856 167.692C14.4236 167.377 14.2305 167.016 14.1173 166.63C14.0041 166.245 13.9731 165.842 14.026 165.445L14.7865 159.734H10.75C9.88805 159.734 9.0614 159.414 8.4519 158.843C7.84241 158.272 7.5 157.497 7.5 156.69C7.5 155.883 7.84241 155.108 8.4519 154.537C9.0614 153.966 9.88805 153.646 10.75 153.646H15.599L16.6823 145.528H11.8333C10.9714 145.528 10.1447 145.207 9.53524 144.636C8.92574 144.065 8.58333 143.291 8.58333 142.483C8.58333 141.676 8.92574 140.902 9.53524 140.331C10.1447 139.76 10.9714 139.439 11.8333 139.439H17.4948L18.3593 132.973C18.4118 132.576 18.5473 132.193 18.7581 131.845C18.9688 131.497 19.2506 131.192 19.5874 130.946C19.9243 130.7 20.3095 130.519 20.7211 130.413C21.1327 130.306 21.5626 130.279 21.9863 130.329ZM30.77 153.646L31.8533 145.528H23.2365L22.1532 153.646H30.77Z" fill="white" fill-opacity="0.15"/>
<g clip-path="url(#clip0_15_8)">
<path d="M1240.64 375.239C1225.89 370.564 1214.59 359.831 1210.59 345.609C1203.63 320.893 1221 295.012 1248.69 287.214C1276.37 279.416 1304.7 292.424 1311.66 317.138C1318.62 341.852 1301.25 367.734 1273.56 375.531C1271.44 376.131 1269.29 376.61 1267.12 376.977L1252.64 394.995C1250.16 397.541 1248.66 398.525 1245.59 397.355C1241.98 395.968 1241.4 393.476 1241.45 389.677L1240.64 375.239ZM1220.21 342.897C1223.37 354.098 1233.14 362.637 1246.28 365.722L1250.21 366.651L1250.46 370.949L1250.96 380.151L1261.73 366.74L1263.56 366.487C1265.93 366.165 1268.28 365.678 1270.6 365.025C1293.42 358.598 1307.17 338.108 1302.03 319.851C1296.88 301.594 1274.46 291.294 1251.65 297.722C1228.83 304.149 1215.07 324.64 1220.21 342.897ZM1289.04 321.548L1299.51 330.818C1299.76 331.036 1299.97 331.303 1300.12 331.603C1300.27 331.902 1300.37 332.229 1300.41 332.565C1300.45 332.9 1300.43 333.238 1300.35 333.558C1300.26 333.878 1300.12 334.175 1299.93 334.431C1299.74 334.687 1299.5 334.898 1299.23 335.051C1298.96 335.204 1298.66 335.296 1298.35 335.323C1298.04 335.35 1297.73 335.31 1297.43 335.206C1297.12 335.103 1296.84 334.937 1296.6 334.719L1286.71 325.973L1285.27 328.722L1287.29 335.883C1287.47 336.541 1287.41 337.239 1287.12 337.824C1286.82 338.409 1286.32 338.833 1285.71 339.003C1285.11 339.173 1284.46 339.074 1283.9 338.729C1283.35 338.384 1282.93 337.821 1282.74 337.163L1280.61 329.603C1280.42 329.243 1280.31 328.843 1280.29 328.436L1276.5 315.002C1276.32 314.344 1276.38 313.646 1276.67 313.061C1276.97 312.476 1277.47 312.052 1278.07 311.882C1278.68 311.713 1279.33 311.811 1279.89 312.156C1280.44 312.501 1280.86 313.065 1281.04 313.722L1283.33 321.824L1289.84 309.406C1290.16 308.853 1290.67 308.464 1291.26 308.32C1291.86 308.176 1292.49 308.289 1293.03 308.636C1293.57 308.982 1293.97 309.535 1294.15 310.177C1294.34 310.819 1294.28 311.501 1294 312.079L1289.04 321.548ZM1277.65 335.672C1278.25 335.502 1278.9 335.601 1279.46 335.946C1280.02 336.291 1280.43 336.854 1280.62 337.512C1280.8 338.17 1280.74 338.868 1280.45 339.453C1280.15 340.038 1279.65 340.462 1279.05 340.632L1269.75 343.251C1269.15 343.419 1268.5 343.319 1267.94 342.974C1267.38 342.629 1266.97 342.066 1266.78 341.41L1260.63 319.559C1260.52 319.228 1260.47 318.88 1260.49 318.535C1260.51 318.191 1260.6 317.858 1260.74 317.555C1260.88 317.253 1261.08 316.988 1261.33 316.777C1261.57 316.566 1261.86 316.412 1262.17 316.326C1262.47 316.239 1262.8 316.221 1263.12 316.274C1263.44 316.326 1263.74 316.447 1264.02 316.63C1264.31 316.813 1264.55 317.053 1264.75 317.337C1264.94 317.62 1265.09 317.941 1265.17 318.28L1270.62 337.651L1277.65 335.672ZM1247.85 337.88L1254.27 336.072L1248.67 327.963L1247.85 337.88ZM1260.71 337.018L1263.74 341.411C1263.94 341.686 1264.09 341.999 1264.18 342.332C1264.27 342.665 1264.3 343.011 1264.26 343.349C1264.22 343.687 1264.12 344.011 1263.97 344.301C1263.81 344.591 1263.6 344.842 1263.35 345.038C1263.1 345.235 1262.81 345.372 1262.5 345.444C1262.19 345.515 1261.87 345.518 1261.56 345.454C1261.24 345.389 1260.94 345.257 1260.67 345.066C1260.4 344.875 1260.16 344.629 1259.97 344.343L1257.36 340.549L1247.39 343.355L1247 348.077C1246.97 348.41 1246.88 348.731 1246.74 349.022C1246.59 349.312 1246.4 349.566 1246.16 349.77C1245.92 349.974 1245.64 350.123 1245.34 350.208C1245.04 350.294 1244.73 350.315 1244.42 350.269C1244.11 350.224 1243.81 350.113 1243.53 349.944C1243.25 349.774 1243.01 349.549 1242.81 349.282C1242.61 349.014 1242.46 348.709 1242.36 348.383C1242.27 348.058 1242.24 347.719 1242.26 347.386L1244.23 323.723C1244.28 322.961 1244.54 322.243 1244.99 321.666C1245.43 321.088 1246.03 320.678 1246.71 320.489C1247.4 320.33 1248.12 320.401 1248.78 320.694C1249.45 320.987 1250.02 321.488 1250.43 322.13L1259.61 335.423C1260.13 335.768 1260.52 336.307 1260.7 336.932L1260.71 337.018ZM1240.17 325.349C1240.56 326.715 1239.86 328.114 1238.6 328.468L1233.12 330.013L1238.65 349.641C1238.83 350.3 1238.77 350.999 1238.47 351.584C1238.18 352.17 1237.67 352.595 1237.07 352.765C1236.47 352.934 1235.82 352.836 1235.26 352.49C1234.7 352.145 1234.28 351.581 1234.1 350.923L1228.57 331.294L1222.99 332.867C1222.38 333.036 1221.73 332.938 1221.17 332.593C1220.62 332.248 1220.2 331.684 1220.02 331.027C1219.83 330.369 1219.89 329.671 1220.19 329.086C1220.48 328.501 1220.99 328.077 1221.59 327.907L1237.21 323.508C1238.46 323.155 1239.78 323.978 1240.17 325.349Z" fill="white" fill-opacity="0.15"/>
</g>
<g clip-path="url(#clip1_15_8)">
<path d="M86.7006 277.811L90.7017 256.63L82.5132 255.083C80.3415 254.673 78.1006 255.116 76.2836 256.316C74.4666 257.515 73.2222 259.372 72.8243 261.479L63.8218 309.136C63.733 309.629 63.7873 310.137 63.9787 310.604C64.17 311.071 64.4909 311.479 64.9052 311.781C65.3072 312.058 65.7762 312.226 66.2644 312.27C66.7526 312.314 67.2426 312.232 67.6847 312.032L83.6372 304.653L120.322 311.583C121.351 311.808 122.414 311.826 123.445 311.635C124.477 311.445 125.455 311.05 126.319 310.475C127.182 309.901 127.914 309.159 128.467 308.295C129.021 307.431 129.385 306.464 129.536 305.454L130.101 302.462L100.077 296.79C95.7334 295.97 91.884 293.509 89.3755 289.95C86.8669 286.39 85.9048 282.024 86.7006 277.811Z" fill="white" fill-opacity="0.15"/>
<path d="M149.501 274.592C146.343 274.003 143.361 272.712 140.789 270.821C138.216 268.93 136.123 266.489 134.674 263.691C133.225 260.893 132.459 257.814 132.437 254.695C132.414 251.577 133.136 248.503 134.545 245.717L110.58 241.19C108.408 240.78 106.167 241.223 104.35 242.423C102.533 243.622 101.289 245.479 100.891 247.586L94.8892 279.357C94.4912 281.464 94.9723 283.647 96.2266 285.427C97.4808 287.207 99.4055 288.437 101.577 288.847L138.562 295.834L149.754 308.121C150.089 308.472 150.513 308.732 150.983 308.874C151.453 309.015 151.951 309.034 152.428 308.928C152.933 308.801 153.389 308.537 153.744 308.168C154.099 307.798 154.338 307.337 154.434 306.839L160.711 273.611C157.151 274.942 153.27 275.281 149.501 274.592Z" fill="white" fill-opacity="0.15"/>
<path d="M150.751 267.973C158.288 269.396 165.518 264.624 166.899 257.313C168.28 250.001 163.29 242.92 155.752 241.496C148.215 240.073 140.985 244.845 139.604 252.157C138.223 259.468 143.214 266.549 150.751 267.973Z" fill="white" fill-opacity="0.15"/>
</g>
<g clip-path="url(#clip2_15_8)">
<path d="M1247.8 112.316L1265.96 102.268L1268.47 106.807L1250.31 116.855L1247.8 112.316ZM1283.1 95.7461C1282.76 95.934 1282.38 96.0431 1281.99 96.0654C1281.6 96.0877 1281.22 96.0225 1280.86 95.8747L1266.65 90.0258L1242.78 103.239L1240.26 98.6997L1265.23 84.8842C1265.57 84.6963 1265.95 84.5872 1266.33 84.5649C1266.72 84.5426 1267.11 84.6078 1267.47 84.7556L1279.55 89.7263L1281.57 65.3019C1281.6 64.8885 1281.74 64.4894 1281.96 64.138C1282.18 63.7866 1282.48 63.4932 1282.84 63.2824C1283.19 63.0717 1283.6 62.9496 1284.01 62.9266C1284.42 62.9036 1284.84 62.9802 1285.22 63.1501L1295.86 67.9288L1303.81 63.5329L1306.32 68.0717L1297.24 73.0955C1296.89 73.2905 1296.5 73.4008 1296.09 73.4176C1295.69 73.4345 1295.29 73.3574 1294.92 73.1926L1286.44 69.3822L1284.43 93.6913C1284.39 94.0979 1284.26 94.4909 1284.05 94.8382C1283.83 95.1855 1283.54 95.4773 1283.19 95.6898L1283.1 95.7461ZM1253.15 73.7798L1246.87 62.4329L1249.14 61.1769C1251.55 59.842 1253.33 57.6078 1254.09 54.9643C1254.85 52.3208 1254.53 49.4838 1253.2 47.0756L1249.43 40.2674L1242.62 44.0353C1240.3 45.3252 1238.56 47.4608 1237.78 49.9976C1235.42 48.5142 1232.71 47.6897 1229.93 47.61C1227.14 47.5302 1224.39 48.1981 1221.95 49.5441L1215.15 53.312L1218.91 60.1202C1220.92 63.7278 1224.27 66.3941 1228.23 67.534C1232.2 68.6739 1236.45 68.1944 1240.07 66.2007L1242.33 64.9448L1248.61 76.2917L1232.73 85.0834L1235.24 89.6222L1267.01 72.0388L1264.5 67.5L1253.15 73.7798ZM1245.13 48.574L1247.4 47.3181L1248.66 49.5875C1249.32 50.7915 1249.48 52.2101 1249.1 53.532C1248.72 54.8538 1247.83 55.9709 1246.63 56.6381L1244.36 57.8941L1243.11 55.6247C1242.44 54.4207 1242.28 53.002 1242.66 51.6802C1243.04 50.3583 1243.93 49.2412 1245.13 48.574ZM1237.55 61.662C1235.15 62.9909 1232.31 63.3104 1229.66 62.5505C1227.02 61.7905 1224.79 60.0132 1223.45 57.6083L1222.2 55.3389L1224.47 54.0829C1226.87 52.754 1229.71 52.4345 1232.35 53.1944C1235 53.9544 1237.23 55.7317 1238.57 58.1366L1239.82 60.406L1237.55 61.662Z" fill="white" fill-opacity="0.15"/>
</g>
<g clip-path="url(#clip3_15_8)">
<path d="M31.275 504.972L50.6006 497.417L52.4895 502.248L33.1638 509.803L31.275 504.972ZM68.455 493.221C68.093 493.363 67.7039 493.421 67.3165 493.391C66.9291 493.362 66.5532 493.246 66.2166 493.052L52.9105 485.374L27.4974 495.309L25.6085 490.478L52.1812 480.089C52.5432 479.948 52.9323 479.89 53.3197 479.919C53.7071 479.948 54.083 480.064 54.4197 480.258L65.7353 486.785L70.971 462.843C71.0597 462.438 71.2444 462.06 71.5094 461.74C71.7744 461.421 72.1121 461.17 72.4941 461.009C72.8761 460.847 73.2913 460.78 73.7049 460.812C74.1185 460.844 74.5183 460.974 74.8709 461.193L84.7932 467.339L93.2482 464.034L95.137 468.865L85.4742 472.643C85.0992 472.79 84.6952 472.847 84.2942 472.81C83.8932 472.774 83.5062 472.644 83.1639 472.432L75.2548 467.532L70.0446 491.361C69.9574 491.759 69.7773 492.132 69.519 492.448C69.2606 492.763 68.9313 493.014 68.5579 493.178L68.455 493.221ZM41.6834 467.484L36.9613 455.405L39.377 454.461C41.9375 453.456 43.995 451.477 45.0983 448.957C46.2015 446.438 46.2604 443.583 45.2621 441.02L42.4289 433.773L35.1818 436.606C32.7096 437.578 30.7072 439.465 29.5913 441.875C27.4524 440.093 24.8747 438.916 22.1268 438.469C19.3789 438.021 16.5612 438.319 13.9673 439.33L6.72021 442.164L9.55346 449.411C11.0602 453.252 14.029 456.338 17.8085 457.993C21.5881 459.648 25.8697 459.736 29.7142 458.238L32.1299 457.294L36.8519 469.373L19.942 475.983L21.8309 480.815L55.6507 467.593L53.7619 462.762L41.6834 467.484ZM37.0706 441.438L39.4863 440.493L40.4307 442.909C40.9302 444.191 40.9009 445.618 40.3493 446.878C39.7976 448.138 38.7686 449.127 37.4881 449.629L35.0724 450.574L34.128 448.158C33.6285 446.877 33.6578 445.449 34.2095 444.189C34.7611 442.929 35.7901 441.94 37.0706 441.438ZM27.8253 453.407C25.2623 454.405 22.408 454.346 19.8884 453.243C17.3688 452.14 15.3896 450.082 14.3849 447.522L13.4405 445.106L15.8562 444.162C18.4192 443.163 21.2735 443.222 23.7931 444.326C26.3127 445.429 28.2919 447.486 29.2966 450.047L30.241 452.463L27.8253 453.407Z" fill="white" fill-opacity="0.15"/>
</g>
<path d="M132.521 653.367C132.923 651.491 132.935 649.571 132.559 647.725C132.182 645.879 131.424 644.145 130.331 642.628C129.238 641.112 127.832 639.845 126.2 638.904C124.567 637.963 122.742 637.369 120.835 637.156C116.933 636.723 112.941 637.79 109.684 640.138C106.427 642.486 104.153 645.936 103.331 649.775L100.581 664.475L85.7652 662.438C81.8627 662.005 77.8713 663.072 74.6143 665.42C71.3573 667.768 69.0831 671.217 68.2609 675.057C67.8596 676.933 67.8468 678.853 68.2233 680.699C68.5998 682.545 69.3578 684.279 70.451 685.795C71.5442 687.312 72.9498 688.579 74.5823 689.52C76.2148 690.46 78.04 691.055 79.9469 691.267L123.784 696.662L132.521 653.367ZM85.8152 643.993C89.0731 641.644 91.3086 638.159 92.0299 634.303C92.7512 630.447 91.8992 626.537 89.6614 623.433C87.4237 620.329 83.9834 618.285 80.0974 617.75C76.2114 617.216 72.198 618.235 68.9401 620.584C65.6823 622.932 63.4468 626.418 62.7255 630.274C62.0042 634.129 62.8562 638.039 65.0939 641.143C67.3317 644.248 70.772 646.292 74.658 646.826C78.544 647.36 82.5574 646.341 85.8152 643.993Z" fill="white" fill-opacity="0.15" stroke="white" stroke-opacity="0.15" stroke-linecap="round" stroke-linejoin="round"/>
<g clip-path="url(#clip4_15_8)">
<path d="M204.349 98.8148C206.077 97.9796 207.6 96.8112 208.826 95.3805C210.052 93.9499 210.955 92.287 211.481 90.493C212.007 88.6991 212.144 86.8116 211.884 84.9455C211.625 83.0793 210.973 81.2735 209.97 79.638C207.916 76.2916 204.623 73.7963 200.77 72.667C196.917 71.5376 192.798 71.8603 189.263 73.5685L175.971 80.4229L168.483 67.4776C166.429 64.1311 163.136 61.6359 159.283 60.5065C155.43 59.3772 151.311 59.6999 147.775 61.408C146.048 62.2432 144.525 63.4116 143.299 64.8423C142.073 66.2729 141.169 67.9358 140.644 69.7297C140.118 71.5237 139.981 73.4112 140.24 75.2773C140.5 77.1435 141.151 78.9493 142.155 80.5848L164.81 118.5L204.349 98.8148ZM183.073 56.1924C186.927 57.322 191.051 56.9466 194.537 55.1488C198.024 53.3509 200.587 50.2779 201.663 46.6057C202.74 42.9335 202.241 38.9629 200.277 35.5675C198.313 32.1721 195.044 29.6299 191.19 28.5003C187.336 27.3706 183.212 27.746 179.726 29.5439C176.24 31.3417 173.677 34.4148 172.6 38.087C171.524 41.7592 172.023 45.7297 173.987 49.1251C175.951 52.5206 179.219 55.0627 183.073 56.1924Z" fill="white" fill-opacity="0.15" stroke="white" stroke-opacity="0.15" stroke-linecap="round" stroke-linejoin="round"/>
</g>
<g clip-path="url(#clip5_15_8)">
<path d="M1062.9 401.5C1064.59 400.582 1066.05 399.34 1067.21 397.851C1068.36 396.363 1069.18 394.658 1069.62 392.84C1070.06 391.023 1070.1 389.131 1069.75 387.279C1069.4 385.428 1068.66 383.656 1067.58 382.072C1065.36 378.83 1061.95 376.498 1058.05 375.558C1054.15 374.619 1050.05 375.142 1046.6 377.021L1033.66 384.517L1025.55 371.952C1023.33 368.71 1019.92 366.379 1016.02 365.439C1012.11 364.499 1008.02 365.023 1004.57 366.902C1002.88 367.82 1001.42 369.062 1000.27 370.551C999.111 372.039 998.289 373.744 997.852 375.562C997.414 377.379 997.369 379.271 997.72 381.123C998.071 382.974 998.809 384.746 999.891 386.33L1024.37 423.093L1062.9 401.5ZM1039.57 359.968C1043.47 360.908 1047.57 360.332 1050.97 358.366C1054.36 356.4 1056.77 353.205 1057.67 349.485C1058.56 345.764 1057.87 341.823 1055.75 338.527C1053.62 335.232 1050.23 332.853 1046.32 331.912C1042.42 330.972 1038.32 331.549 1034.92 333.515C1031.53 335.481 1029.12 338.675 1028.22 342.396C1027.33 346.116 1028.02 350.058 1030.15 353.353C1032.28 356.649 1035.67 359.028 1039.57 359.968Z" fill="white" fill-opacity="0.15" stroke="white" stroke-opacity="0.15" stroke-linecap="round" stroke-linejoin="round"/>
</g>
<g clip-path="url(#clip6_15_8)">
<path fill-rule="evenodd" clip-rule="evenodd" d="M1277.3 468.704C1278 468.785 1278.67 468.994 1279.27 469.318C1279.88 469.642 1280.41 470.075 1280.84 470.593C1281.27 471.111 1281.59 471.703 1281.77 472.335C1281.96 472.968 1282.01 473.628 1281.92 474.279L1280.67 483.645H1294.75L1296.17 473.041C1296.34 471.727 1297.07 470.532 1298.18 469.719C1299.29 468.906 1300.7 468.542 1302.1 468.706C1303.5 468.87 1304.77 469.55 1305.63 470.595C1306.5 471.64 1306.89 472.965 1306.71 474.279L1305.46 483.645H1313.83C1315.24 483.645 1316.59 484.171 1317.59 485.108C1318.59 486.044 1319.15 487.314 1319.15 488.638C1319.15 489.962 1318.59 491.232 1317.59 492.168C1316.59 493.105 1315.24 493.631 1313.83 493.631H1304.14L1302.37 506.944H1312.06C1313.47 506.944 1314.82 507.47 1315.82 508.407C1316.82 509.343 1317.37 510.613 1317.37 511.937C1317.37 513.261 1316.82 514.531 1315.82 515.467C1314.82 516.404 1313.47 516.93 1312.06 516.93H1301.04L1299.63 527.534C1299.45 528.848 1298.73 530.043 1297.62 530.856C1296.51 531.669 1295.1 532.033 1293.7 531.869C1292.3 531.705 1291.03 531.026 1290.16 529.98C1289.3 528.935 1288.91 527.61 1289.08 526.296L1290.33 516.93H1276.25L1274.84 527.534C1274.75 528.185 1274.53 528.813 1274.18 529.383C1273.84 529.953 1273.38 530.453 1272.83 530.856C1272.28 531.258 1271.65 531.555 1270.97 531.729C1270.3 531.903 1269.6 531.95 1268.91 531.869C1268.21 531.788 1267.54 531.579 1266.94 531.255C1266.33 530.931 1265.8 530.498 1265.37 529.98C1264.94 529.463 1264.63 528.871 1264.44 528.239C1264.26 527.607 1264.21 526.946 1264.29 526.296L1265.54 516.93H1258.94C1257.53 516.93 1256.18 516.404 1255.18 515.467C1254.18 514.531 1253.62 513.261 1253.62 511.937C1253.62 510.613 1254.18 509.343 1255.18 508.407C1256.18 507.47 1257.53 506.944 1258.94 506.944H1266.86L1268.63 493.631H1260.71C1259.3 493.631 1257.95 493.105 1256.95 492.168C1255.96 491.232 1255.4 489.962 1255.4 488.638C1255.4 487.314 1255.96 486.044 1256.95 485.108C1257.95 484.171 1259.3 483.645 1260.71 483.645H1269.96L1271.38 473.041C1271.46 472.39 1271.68 471.762 1272.03 471.191C1272.37 470.621 1272.83 470.12 1273.38 469.717C1273.93 469.314 1274.56 469.016 1275.24 468.842C1275.91 468.668 1276.61 468.623 1277.3 468.704ZM1291.66 506.944L1293.43 493.631H1279.35L1277.58 506.944H1291.66Z" fill="white" fill-opacity="0.15"/>
</g>
<path fill-rule="evenodd" clip-rule="evenodd" d="M1131.49 234.489C1120.82 226.127 1106.25 212.313 1106.25 199.253C1106.25 177.433 1126.19 169.286 1142.5 186.136C1158.81 169.286 1178.75 177.433 1178.75 199.249C1178.75 212.313 1164.18 226.127 1153.51 234.489C1148.68 238.272 1146.27 240.167 1142.5 240.167C1138.73 240.167 1136.32 238.275 1131.49 234.489ZM1158.81 189.177C1159.53 189.177 1160.23 189.47 1160.73 189.992C1161.24 190.513 1161.53 191.221 1161.53 191.958V196.594H1166.06C1166.78 196.594 1167.48 196.887 1167.98 197.408C1168.49 197.93 1168.78 198.637 1168.78 199.375C1168.78 200.113 1168.49 200.82 1167.98 201.342C1167.48 201.863 1166.78 202.156 1166.06 202.156H1161.53V206.792C1161.53 207.529 1161.24 208.237 1160.73 208.758C1160.23 209.28 1159.53 209.573 1158.81 209.573C1158.09 209.573 1157.4 209.28 1156.89 208.758C1156.38 208.237 1156.09 207.529 1156.09 206.792V202.156H1151.56C1150.84 202.156 1150.15 201.863 1149.64 201.342C1149.13 200.82 1148.84 200.113 1148.84 199.375C1148.84 198.637 1149.13 197.93 1149.64 197.408C1150.15 196.887 1150.84 196.594 1151.56 196.594H1156.09V191.958C1156.09 191.221 1156.38 190.513 1156.89 189.992C1157.4 189.47 1158.09 189.177 1158.81 189.177Z" fill="white" fill-opacity="0.15"/>
<defs>
<clipPath id="clip0_15_8">
<rect width="120" height="131" fill="white" transform="translate(1186.49 287.722) rotate(-15.7317)"/>
</clipPath>
<clipPath id="clip1_15_8">
<rect width="100" height="97" fill="white" transform="translate(74.3672 223.381) rotate(10.6972)"/>
</clipPath>
<clipPath id="clip2_15_8">
<rect width="83" height="83" fill="white" transform="translate(1208.09 51.2852) rotate(-28.9617)"/>
</clipPath>
<clipPath id="clip3_15_8">
<rect width="83" height="83" fill="white" transform="translate(0 439.221) rotate(-21.3529)"/>
</clipPath>
<clipPath id="clip4_15_8">
<rect width="106" height="101" fill="white" transform="translate(185.359 0.663818) rotate(52.1531)"/>
</clipPath>
<clipPath id="clip5_15_8">
<rect width="106" height="101" fill="white" transform="translate(995.641 316) rotate(13.5365)"/>
</clipPath>
<clipPath id="clip6_15_8">
<rect width="85" height="79.8819" fill="white" transform="translate(1243 460.347)"/>
</clipPath>
</defs>
</svg>
