<svg width="32" height="32" viewBox="0 0 32 32" fill="none" xmlns="http://www.w3.org/2000/svg">
<g id="fluent:mail-28-filled">
<path id="Vector" d="M3.42871 11.5704L15.6047 17.9029C15.7269 17.9664 15.8625 17.9996 16.0001 17.9996C16.1378 17.9996 16.2734 17.9664 16.3956 17.9029L28.5716 11.5715V22.5715C28.5716 23.5202 28.2087 24.433 27.5571 25.1226C26.9055 25.8122 26.0148 26.2264 25.0676 26.2801L24.8573 26.2858H7.143C6.19427 26.2858 5.28148 25.9229 4.59188 25.2713C3.90227 24.6197 3.48814 23.729 3.43443 22.7818L3.42871 22.5715V11.5704ZM7.143 5.71436H24.8573C25.806 5.71429 26.7188 6.07727 27.4084 6.72884C28.098 7.3804 28.5122 8.27115 28.5659 9.21836L28.5716 9.42864V9.63893L16.0001 16.1761L3.42871 9.63893V9.42864C3.42865 8.47991 3.79163 7.56712 4.44319 6.87752C5.09476 6.18792 5.9855 5.77378 6.93271 5.72007L7.143 5.71436Z" fill="#888888"/>
</g>
</svg>
