<svg width="24" height="24" viewBox="0 0 38 38" fill="none" xmlns="http://www.w3.org/2000/svg">
<path d="M4.484 30.1862C3.61223 28.1888 3.1637 26.0323 3.16667 23.8529C3.16667 15.1082 10.2553 8.01958 19 8.01958C27.7448 8.01958 34.8333 15.1082 34.8333 23.8529C34.8363 26.0323 34.3878 28.1888 33.516 30.1862H4.484ZM19 15.9362C19.4199 15.9362 19.8227 15.7694 20.1196 15.4725C20.4165 15.1756 20.5833 14.7728 20.5833 14.3529C20.5833 13.933 20.4165 13.5303 20.1196 13.2333C19.8227 12.9364 19.4199 12.7696 19 12.7696C18.5801 12.7696 18.1774 12.9364 17.8804 13.2333C17.5835 13.5303 17.4167 13.933 17.4167 14.3529C17.4167 14.7728 17.5835 15.1756 17.8804 15.4725C18.1774 15.7694 18.5801 15.9362 19 15.9362ZM11.0833 22.2696C11.5033 22.2696 11.906 22.1028 12.2029 21.8058C12.4999 21.5089 12.6667 21.1062 12.6667 20.6862C12.6667 20.2663 12.4999 19.8636 12.2029 19.5667C11.906 19.2697 11.5033 19.1029 11.0833 19.1029C10.6634 19.1029 10.2607 19.2697 9.96375 19.5667C9.66682 19.8636 9.5 20.2663 9.5 20.6862C9.5 21.1062 9.66682 21.5089 9.96375 21.8058C10.2607 22.1028 10.6634 22.2696 11.0833 22.2696ZM26.9167 22.2696C27.3366 22.2696 27.7393 22.1028 28.0363 21.8058C28.3332 21.5089 28.5 21.1062 28.5 20.6862C28.5 20.2663 28.3332 19.8636 28.0363 19.5667C27.7393 19.2697 27.3366 19.1029 26.9167 19.1029C26.4967 19.1029 26.094 19.2697 25.7971 19.5667C25.5002 19.8636 25.3333 20.2663 25.3333 20.6862C25.3333 21.1062 25.5002 21.5089 25.7971 21.8058C26.094 22.1028 26.4967 22.2696 26.9167 22.2696ZM19 17.5196C18.5801 17.5196 18.1774 17.6864 17.8804 17.9833C17.5835 18.2803 17.4167 18.683 17.4167 19.1029V23.8529C17.4167 24.2728 17.5835 24.6756 17.8804 24.9725C18.1774 25.2694 18.5801 25.4362 19 25.4362C19.4199 25.4362 19.8227 25.2694 20.1196 24.9725C20.4165 24.6756 20.5833 24.2728 20.5833 23.8529V19.1029C20.5833 18.683 20.4165 18.2803 20.1196 17.9833C19.8227 17.6864 19.4199 17.5196 19 17.5196Z" fill="#888888"/>
</svg>
