<svg class="custome-color" width="24" height="24" viewBox="0 0 35 35" fill="none" xmlns="http://www.w3.org/2000/svg">
<path d="M5.83332 2.91667C5.05978 2.91667 4.31791 3.22396 3.77093 3.77094C3.22395 4.31792 2.91666 5.05979 2.91666 5.83334V23.3333C2.91666 24.1069 3.22395 24.8488 3.77093 25.3957C4.31791 25.9427 5.05978 26.25 5.83332 26.25H11.6667V30.625C11.6667 31.0118 11.8203 31.3827 12.0938 31.6562C12.3673 31.9297 12.7382 32.0833 13.125 32.0833H13.8542C14.2187 32.0833 14.5833 31.9375 14.875 31.6604L20.2708 26.25H29.1667C29.9402 26.25 30.6821 25.9427 31.2291 25.3957C31.776 24.8488 32.0833 24.1069 32.0833 23.3333V5.83334C32.0833 5.05979 31.776 4.31792 31.2291 3.77094C30.6821 3.22396 29.9402 2.91667 29.1667 2.91667H5.83332ZM5.83332 5.83334H29.1667V23.3333H19.075L14.5833 27.825V23.3333H5.83332V5.83334ZM17.7771 8.02084C16.4792 8.02084 15.4437 8.28334 14.6562 8.80834C13.8542 9.33334 13.4458 10.2083 13.5187 11.2146H16.3917C16.3917 10.8063 16.5375 10.5 16.7708 10.2958C17.0625 10.0917 17.3833 9.98959 17.7771 9.98959C18.2292 9.98959 18.6229 10.1063 18.8854 10.3688C19.1479 10.6167 19.2792 10.9375 19.2792 11.375C19.2792 11.7833 19.1625 12.1479 18.9583 12.4542C18.7104 12.775 18.4042 13.0375 18.025 13.2417C17.2667 13.7083 16.7708 14.1167 16.4646 14.4667C16.1875 14.8167 16.0417 15.3125 16.0417 16.0417H18.9583C18.9583 15.6333 19.0312 15.3125 19.1625 15.05C19.2937 14.8021 19.5417 14.5833 19.9208 14.3646C20.5917 14.0583 21.1458 13.65 21.5687 13.125C21.9917 12.5854 22.2104 12.0167 22.2104 11.375C22.2104 10.3542 21.8167 9.53751 21.0292 8.925C20.2417 8.32709 19.1479 8.02084 17.7771 8.02084ZM16.0417 17.5V20.4167H18.9583V17.5H16.0417Z" fill="#888888"/>
</svg>
