<svg width="1440" height="965" viewBox="0 0 1440 965" fill="none" xmlns="http://www.w3.org/2000/svg">
<rect width="1440" height="965" fill="#43D7C2"/>
<g clip-path="url(#clip0_1449_850)">
<path fill-rule="evenodd" clip-rule="evenodd" d="M71.9863 260.329C72.4101 260.378 72.8192 260.505 73.1905 260.703C73.5617 260.9 73.8878 261.165 74.1499 261.48C74.4121 261.796 74.6053 262.157 74.7185 262.543C74.8317 262.928 74.8626 263.331 74.8095 263.728L74.0468 269.439H82.6615L83.526 262.973C83.6329 262.172 84.0752 261.443 84.7556 260.947C85.436 260.452 86.2987 260.229 87.1541 260.33C88.0094 260.43 88.7873 260.844 89.3165 261.481C89.8458 262.119 90.083 262.927 89.9762 263.728L89.2135 269.439H94.3333C95.1953 269.439 96.0219 269.76 96.6314 270.331C97.2409 270.902 97.5833 271.676 97.5833 272.483C97.5833 273.291 97.2409 274.065 96.6314 274.636C96.0219 275.207 95.1953 275.528 94.3333 275.528H88.401L87.3177 283.646H93.25C94.1119 283.646 94.9386 283.966 95.5481 284.537C96.1576 285.108 96.5 285.883 96.5 286.69C96.5 287.497 96.1576 288.272 95.5481 288.843C94.9386 289.414 94.1119 289.734 93.25 289.734H86.5052L85.6428 296.2C85.5359 297.002 85.0937 297.73 84.4133 298.226C83.7329 298.722 82.8701 298.944 82.0147 298.844C81.1594 298.744 80.3815 298.329 79.8523 297.692C79.3231 297.055 79.0858 296.247 79.1927 295.445L79.9532 289.734H71.3385L70.4762 296.2C70.4232 296.597 70.2874 296.98 70.0765 297.328C69.8655 297.675 69.5835 297.98 69.2466 298.226C68.9097 298.471 68.5245 298.652 68.1129 298.758C67.7014 298.864 67.2716 298.893 66.8481 298.844C66.4246 298.794 66.0156 298.667 65.6446 298.469C65.2735 298.272 64.9477 298.008 64.6856 297.692C64.4236 297.377 64.2305 297.016 64.1173 296.63C64.0041 296.245 63.9731 295.842 64.026 295.445L64.7865 289.734H60.75C59.888 289.734 59.0614 289.414 58.4519 288.843C57.8424 288.272 57.5 287.497 57.5 286.69C57.5 285.883 57.8424 285.108 58.4519 284.537C59.0614 283.966 59.888 283.646 60.75 283.646H65.599L66.6823 275.528H61.8333C60.9714 275.528 60.1447 275.207 59.5352 274.636C58.9257 274.065 58.5833 273.291 58.5833 272.483C58.5833 271.676 58.9257 270.902 59.5352 270.331C60.1447 269.76 60.9714 269.439 61.8333 269.439H67.4948L68.3593 262.973C68.4118 262.576 68.5473 262.193 68.7581 261.845C68.9688 261.497 69.2506 261.192 69.5874 260.946C69.9243 260.7 70.3095 260.519 70.7211 260.413C71.1327 260.306 71.5626 260.279 71.9863 260.329ZM80.77 283.646L81.8533 275.528H73.2365L72.1532 283.646H80.77Z" fill="white" fill-opacity="0.15"/>
</g>
<g clip-path="url(#clip1_1449_850)">
<path d="M1290.64 505.239C1275.89 500.564 1264.59 489.831 1260.59 475.608C1253.63 450.893 1271 425.011 1298.69 417.214C1326.37 409.416 1354.7 422.424 1361.66 447.138C1368.62 471.852 1351.25 497.734 1323.56 505.531C1321.44 506.131 1319.29 506.61 1317.12 506.977L1302.64 524.995C1300.16 527.541 1298.66 528.525 1295.59 527.355C1291.98 525.967 1291.4 523.476 1291.45 519.676L1290.64 505.239ZM1270.21 472.897C1273.37 484.098 1283.14 492.636 1296.28 495.722L1300.21 496.651L1300.45 500.949L1300.96 510.151L1311.73 496.74L1313.56 496.487C1315.93 496.165 1318.28 495.678 1320.6 495.025C1343.42 488.598 1357.17 468.108 1352.03 449.851C1346.88 431.593 1324.46 421.294 1301.65 427.721C1278.83 434.149 1265.07 454.64 1270.21 472.897ZM1339.04 451.548L1349.51 460.818C1349.76 461.036 1349.96 461.303 1350.12 461.602C1350.27 461.902 1350.37 462.229 1350.41 462.565C1350.45 462.9 1350.43 463.238 1350.35 463.558C1350.26 463.878 1350.12 464.175 1349.93 464.431C1349.74 464.687 1349.5 464.897 1349.23 465.05C1348.96 465.204 1348.66 465.296 1348.35 465.323C1348.04 465.35 1347.73 465.31 1347.42 465.206C1347.12 465.103 1346.84 464.937 1346.59 464.718L1336.71 455.973L1335.27 458.722L1337.29 465.883C1337.47 466.541 1337.41 467.239 1337.12 467.824C1336.82 468.409 1336.32 468.833 1335.71 469.003C1335.11 469.172 1334.46 469.074 1333.9 468.729C1333.35 468.384 1332.93 467.82 1332.74 467.163L1330.61 459.602C1330.42 459.243 1330.31 458.843 1330.29 458.436L1326.5 445.002C1326.32 444.344 1326.38 443.646 1326.67 443.061C1326.97 442.476 1327.47 442.052 1328.07 441.882C1328.68 441.713 1329.33 441.811 1329.89 442.156C1330.44 442.501 1330.86 443.064 1331.04 443.722L1333.33 451.824L1339.84 439.406C1340.16 438.853 1340.67 438.463 1341.26 438.32C1341.86 438.176 1342.49 438.289 1343.03 438.636C1343.57 438.982 1343.97 439.535 1344.15 440.177C1344.34 440.819 1344.28 441.501 1344 442.079L1339.04 451.548ZM1327.65 465.672C1328.25 465.502 1328.9 465.601 1329.46 465.946C1330.02 466.291 1330.43 466.854 1330.62 467.512C1330.8 468.17 1330.74 468.868 1330.45 469.453C1330.15 470.038 1329.65 470.462 1329.05 470.632L1319.75 473.251C1319.15 473.419 1318.5 473.319 1317.94 472.974C1317.38 472.629 1316.97 472.066 1316.78 471.409L1310.63 449.558C1310.52 449.228 1310.47 448.879 1310.49 448.535C1310.51 448.191 1310.6 447.857 1310.74 447.555C1310.88 447.253 1311.08 446.988 1311.33 446.777C1311.57 446.565 1311.86 446.412 1312.17 446.325C1312.47 446.239 1312.8 446.221 1313.12 446.274C1313.44 446.326 1313.74 446.447 1314.02 446.63C1314.31 446.812 1314.55 447.053 1314.75 447.337C1314.94 447.62 1315.09 447.941 1315.17 448.28L1320.62 467.651L1327.65 465.672ZM1297.85 467.88L1304.27 466.072L1298.67 457.963L1297.85 467.88ZM1310.71 467.018L1313.74 471.41C1313.94 471.685 1314.09 471.999 1314.18 472.332C1314.27 472.665 1314.3 473.01 1314.26 473.349C1314.22 473.687 1314.12 474.011 1313.97 474.301C1313.81 474.591 1313.6 474.842 1313.35 475.038C1313.1 475.234 1312.81 475.372 1312.5 475.444C1312.19 475.515 1311.87 475.518 1311.56 475.453C1311.24 475.389 1310.94 475.257 1310.67 475.066C1310.4 474.875 1310.16 474.629 1309.97 474.343L1307.36 470.549L1297.39 473.355L1297 478.076C1296.97 478.41 1296.88 478.731 1296.74 479.021C1296.59 479.312 1296.4 479.566 1296.16 479.77C1295.92 479.974 1295.64 480.122 1295.34 480.208C1295.04 480.294 1294.73 480.314 1294.42 480.269C1294.11 480.224 1293.81 480.113 1293.53 479.944C1293.25 479.774 1293.01 479.549 1292.81 479.281C1292.61 479.014 1292.46 478.708 1292.36 478.383C1292.27 478.058 1292.24 477.719 1292.26 477.386L1294.23 453.723C1294.28 452.961 1294.54 452.243 1294.99 451.666C1295.43 451.088 1296.03 450.678 1296.71 450.489C1297.4 450.33 1298.12 450.401 1298.78 450.694C1299.45 450.987 1300.02 451.488 1300.43 452.13L1309.61 465.422C1310.13 465.768 1310.52 466.307 1310.7 466.932L1310.71 467.018ZM1290.17 455.349C1290.56 456.715 1289.86 458.114 1288.6 458.467L1283.12 460.013L1288.65 479.641C1288.83 480.3 1288.77 480.999 1288.47 481.584C1288.18 482.17 1287.67 482.594 1287.07 482.764C1286.47 482.934 1285.82 482.836 1285.26 482.49C1284.7 482.145 1284.28 481.581 1284.1 480.922L1278.57 461.294L1272.99 462.867C1272.38 463.036 1271.73 462.938 1271.17 462.593C1270.62 462.248 1270.2 461.684 1270.02 461.027C1269.83 460.369 1269.89 459.671 1270.19 459.086C1270.48 458.501 1270.99 458.077 1271.59 457.907L1287.21 453.508C1288.46 453.155 1289.78 453.978 1290.17 455.349Z" fill="white" fill-opacity="0.15"/>
</g>
<g clip-path="url(#clip2_1449_850)">
<path d="M136.701 407.81L140.702 386.63L132.513 385.083C130.341 384.672 128.101 385.116 126.284 386.315C124.467 387.515 123.222 389.372 122.824 391.479L113.822 439.136C113.733 439.628 113.787 440.137 113.979 440.604C114.17 441.071 114.491 441.479 114.905 441.781C115.307 442.057 115.776 442.226 116.264 442.27C116.753 442.314 117.243 442.232 117.685 442.032L133.637 434.653L170.322 441.583C171.351 441.808 172.414 441.825 173.445 441.635C174.477 441.444 175.455 441.05 176.319 440.475C177.182 439.901 177.914 439.158 178.467 438.295C179.021 437.431 179.385 436.464 179.536 435.453L180.101 432.462L150.077 426.79C145.733 425.969 141.884 423.509 139.375 419.949C136.867 416.39 135.905 412.024 136.701 407.81Z" fill="white" fill-opacity="0.15"/>
<path d="M199.5 404.592C196.343 404.003 193.361 402.712 190.789 400.821C188.216 398.93 186.123 396.489 184.674 393.691C183.225 390.893 182.459 387.814 182.436 384.695C182.414 381.577 183.136 378.503 184.545 375.717L160.58 371.19C158.408 370.78 156.167 371.223 154.35 372.422C152.533 373.622 151.289 375.479 150.891 377.586L144.889 409.357C144.491 411.464 144.972 413.647 146.226 415.427C147.481 417.206 149.405 418.437 151.577 418.847L188.562 425.833L199.753 438.121C200.089 438.472 200.513 438.732 200.983 438.874C201.453 439.015 201.951 439.034 202.428 438.928C202.933 438.801 203.389 438.537 203.744 438.168C204.099 437.798 204.338 437.337 204.434 436.839L210.711 403.611C207.151 404.942 203.27 405.281 199.5 404.592Z" fill="white" fill-opacity="0.15"/>
<path d="M200.751 397.973C208.288 399.397 215.518 394.624 216.899 387.313C218.28 380.002 213.289 372.92 205.752 371.497C198.215 370.073 190.985 374.846 189.604 382.157C188.223 389.468 193.213 396.549 200.751 397.973Z" fill="white" fill-opacity="0.15"/>
</g>
<g clip-path="url(#clip3_1449_850)">
<path d="M1297.8 242.316L1315.96 232.268L1318.47 236.807L1300.31 246.855L1297.8 242.316ZM1333.1 225.746C1332.76 225.934 1332.38 226.043 1331.99 226.065C1331.6 226.088 1331.22 226.022 1330.86 225.875L1316.65 220.026L1292.78 233.239L1290.26 228.7L1315.23 214.884C1315.57 214.696 1315.95 214.587 1316.33 214.565C1316.72 214.543 1317.11 214.608 1317.47 214.756L1329.55 219.726L1331.57 195.302C1331.6 194.889 1331.74 194.489 1331.96 194.138C1332.18 193.787 1332.48 193.493 1332.84 193.282C1333.19 193.072 1333.6 192.95 1334.01 192.927C1334.42 192.904 1334.84 192.98 1335.22 193.15L1345.86 197.929L1353.81 193.533L1356.32 198.072L1347.24 203.096C1346.89 203.291 1346.5 203.401 1346.09 203.418C1345.69 203.434 1345.29 203.357 1344.92 203.193L1336.44 199.382L1334.43 223.691C1334.39 224.098 1334.26 224.491 1334.05 224.838C1333.84 225.186 1333.54 225.477 1333.19 225.69L1333.1 225.746ZM1303.15 203.78L1296.87 192.433L1299.14 191.177C1301.55 189.842 1303.33 187.608 1304.09 184.964C1304.85 182.321 1304.53 179.484 1303.2 177.076L1299.43 170.267L1292.62 174.035C1290.3 175.325 1288.56 177.461 1287.78 179.998C1285.42 178.514 1282.71 177.69 1279.93 177.61C1277.14 177.53 1274.39 178.198 1271.95 179.544L1265.15 183.312L1268.91 190.12C1270.92 193.728 1274.27 196.394 1278.23 197.534C1282.2 198.674 1286.45 198.194 1290.07 196.201L1292.33 194.945L1298.61 206.292L1282.73 215.083L1285.24 219.622L1317.01 202.039L1314.5 197.5L1303.15 203.78ZM1295.13 178.574L1297.4 177.318L1298.66 179.587C1299.32 180.792 1299.48 182.21 1299.1 183.532C1298.72 184.854 1297.83 185.971 1296.63 186.638L1294.36 187.894L1293.11 185.625C1292.44 184.421 1292.28 183.002 1292.66 181.68C1293.04 180.358 1293.93 179.241 1295.13 178.574ZM1287.55 191.662C1285.15 192.991 1282.31 193.31 1279.66 192.55C1277.02 191.791 1274.79 190.013 1273.45 187.608L1272.2 185.339L1274.47 184.083C1276.87 182.754 1279.71 182.435 1282.35 183.194C1285 183.954 1287.23 185.732 1288.57 188.137L1289.82 190.406L1287.55 191.662Z" fill="white" fill-opacity="0.15"/>
</g>
<g clip-path="url(#clip4_1449_850)">
<path d="M81.275 634.972L100.601 627.417L102.489 632.248L83.1638 639.803L81.275 634.972ZM118.455 623.221C118.093 623.363 117.704 623.421 117.317 623.392C116.929 623.362 116.553 623.246 116.217 623.052L102.911 615.374L77.4974 625.309L75.6085 620.478L102.181 610.089C102.543 609.948 102.932 609.89 103.32 609.919C103.707 609.948 104.083 610.064 104.42 610.258L115.735 616.785L120.971 592.843C121.06 592.438 121.244 592.06 121.509 591.741C121.774 591.422 122.112 591.171 122.494 591.009C122.876 590.847 123.291 590.78 123.705 590.812C124.118 590.844 124.518 590.975 124.871 591.193L134.793 597.34L143.248 594.034L145.137 598.866L135.474 602.643C135.099 602.79 134.695 602.847 134.294 602.811C133.893 602.774 133.506 602.645 133.164 602.432L125.255 597.532L120.045 621.361C119.957 621.759 119.777 622.132 119.519 622.448C119.261 622.764 118.931 623.014 118.558 623.178L118.455 623.221ZM91.6834 597.484L86.9613 585.405L89.377 584.461C91.9375 583.456 93.995 581.477 95.0983 578.957C96.2015 576.438 96.2604 573.583 95.2621 571.02L92.4289 563.773L85.1818 566.607C82.7096 567.578 80.7072 569.465 79.5913 571.875C77.4524 570.093 74.8747 568.917 72.1268 568.469C69.3789 568.022 66.5612 568.319 63.9673 569.331L56.7202 572.164L59.5535 579.411C61.0602 583.252 64.029 586.338 67.8085 587.993C71.5881 589.648 75.8697 589.736 79.7142 588.239L82.1299 587.294L86.8519 599.373L69.942 605.984L71.8309 610.815L105.651 597.593L103.762 592.762L91.6834 597.484ZM87.0706 571.438L89.4863 570.494L90.4307 572.909C90.9302 574.191 90.9009 575.618 90.3493 576.878C89.7976 578.138 88.7686 579.127 87.4881 579.63L85.0724 580.574L84.128 578.158C83.6285 576.877 83.6578 575.449 84.2095 574.19C84.7611 572.93 85.7901 571.94 87.0706 571.438ZM77.8253 583.407C75.2623 584.406 72.408 584.347 69.8884 583.243C67.3688 582.14 65.3896 580.083 64.3849 577.522L63.4405 575.106L65.8562 574.162C68.4192 573.164 71.2735 573.223 73.7931 574.326C76.3127 575.429 78.2919 577.487 79.2966 580.047L80.241 582.463L77.8253 583.407Z" fill="white" fill-opacity="0.15"/>
</g>
<path d="M182.521 783.367C182.923 781.49 182.935 779.571 182.559 777.725C182.182 775.879 181.424 774.144 180.331 772.628C179.238 771.112 177.832 769.844 176.2 768.904C174.567 767.963 172.742 767.368 170.835 767.156C166.933 766.723 162.941 767.79 159.684 770.138C156.427 772.486 154.153 775.935 153.331 779.775L150.581 794.475L135.765 792.438C131.863 792.004 127.871 793.072 124.614 795.42C121.357 797.768 119.083 801.217 118.261 805.057C117.86 806.933 117.847 808.852 118.223 810.698C118.6 812.545 119.358 814.279 120.451 815.795C121.544 817.312 122.95 818.579 124.582 819.519C126.215 820.46 128.04 821.055 129.947 821.267L173.784 826.662L182.521 783.367ZM135.815 773.992C139.073 771.644 141.309 768.158 142.03 764.303C142.751 760.447 141.899 756.537 139.661 753.433C137.424 750.329 133.983 748.284 130.097 747.75C126.211 747.216 122.198 748.235 118.94 750.584C115.682 752.932 113.447 756.418 112.726 760.273C112.004 764.129 112.856 768.039 115.094 771.143C117.332 774.247 120.772 776.292 124.658 776.826C128.544 777.36 132.557 776.341 135.815 773.992Z" fill="white" fill-opacity="0.15" stroke="white" stroke-opacity="0.15" stroke-linecap="round" stroke-linejoin="round"/>
<g clip-path="url(#clip5_1449_850)">
<path d="M254.349 228.815C256.077 227.98 257.6 226.811 258.826 225.381C260.052 223.95 260.955 222.287 261.481 220.493C262.007 218.699 262.144 216.812 261.884 214.946C261.625 213.079 260.973 211.274 259.97 209.638C257.916 206.292 254.623 203.796 250.77 202.667C246.917 201.538 242.798 201.86 239.263 203.569L225.971 210.423L218.483 197.478C216.429 194.131 213.136 191.636 209.283 190.507C205.43 189.377 201.311 189.7 197.775 191.408C196.048 192.243 194.525 193.412 193.299 194.842C192.073 196.273 191.169 197.936 190.644 199.73C190.118 201.524 189.981 203.411 190.24 205.277C190.5 207.144 191.151 208.949 192.155 210.585L214.81 248.5L254.349 228.815ZM233.073 186.192C236.927 187.322 241.051 186.947 244.537 185.149C248.024 183.351 250.587 180.278 251.663 176.606C252.74 172.934 252.241 168.963 250.277 165.568C248.313 162.172 245.044 159.63 241.19 158.5C237.336 157.371 233.212 157.746 229.726 159.544C226.24 161.342 223.677 164.415 222.6 168.087C221.524 171.759 222.023 175.73 223.987 179.125C225.951 182.521 229.219 185.063 233.073 186.192Z" fill="white" fill-opacity="0.15" stroke="white" stroke-opacity="0.15" stroke-linecap="round" stroke-linejoin="round"/>
</g>
<g clip-path="url(#clip6_1449_850)">
<path d="M1112.9 531.5C1114.59 530.582 1116.05 529.34 1117.21 527.851C1118.36 526.362 1119.18 524.657 1119.62 522.84C1120.06 521.022 1120.1 519.13 1119.75 517.279C1119.4 515.428 1118.66 513.656 1117.58 512.072C1115.36 508.83 1111.95 506.498 1108.05 505.558C1104.15 504.619 1100.05 505.142 1096.6 507.021L1083.66 514.516L1075.55 501.952C1073.33 498.71 1069.92 496.379 1066.02 495.439C1062.11 494.499 1058.02 495.023 1054.57 496.902C1052.88 497.82 1051.42 499.062 1050.27 500.55C1049.11 502.039 1048.29 503.744 1047.85 505.562C1047.41 507.379 1047.37 509.271 1047.72 511.122C1048.07 512.974 1048.81 514.745 1049.89 516.33L1074.37 553.093L1112.9 531.5ZM1089.57 489.968C1093.47 490.908 1097.57 490.332 1100.97 488.366C1104.36 486.4 1106.77 483.205 1107.67 479.485C1108.56 475.764 1107.87 471.823 1105.74 468.527C1103.62 465.232 1100.23 462.852 1096.32 461.912C1092.42 460.972 1088.32 461.549 1084.92 463.515C1081.53 465.481 1079.12 468.675 1078.22 472.396C1077.33 476.116 1078.02 480.058 1080.15 483.353C1082.28 486.648 1085.66 489.028 1089.57 489.968Z" fill="white" fill-opacity="0.15" stroke="white" stroke-opacity="0.15" stroke-linecap="round" stroke-linejoin="round"/>
</g>
<g clip-path="url(#clip7_1449_850)">
<path fill-rule="evenodd" clip-rule="evenodd" d="M1327.3 598.705C1328 598.786 1328.67 598.994 1329.27 599.318C1329.88 599.642 1330.41 600.076 1330.84 600.593C1331.27 601.111 1331.59 601.703 1331.77 602.336C1331.96 602.968 1332.01 603.629 1331.92 604.28L1330.67 613.646H1344.75L1346.17 603.041C1346.34 601.727 1347.07 600.533 1348.18 599.72C1349.29 598.906 1350.7 598.542 1352.1 598.706C1353.5 598.87 1354.77 599.55 1355.63 600.595C1356.5 601.64 1356.89 602.966 1356.71 604.28L1355.46 613.646H1363.83C1365.24 613.646 1366.59 614.172 1367.59 615.108C1368.59 616.044 1369.15 617.314 1369.15 618.638C1369.15 619.963 1368.59 621.232 1367.59 622.169C1366.59 623.105 1365.24 623.631 1363.83 623.631H1354.14L1352.37 636.945H1362.06C1363.47 636.945 1364.82 637.471 1365.82 638.407C1366.82 639.343 1367.37 640.613 1367.37 641.937C1367.37 643.261 1366.82 644.531 1365.82 645.468C1364.82 646.404 1363.47 646.93 1362.06 646.93H1351.04L1349.63 657.534C1349.45 658.848 1348.73 660.043 1347.62 660.856C1346.51 661.669 1345.1 662.034 1343.7 661.869C1342.3 661.705 1341.03 661.026 1340.16 659.981C1339.3 658.935 1338.91 657.61 1339.08 656.296L1340.33 646.93H1326.25L1324.84 657.534C1324.75 658.185 1324.53 658.813 1324.18 659.383C1323.84 659.953 1323.38 660.454 1322.83 660.856C1322.28 661.259 1321.65 661.555 1320.97 661.729C1320.3 661.903 1319.6 661.951 1318.91 661.869C1318.21 661.788 1317.54 661.58 1316.94 661.255C1316.33 660.931 1315.8 660.498 1315.37 659.981C1314.94 659.463 1314.63 658.871 1314.44 658.239C1314.26 657.607 1314.21 656.947 1314.29 656.296L1315.54 646.93H1308.94C1307.53 646.93 1306.18 646.404 1305.18 645.468C1304.18 644.531 1303.62 643.261 1303.62 641.937C1303.62 640.613 1304.18 639.343 1305.18 638.407C1306.18 637.471 1307.53 636.945 1308.94 636.945H1316.86L1318.63 623.631H1310.71C1309.3 623.631 1307.95 623.105 1306.95 622.169C1305.96 621.232 1305.4 619.963 1305.4 618.638C1305.4 617.314 1305.96 616.044 1306.95 615.108C1307.95 614.172 1309.3 613.646 1310.71 613.646H1319.96L1321.38 603.041C1321.46 602.391 1321.68 601.762 1322.03 601.191C1322.37 600.621 1322.83 600.12 1323.38 599.717C1323.93 599.314 1324.56 599.017 1325.24 598.842C1325.91 598.668 1326.61 598.623 1327.3 598.705ZM1341.66 636.945L1343.43 623.631H1329.35L1327.58 636.945H1341.66Z" fill="white" fill-opacity="0.15"/>
</g>
<path fill-rule="evenodd" clip-rule="evenodd" d="M1181.49 364.489C1170.82 356.127 1156.25 342.313 1156.25 329.253C1156.25 307.433 1176.19 299.286 1192.5 316.136C1208.81 299.286 1228.75 307.433 1228.75 329.249C1228.75 342.313 1214.18 356.127 1203.51 364.489C1198.68 368.272 1196.27 370.167 1192.5 370.167C1188.73 370.167 1186.32 368.275 1181.49 364.489ZM1208.81 319.177C1209.53 319.177 1210.23 319.47 1210.73 319.992C1211.24 320.513 1211.53 321.221 1211.53 321.958V326.594H1216.06C1216.78 326.594 1217.48 326.887 1217.98 327.408C1218.49 327.93 1218.78 328.637 1218.78 329.375C1218.78 330.113 1218.49 330.82 1217.98 331.342C1217.48 331.863 1216.78 332.156 1216.06 332.156H1211.53V336.792C1211.53 337.529 1211.24 338.237 1210.73 338.758C1210.23 339.28 1209.53 339.573 1208.81 339.573C1208.09 339.573 1207.4 339.28 1206.89 338.758C1206.38 338.237 1206.09 337.529 1206.09 336.792V332.156H1201.56C1200.84 332.156 1200.15 331.863 1199.64 331.342C1199.13 330.82 1198.84 330.113 1198.84 329.375C1198.84 328.637 1199.13 327.93 1199.64 327.408C1200.15 326.887 1200.84 326.594 1201.56 326.594H1206.09V321.958C1206.09 321.221 1206.38 320.513 1206.89 319.992C1207.4 319.47 1208.09 319.177 1208.81 319.177Z" fill="white" fill-opacity="0.15"/>
<defs>
<clipPath id="clip0_1449_850">
<rect width="52" height="48.7085" fill="white" transform="translate(51 255.232)"/>
</clipPath>
<clipPath id="clip1_1449_850">
<rect width="120" height="131" fill="white" transform="translate(1236.49 417.721) rotate(-15.7317)"/>
</clipPath>
<clipPath id="clip2_1449_850">
<rect width="100" height="97" fill="white" transform="translate(124.367 353.381) rotate(10.6972)"/>
</clipPath>
<clipPath id="clip3_1449_850">
<rect width="83" height="83" fill="white" transform="translate(1258.09 181.285) rotate(-28.9617)"/>
</clipPath>
<clipPath id="clip4_1449_850">
<rect width="83" height="83" fill="white" transform="translate(50 569.221) rotate(-21.3529)"/>
</clipPath>
<clipPath id="clip5_1449_850">
<rect width="106" height="101" fill="white" transform="translate(235.359 130.664) rotate(52.1531)"/>
</clipPath>
<clipPath id="clip6_1449_850">
<rect width="106" height="101" fill="white" transform="translate(1045.64 446) rotate(13.5365)"/>
</clipPath>
<clipPath id="clip7_1449_850">
<rect width="85" height="79.8819" fill="white" transform="translate(1293 590.347)"/>
</clipPath>
</defs>
</svg>
