<svg width="1440" height="829" viewBox="0 0 1440 829" fill="none" xmlns="http://www.w3.org/2000/svg">
<g clip-path="url(#clip0_1096_538)">
<rect width="1440" height="829" fill="white"/>
<rect width="541" height="1024" fill="#43D7C2"/>
<path d="M962.916 379.063C960.964 363.785 967.521 349.23 981.572 339.917C1005.99 323.737 1043.63 329.221 1065.94 351.289C1088.26 373.358 1087.47 404.308 1063.06 420.492C1038.64 436.675 1001.01 431.192 978.69 409.123C976.975 407.427 975.386 405.667 973.913 403.842L946.546 397.854C942.468 396.616 940.627 395.644 940.442 392.383C940.237 388.546 942.759 387.028 947.057 385.55L962.916 379.063ZM989.332 347.59C978.265 354.925 973.433 367.215 976.389 380.4L977.265 384.344L972.546 386.279L962.436 390.41L982.799 394.857L983.977 396.416C985.499 398.444 987.197 400.389 989.067 402.238C1007.46 420.428 1037.26 424.77 1055.29 412.814C1073.33 400.859 1073.96 376.36 1055.56 358.17C1037.17 339.98 1007.37 335.635 989.332 347.59ZM1047.03 401.675L1041.72 414.898C1041.59 415.21 1041.39 415.504 1041.13 415.764C1040.87 416.024 1040.55 416.245 1040.19 416.414C1039.83 416.584 1039.44 416.698 1039.04 416.75C1038.64 416.803 1038.24 416.793 1037.86 416.721C1037.47 416.649 1037.12 416.516 1036.82 416.33C1036.51 416.145 1036.26 415.909 1036.08 415.638C1035.9 415.367 1035.79 415.065 1035.76 414.75C1035.73 414.435 1035.77 414.112 1035.9 413.801L1040.91 401.327L1037.11 401.11L1030.04 405.799C1029.39 406.23 1028.57 406.452 1027.77 406.417C1026.96 406.382 1026.24 406.093 1025.75 405.612C1025.27 405.132 1025.06 404.5 1025.18 403.856C1025.29 403.212 1025.72 402.608 1026.37 402.178L1033.84 397.227C1034.15 396.908 1034.55 396.646 1034.99 396.463L1048.27 387.666C1048.92 387.235 1049.73 387.013 1050.54 387.048C1051.34 387.083 1052.06 387.373 1052.55 387.853C1053.03 388.333 1053.24 388.965 1053.13 389.609C1053.01 390.253 1052.58 390.857 1051.93 391.288L1043.93 396.593L1061.09 397.57C1061.87 397.637 1062.56 397.945 1063.01 398.428C1063.46 398.911 1063.64 399.533 1063.52 400.161C1063.39 400.79 1062.97 401.377 1062.33 401.798C1061.7 402.219 1060.91 402.442 1060.12 402.42L1047.03 401.675ZM1025.56 396.949C1026.05 397.429 1026.25 398.061 1026.14 398.705C1026.02 399.349 1025.59 399.953 1024.94 400.384C1024.29 400.815 1023.48 401.037 1022.67 401.002C1021.87 400.967 1021.15 400.677 1020.66 400.197L1013.16 392.784C1012.68 392.304 1012.47 391.673 1012.59 391.03C1012.71 390.386 1013.14 389.783 1013.79 389.353L1035.37 375.045C1035.69 374.814 1036.06 374.634 1036.46 374.514C1036.86 374.394 1037.27 374.338 1037.68 374.348C1038.09 374.358 1038.49 374.435 1038.85 374.574C1039.21 374.713 1039.52 374.91 1039.77 375.155C1040.01 375.4 1040.19 375.687 1040.29 375.998C1040.39 376.31 1040.4 376.639 1040.33 376.967C1040.26 377.295 1040.11 377.614 1039.89 377.906C1039.67 378.197 1039.37 378.455 1039.03 378.663L1019.89 391.348L1025.56 396.949ZM1008.5 370.724L1013.67 375.842L1020.06 367.518L1008.5 370.724ZM1015.76 382.08L1012.3 386.586C1012.08 386.878 1011.81 387.139 1011.47 387.353C1011.14 387.567 1010.77 387.73 1010.37 387.832C1009.97 387.934 1009.56 387.972 1009.15 387.945C1008.75 387.918 1008.36 387.827 1008.02 387.676C1007.68 387.525 1007.38 387.317 1007.15 387.066C1006.92 386.815 1006.76 386.524 1006.68 386.212C1006.6 385.9 1006.6 385.573 1006.68 385.249C1006.76 384.926 1006.92 384.613 1007.15 384.329L1010.14 380.437L1002.11 372.495L996.604 374.018C996.215 374.126 995.81 374.173 995.412 374.157C995.014 374.141 994.631 374.063 994.285 373.926C993.938 373.789 993.636 373.597 993.393 373.36C993.151 373.124 992.975 372.847 992.874 372.546C992.773 372.245 992.749 371.926 992.805 371.607C992.86 371.288 992.994 370.975 993.197 370.687C993.401 370.398 993.67 370.139 993.991 369.924C994.312 369.71 994.677 369.544 995.065 369.437L1022.67 361.794C1023.55 361.534 1024.48 361.487 1025.35 361.66C1026.22 361.832 1026.97 362.217 1027.52 362.761C1028.03 363.32 1028.31 364.005 1028.3 364.727C1028.3 365.448 1028.01 366.17 1027.49 366.798L1017.02 380.444C1016.88 381.054 1016.47 381.622 1015.85 382.032L1015.76 382.08ZM1018.85 358.748C1017.5 359.643 1015.58 359.566 1014.57 358.565L1010.15 354.191L990.756 367.044C990.106 367.476 989.289 367.698 988.485 367.663C987.681 367.628 986.956 367.338 986.47 366.857C985.984 366.376 985.776 365.744 985.892 365.099C986.008 364.454 986.439 363.85 987.089 363.419L1006.48 350.565L1001.98 346.115C1001.49 345.634 1001.29 345.003 1001.4 344.359C1001.52 343.714 1001.95 343.111 1002.6 342.68C1003.25 342.249 1004.06 342.027 1004.87 342.062C1005.67 342.097 1006.39 342.387 1006.88 342.867L1019.47 355.317C1020.48 356.315 1020.2 357.85 1018.85 358.748Z" fill="#FA7070" fill-opacity="0.2"/>
<path d="M954.784 134.575C938.945 124.13 929.188 107.668 929.188 89.5085C929.194 57.9525 958.275 33.125 993.506 33.125C1028.74 33.125 1057.82 57.9525 1057.82 89.5085C1057.82 121.065 1028.74 145.892 993.506 145.892C990.799 145.892 988.11 145.745 985.433 145.456L962.373 161.945C958.606 164.132 956.511 164.796 953.277 162.388C949.48 159.544 949.627 156.404 950.937 151.923L954.784 134.575ZM941.438 89.5085C941.438 103.811 950.123 117.167 964.596 125.197L968.92 127.605L967.781 132.771L965.325 143.826L982.475 131.55L984.711 131.858C987.614 132.267 990.548 132.475 993.5 132.475C1022.54 132.475 1045.56 112.82 1045.56 89.5085C1045.56 66.1971 1022.54 46.5417 993.506 46.5417C964.468 46.5417 941.438 66.1971 941.438 89.5085ZM1029.68 87.1875L1038.95 101.644C1039.17 101.984 1039.33 102.369 1039.41 102.775C1039.49 103.181 1039.5 103.601 1039.44 104.011C1039.37 104.421 1039.23 104.812 1039.03 105.164C1038.82 105.515 1038.56 105.819 1038.25 106.058C1037.94 106.297 1037.59 106.467 1037.22 106.558C1036.85 106.648 1036.46 106.658 1036.09 106.586C1035.71 106.515 1035.36 106.363 1035.04 106.14C1034.71 105.917 1034.44 105.627 1034.22 105.287L1025.47 91.6485L1022.86 94.419V103.563C1022.86 104.402 1022.55 105.208 1022.01 105.801C1021.47 106.395 1020.73 106.729 1019.97 106.729C1019.2 106.729 1018.46 106.395 1017.92 105.801C1017.38 105.208 1017.08 104.402 1017.08 103.563V93.9092C1016.97 93.4199 1016.97 92.9093 1017.08 92.42V75.2667C1017.08 74.427 1017.38 73.6216 1017.92 73.0278C1018.46 72.434 1019.2 72.1004 1019.97 72.1004C1020.73 72.1004 1021.47 72.434 1022.01 73.0278C1022.55 73.6216 1022.86 74.427 1022.86 75.2667V85.611L1034.67 73.0933C1035.22 72.544 1035.95 72.2528 1036.7 72.2808C1037.45 72.3088 1038.16 72.654 1038.68 73.2436C1039.2 73.8331 1039.49 74.6211 1039.49 75.4415C1039.49 76.2618 1039.2 77.0506 1038.68 77.6415L1029.68 87.1875ZM1011.56 100.101C1012.33 100.101 1013.06 100.435 1013.61 101.028C1014.15 101.622 1014.45 102.428 1014.45 103.267C1014.45 104.107 1014.15 104.912 1013.61 105.506C1013.06 106.1 1012.33 106.434 1011.56 106.434H999.729C998.963 106.432 998.23 106.098 997.689 105.504C997.148 104.91 996.844 104.106 996.844 103.267V75.3674C996.826 74.9398 996.888 74.5126 997.025 74.1117C997.162 73.7108 997.371 73.3444 997.641 73.0349C997.911 72.7253 998.236 72.4789 998.595 72.3105C998.955 72.1421 999.341 72.0553 999.732 72.0553C1000.12 72.0553 1000.51 72.1421 1000.87 72.3105C1001.23 72.4789 1001.55 72.7253 1001.82 73.0349C1002.09 73.3444 1002.3 73.7108 1002.44 74.1117C1002.58 74.5126 1002.64 74.9398 1002.62 75.3674V100.101H1011.56ZM975.689 92.7822H983.859L979.952 81.3244L975.689 92.7822ZM991.142 96.0492L993.255 102.254C993.401 102.647 993.474 103.067 993.468 103.491C993.463 103.915 993.381 104.333 993.225 104.721C993.07 105.109 992.845 105.459 992.564 105.75C992.283 106.041 991.951 106.267 991.589 106.415C991.226 106.564 990.84 106.631 990.454 106.612C990.067 106.594 989.688 106.491 989.339 106.31C988.989 106.128 988.676 105.872 988.419 105.555C988.162 105.239 987.965 104.869 987.841 104.468L986.015 99.1082H973.337L971.303 104.562C971.159 104.947 970.948 105.297 970.681 105.593C970.414 105.888 970.096 106.123 969.746 106.284C969.396 106.445 969.02 106.529 968.641 106.531C968.261 106.533 967.885 106.453 967.533 106.296C967.182 106.139 966.862 105.907 966.592 105.615C966.322 105.322 966.108 104.974 965.961 104.591C965.814 104.207 965.737 103.796 965.735 103.38C965.733 102.964 965.806 102.552 965.95 102.167L976.129 74.8307C976.439 73.9452 976.988 73.1839 977.702 72.6483C978.417 72.1126 979.263 71.8279 980.129 71.8321C980.989 71.871 981.817 72.1963 982.503 72.7645C983.189 73.3327 983.701 74.1167 983.97 75.0118L990.376 93.7952C990.875 94.3768 991.153 95.1442 991.154 95.9418L991.142 96.0492ZM970.801 75.4009C970.801 77.1451 969.514 78.5673 967.916 78.5673H960.933V103.63C960.933 104.47 960.628 105.276 960.086 105.871C959.543 106.465 958.807 106.799 958.039 106.799C957.272 106.799 956.536 106.465 955.993 105.871C955.45 105.276 955.145 104.47 955.145 103.63V78.5673H948.04C947.274 78.5673 946.538 78.2337 945.996 77.6399C945.454 77.0461 945.149 76.2407 945.149 75.4009C945.149 74.5612 945.454 73.7558 945.996 73.162C946.538 72.5682 947.274 72.2346 948.04 72.2346H967.916C969.508 72.2346 970.801 73.65 970.801 75.4009Z" fill="#FA7070" fill-opacity="0.2"/>
<g clip-path="url(#clip1_1096_538)">
<path d="M1374.46 505.279C1356.41 511.12 1337.46 508.452 1323.28 497.106C1298.65 477.385 1297.43 439.166 1319.45 411.659C1341.46 384.151 1379.01 376.957 1403.65 396.673C1428.29 416.389 1429.5 454.608 1407.49 482.116C1405.8 484.23 1404.01 486.237 1402.11 488.146L1400.57 516.454C1399.93 520.762 1399.14 522.812 1395.24 523.833C1390.64 525.02 1388.28 522.944 1385.6 519.121L1374.46 505.279ZM1330.94 487.541C1342.1 496.477 1357.96 498.041 1373.27 491.758L1377.85 489.886L1381.17 494.003L1388.27 502.828L1389.4 481.768L1391.04 480.215C1393.17 478.204 1395.17 476.043 1397.01 473.738C1415.16 451.065 1414.2 420.808 1395.99 406.242C1377.79 391.677 1348.06 397.369 1329.92 420.041C1311.78 442.714 1312.74 472.976 1330.94 487.541ZM1384.26 417.193L1401.34 418.985C1401.74 419.027 1402.14 419.146 1402.51 419.335C1402.88 419.524 1403.21 419.78 1403.49 420.087C1403.77 420.394 1403.99 420.747 1404.13 421.125C1404.28 421.504 1404.35 421.901 1404.35 422.293C1404.34 422.685 1404.25 423.065 1404.09 423.411C1403.93 423.757 1403.7 424.063 1403.41 424.31C1403.12 424.558 1402.78 424.742 1402.4 424.853C1402.03 424.964 1401.63 425 1401.23 424.957L1385.11 423.265L1385.64 427.039L1392.78 432.751C1393.44 433.276 1393.87 434.017 1394 434.811C1394.12 435.606 1393.93 436.388 1393.45 436.987C1392.97 437.586 1392.25 437.951 1391.45 438.004C1390.64 438.056 1389.82 437.791 1389.17 437.266L1381.63 431.234C1381.18 431.013 1380.78 430.694 1380.47 430.304L1367.08 419.587C1366.42 419.062 1365.98 418.321 1365.86 417.527C1365.73 416.732 1365.93 415.95 1366.41 415.351C1366.89 414.752 1367.61 414.387 1368.41 414.334C1369.21 414.282 1370.03 414.547 1370.69 415.072L1378.76 421.535L1376.37 404.494C1376.29 403.716 1376.52 402.965 1377.01 402.398C1377.5 401.831 1378.21 401.493 1378.99 401.454C1379.78 401.416 1380.58 401.681 1381.22 402.193C1381.86 402.704 1382.29 403.424 1382.43 404.198L1384.26 417.193ZM1383.02 439.407C1383.5 438.809 1384.22 438.443 1385.02 438.391C1385.82 438.338 1386.64 438.604 1387.3 439.128C1387.96 439.653 1388.39 440.394 1388.52 441.188C1388.64 441.983 1388.44 442.765 1387.97 443.364L1380.57 452.603C1380.09 453.2 1379.37 453.564 1378.57 453.615C1377.77 453.667 1376.95 453.401 1376.3 452.877L1354.51 435.445C1354.17 435.192 1353.87 434.877 1353.65 434.52C1353.42 434.163 1353.26 433.77 1353.19 433.366C1353.12 432.961 1353.13 432.554 1353.22 432.168C1353.31 431.783 1353.49 431.426 1353.73 431.121C1353.98 430.816 1354.29 430.568 1354.64 430.393C1355 430.217 1355.39 430.118 1355.8 430.101C1356.21 430.083 1356.63 430.148 1357.03 430.292C1357.43 430.435 1357.8 430.654 1358.12 430.936L1377.43 446.389L1383.02 439.407ZM1354.89 462.844L1360 456.465L1348.61 452.357L1354.89 462.844ZM1367.1 452.82L1373.26 455.047C1373.66 455.178 1374.04 455.384 1374.36 455.653C1374.69 455.922 1374.97 456.247 1375.17 456.611C1375.38 456.975 1375.51 457.369 1375.56 457.77C1375.61 458.172 1375.58 458.572 1375.47 458.948C1375.36 459.323 1375.17 459.666 1374.92 459.957C1374.66 460.247 1374.34 460.479 1373.98 460.639C1373.62 460.798 1373.23 460.882 1372.82 460.885C1372.41 460.888 1372 460.811 1371.61 460.658L1366.28 458.734L1358.36 468.633L1361.35 473.628C1361.56 473.981 1361.7 474.365 1361.77 474.758C1361.83 475.151 1361.81 475.546 1361.72 475.92C1361.63 476.294 1361.46 476.64 1361.22 476.938C1360.99 477.235 1360.69 477.479 1360.35 477.655C1360.01 477.832 1359.63 477.937 1359.23 477.964C1358.83 477.992 1358.43 477.942 1358.03 477.818C1357.64 477.693 1357.27 477.496 1356.95 477.237C1356.62 476.979 1356.35 476.665 1356.14 476.312L1341.15 451.284C1340.65 450.489 1340.4 449.585 1340.43 448.692C1340.46 447.8 1340.77 446.961 1341.31 446.287C1341.88 445.641 1342.65 445.197 1343.52 445.016C1344.39 444.836 1345.33 444.926 1346.19 445.276L1364.86 452.009C1365.63 451.984 1366.4 452.246 1367.02 452.743L1367.1 452.82ZM1338.27 455.801C1339.63 456.89 1339.94 458.783 1338.94 460.031L1334.57 465.483L1354.14 481.142C1354.8 481.668 1355.24 482.409 1355.36 483.204C1355.49 484 1355.29 484.783 1354.81 485.382C1354.33 485.982 1353.61 486.348 1352.81 486.4C1352 486.452 1351.18 486.187 1350.53 485.662L1330.96 470.003L1326.52 475.55C1326.04 476.149 1325.32 476.514 1324.52 476.567C1323.72 476.619 1322.9 476.354 1322.24 475.829C1321.58 475.304 1321.15 474.563 1321.02 473.769C1320.9 472.975 1321.1 472.192 1321.57 471.593L1333.99 456.075C1334.99 454.831 1336.9 454.707 1338.27 455.801Z" fill="#FA7070" fill-opacity="0.2"/>
</g>
<g clip-path="url(#clip2_1096_538)">
<path d="M1167.22 557.194V535.639H1158.89C1156.68 535.639 1154.56 536.49 1153 538.006C1151.43 539.522 1150.56 541.578 1150.56 543.722V592.222C1150.56 592.722 1150.71 593.212 1150.98 593.635C1151.26 594.059 1151.65 594.4 1152.11 594.62C1152.56 594.817 1153.05 594.896 1153.54 594.848C1154.03 594.801 1154.49 594.629 1154.89 594.351L1169.19 584.139H1206.53C1207.58 584.169 1208.63 583.989 1209.61 583.61C1210.59 583.232 1211.47 582.662 1212.22 581.937C1212.96 581.212 1213.54 580.347 1213.92 579.396C1214.31 578.444 1214.48 577.427 1214.44 576.406V573.361H1183.89C1179.47 573.361 1175.23 571.658 1172.1 568.626C1168.98 565.594 1167.22 561.482 1167.22 557.194Z" fill="#FA7070" fill-opacity="0.2"/>
<path d="M1228.33 542.375C1225.12 542.383 1221.95 541.668 1219.07 540.287C1216.19 538.906 1213.68 536.896 1211.74 534.416C1209.8 531.935 1208.47 529.052 1207.87 525.992C1207.27 522.931 1207.41 519.777 1208.28 516.778H1183.89C1181.68 516.778 1179.56 517.629 1178 519.145C1176.43 520.661 1175.56 522.717 1175.56 524.861V557.194C1175.56 559.338 1176.43 561.394 1178 562.91C1179.56 564.426 1181.68 565.278 1183.89 565.278H1221.53L1234.81 575.274C1235.2 575.557 1235.67 575.734 1236.15 575.786C1236.64 575.838 1237.13 575.764 1237.58 575.571C1238.06 575.352 1238.46 575.009 1238.74 574.58C1239.02 574.151 1239.17 573.653 1239.17 573.146V539.33C1235.92 541.299 1232.17 542.353 1228.33 542.375Z" fill="#FA7070" fill-opacity="0.2"/>
<path d="M1228.33 535.639C1236 535.639 1242.22 529.607 1242.22 522.167C1242.22 514.726 1236 508.694 1228.33 508.694C1220.66 508.694 1214.44 514.726 1214.44 522.167C1214.44 529.607 1220.66 535.639 1228.33 535.639Z" fill="#FA7070" fill-opacity="0.2"/>
</g>
<g clip-path="url(#clip3_1096_538)">
<path fill-rule="evenodd" clip-rule="evenodd" d="M1404.99 237.231C1405.41 237.282 1405.82 237.412 1406.19 237.615C1406.56 237.818 1406.89 238.089 1407.15 238.413C1407.41 238.737 1407.61 239.108 1407.72 239.504C1407.83 239.9 1407.86 240.313 1407.81 240.721L1407.05 246.583H1415.66L1416.53 239.946C1416.63 239.123 1417.08 238.375 1417.76 237.866C1418.44 237.358 1419.3 237.129 1420.15 237.232C1421.01 237.335 1421.79 237.76 1422.32 238.414C1422.85 239.069 1423.08 239.898 1422.98 240.721L1422.21 246.583H1427.33C1428.2 246.583 1429.02 246.912 1429.63 247.498C1430.24 248.085 1430.58 248.879 1430.58 249.708C1430.58 250.537 1430.24 251.332 1429.63 251.918C1429.02 252.504 1428.2 252.833 1427.33 252.833H1421.4L1420.32 261.167H1426.25C1427.11 261.167 1427.94 261.496 1428.55 262.082C1429.16 262.668 1429.5 263.463 1429.5 264.292C1429.5 265.12 1429.16 265.915 1428.55 266.501C1427.94 267.087 1427.11 267.417 1426.25 267.417H1419.51L1418.64 274.054C1418.54 274.876 1418.09 275.624 1417.41 276.133C1416.73 276.642 1415.87 276.87 1415.01 276.768C1414.16 276.665 1413.38 276.24 1412.85 275.585C1412.32 274.931 1412.09 274.101 1412.19 273.279L1412.95 267.417H1404.34L1403.48 274.054C1403.42 274.461 1403.29 274.854 1403.08 275.211C1402.87 275.568 1402.58 275.881 1402.25 276.133C1401.91 276.385 1401.52 276.571 1401.11 276.68C1400.7 276.789 1400.27 276.818 1399.85 276.768C1399.42 276.717 1399.02 276.586 1398.64 276.383C1398.27 276.18 1397.95 275.909 1397.69 275.585C1397.42 275.261 1397.23 274.891 1397.12 274.495C1397 274.1 1396.97 273.686 1397.03 273.279L1397.79 267.417H1393.75C1392.89 267.417 1392.06 267.087 1391.45 266.501C1390.84 265.915 1390.5 265.12 1390.5 264.292C1390.5 263.463 1390.84 262.668 1391.45 262.082C1392.06 261.496 1392.89 261.167 1393.75 261.167H1398.6L1399.68 252.833H1394.83C1393.97 252.833 1393.14 252.504 1392.54 251.918C1391.93 251.332 1391.58 250.537 1391.58 249.708C1391.58 248.879 1391.93 248.085 1392.54 247.498C1393.14 246.912 1393.97 246.583 1394.83 246.583H1400.49L1401.36 239.946C1401.41 239.538 1401.55 239.145 1401.76 238.788C1401.97 238.431 1402.25 238.117 1402.59 237.865C1402.92 237.612 1403.31 237.426 1403.72 237.317C1404.13 237.208 1404.56 237.18 1404.99 237.231ZM1413.77 261.167L1414.85 252.833H1406.24L1405.15 261.167H1413.77Z" fill="#FA7070" fill-opacity="0.2"/>
</g>
<g clip-path="url(#clip4_1096_538)">
<path fill-rule="evenodd" clip-rule="evenodd" d="M881.408 263.859C881.767 264.089 882.078 264.385 882.324 264.73C882.569 265.074 882.744 265.46 882.839 265.866C882.934 266.272 882.946 266.69 882.875 267.095C882.804 267.501 882.652 267.887 882.427 268.23L879.184 273.173L886.936 276.93L890.609 271.334C891.063 270.64 891.788 270.16 892.622 269.999C893.456 269.837 894.332 270.008 895.057 270.474C895.782 270.939 896.296 271.661 896.487 272.48C896.678 273.3 896.53 274.15 896.075 274.844L892.833 279.787L897.44 282.019C898.216 282.395 898.816 283.052 899.109 283.845C899.402 284.638 899.364 285.503 899.002 286.249C898.641 286.995 897.986 287.561 897.182 287.822C896.378 288.084 895.49 288.02 894.715 287.644L889.376 285.057L884.767 292.084L890.106 294.671C890.882 295.047 891.482 295.703 891.775 296.497C892.068 297.29 892.03 298.154 891.668 298.9C891.307 299.646 890.652 300.212 889.848 300.474C889.044 300.735 888.157 300.671 887.381 300.295L881.311 297.354L877.641 302.951C877.186 303.645 876.462 304.125 875.628 304.286C874.793 304.448 873.917 304.277 873.192 303.811C872.468 303.346 871.953 302.624 871.762 301.805C871.571 300.985 871.719 300.135 872.174 299.441L875.415 294.497L867.662 290.741L863.992 296.338C863.767 296.681 863.473 296.976 863.128 297.205C862.782 297.434 862.392 297.593 861.979 297.673C861.566 297.753 861.138 297.752 860.72 297.671C860.302 297.589 859.903 297.428 859.544 297.198C859.185 296.967 858.874 296.672 858.628 296.327C858.383 295.983 858.208 295.597 858.113 295.191C858.019 294.785 858.006 294.368 858.077 293.962C858.148 293.557 858.3 293.171 858.525 292.828L861.766 287.884L858.133 286.124C857.358 285.748 856.757 285.091 856.464 284.298C856.171 283.505 856.21 282.64 856.571 281.894C856.933 281.148 857.587 280.582 858.391 280.321C859.195 280.059 860.083 280.123 860.859 280.499L865.222 282.614L869.831 275.587L865.467 273.472C864.692 273.096 864.091 272.44 863.798 271.646C863.505 270.853 863.544 269.989 863.905 269.243C864.267 268.497 864.921 267.931 865.725 267.669C866.529 267.408 867.417 267.472 868.193 267.848L873.288 270.316L876.96 264.72C877.185 264.376 877.478 264.081 877.824 263.852C878.169 263.622 878.559 263.463 878.972 263.383C879.386 263.303 879.813 263.303 880.231 263.385C880.649 263.466 881.048 263.628 881.408 263.859ZM878.875 289.229L883.484 282.202L875.729 278.445L871.121 285.472L878.875 289.229Z" fill="#FA7070" fill-opacity="0.2"/>
</g>
<g clip-path="url(#clip5_1096_538)">
<path fill-rule="evenodd" clip-rule="evenodd" d="M1184.99 30.2311C1185.41 30.2819 1185.82 30.4124 1186.19 30.6152C1186.56 30.8181 1186.89 31.0893 1187.15 31.4134C1187.41 31.7375 1187.61 32.108 1187.72 32.5039C1187.83 32.8998 1187.86 33.3133 1187.81 33.7207L1187.05 39.5832H1195.66L1196.53 32.9457C1196.63 32.1233 1197.08 31.3753 1197.76 30.8664C1198.44 30.3575 1199.3 30.1294 1200.15 30.2322C1201.01 30.3349 1201.79 30.7602 1202.32 31.4144C1202.85 32.0687 1203.08 32.8983 1202.98 33.7207L1202.21 39.5832H1207.33C1208.2 39.5832 1209.02 39.9124 1209.63 40.4985C1210.24 41.0845 1210.58 41.8794 1210.58 42.7082C1210.58 43.537 1210.24 44.3319 1209.63 44.9179C1209.02 45.504 1208.2 45.8332 1207.33 45.8332H1201.4L1200.32 54.1665H1206.25C1207.11 54.1665 1207.94 54.4958 1208.55 55.0818C1209.16 55.6679 1209.5 56.4627 1209.5 57.2915C1209.5 58.1203 1209.16 58.9152 1208.55 59.5012C1207.94 60.0873 1207.11 60.4165 1206.25 60.4165H1199.51L1198.64 67.054C1198.54 67.8765 1198.09 68.6244 1197.41 69.1333C1196.73 69.6422 1195.87 69.8704 1195.01 69.7676C1194.16 69.6648 1193.38 69.2395 1192.85 68.5853C1192.32 67.9311 1192.09 67.1015 1192.19 66.279L1192.95 60.4165H1184.34L1183.48 67.054C1183.42 67.4613 1183.29 67.8545 1183.08 68.2113C1182.87 68.568 1182.58 68.8813 1182.25 69.1333C1181.91 69.3853 1181.52 69.571 1181.11 69.6798C1180.7 69.7886 1180.27 69.8185 1179.85 69.7676C1179.42 69.7167 1179.02 69.5861 1178.64 69.3832C1178.27 69.1804 1177.95 68.9092 1177.69 68.5853C1177.42 68.2614 1177.23 67.891 1177.12 67.4953C1177 67.0995 1176.97 66.6863 1177.03 66.279L1177.79 60.4165H1173.75C1172.89 60.4165 1172.06 60.0873 1171.45 59.5012C1170.84 58.9152 1170.5 58.1203 1170.5 57.2915C1170.5 56.4627 1170.84 55.6679 1171.45 55.0818C1172.06 54.4958 1172.89 54.1665 1173.75 54.1665H1178.6L1179.68 45.8332H1174.83C1173.97 45.8332 1173.14 45.504 1172.54 44.9179C1171.93 44.3319 1171.58 43.537 1171.58 42.7082C1171.58 41.8794 1171.93 41.0845 1172.54 40.4985C1173.14 39.9124 1173.97 39.5832 1174.83 39.5832H1180.49L1181.36 32.9457C1181.41 32.5383 1181.55 32.1448 1181.76 31.7878C1181.97 31.4307 1182.25 31.1171 1182.59 30.8648C1182.92 30.6125 1183.31 30.4265 1183.72 30.3174C1184.13 30.2083 1184.56 30.1804 1184.99 30.2311ZM1193.77 54.1665L1194.85 45.8332H1186.24L1185.15 54.1665H1193.77Z" fill="#FA7070" fill-opacity="0.2"/>
</g>
<g clip-path="url(#clip6_1096_538)">
<path d="M714.049 245.622L727.967 229.162L721.603 223.781C719.916 222.354 717.747 221.636 715.575 221.785C713.403 221.933 711.405 222.936 710.021 224.573L678.705 261.609C678.386 261.994 678.182 262.463 678.119 262.963C678.055 263.464 678.133 263.977 678.345 264.444C678.559 264.883 678.884 265.261 679.287 265.54C679.69 265.819 680.157 265.988 680.64 266.032L698.158 267.471L726.666 291.576C727.45 292.279 728.367 292.818 729.358 293.161C730.35 293.503 731.395 293.641 732.43 293.567C733.465 293.493 734.467 293.207 735.374 292.728C736.281 292.249 737.074 291.587 737.704 290.782L739.67 288.457L716.337 268.729C712.962 265.874 710.825 261.837 710.395 257.503C709.966 253.17 711.28 248.896 714.049 245.622Z" fill="#FA7070" fill-opacity="0.2"/>
<path d="M770.282 273.764C767.825 271.696 765.866 269.103 764.559 266.19C763.253 263.276 762.634 260.121 762.751 256.973C762.869 253.824 763.719 250.767 765.237 248.042C766.754 245.317 768.896 242.998 771.495 241.268L752.871 225.521C751.184 224.094 749.015 223.375 746.843 223.524C744.671 223.672 742.673 224.676 741.289 226.313L720.412 251.003C719.028 252.64 718.371 254.777 718.585 256.944C718.8 259.11 719.868 261.129 721.556 262.556L750.298 286.858L753.983 303.065C754.101 303.536 754.342 303.971 754.681 304.326C755.02 304.681 755.445 304.942 755.912 305.085C756.414 305.223 756.941 305.219 757.432 305.072C757.923 304.925 758.358 304.642 758.687 304.255L780.521 278.433C776.767 277.838 773.223 276.221 770.282 273.764Z" fill="#FA7070" fill-opacity="0.2"/>
<path d="M774.632 268.62C780.489 273.573 789.132 272.982 793.936 267.3C798.74 261.618 797.887 252.998 792.029 248.045C786.172 243.092 777.529 243.683 772.725 249.365C767.921 255.046 768.774 263.667 774.632 268.62Z" fill="#FA7070" fill-opacity="0.2"/>
</g>
<g clip-path="url(#clip7_1096_538)">
<path d="M1041.28 500.532L1054.17 510.494L1051.38 514.107L1038.49 504.144L1041.28 500.532ZM1064.05 521.018C1063.81 520.831 1063.62 520.586 1063.49 520.3C1063.36 520.015 1063.3 519.697 1063.32 519.369L1063.81 506.408L1046.86 493.308L1049.66 489.696L1067.38 503.394C1067.62 503.581 1067.81 503.826 1067.94 504.111C1068.06 504.397 1068.12 504.715 1068.11 505.043L1067.69 516.063L1087.11 508.39C1087.44 508.261 1087.78 508.211 1088.12 508.245C1088.45 508.28 1088.76 508.398 1089.03 508.589C1089.29 508.78 1089.5 509.039 1089.63 509.344C1089.77 509.649 1089.83 509.991 1089.8 510.341L1089.13 520.205L1094.77 524.564L1091.97 528.176L1085.53 523.195C1085.28 523.002 1085.08 522.746 1084.96 522.447C1084.83 522.149 1084.78 521.817 1084.8 521.476L1085.34 513.613L1066.01 521.25C1065.69 521.378 1065.35 521.428 1065.02 521.397C1064.69 521.365 1064.38 521.253 1064.12 521.069L1064.05 521.018ZM1072.53 490.067L1079.51 481.037L1081.12 482.282C1082.83 483.6 1085.06 484.104 1087.31 483.684C1089.57 483.263 1091.67 481.953 1093.15 480.039L1097.34 474.621L1092.5 470.885C1090.85 469.613 1088.71 469.104 1086.53 469.464C1087.01 467.121 1086.88 464.757 1086.16 462.62C1085.43 460.482 1084.14 458.649 1082.41 457.311L1077.57 453.575L1073.39 458.993C1071.17 461.868 1070.06 465.41 1070.3 468.843C1070.54 472.275 1072.12 475.317 1074.68 477.301L1076.29 478.546L1069.31 487.577L1058.03 478.859L1055.24 482.472L1077.79 499.906L1080.59 496.294L1072.53 490.067ZM1089.71 474.497L1091.32 475.742L1089.93 477.548C1089.19 478.506 1088.14 479.161 1087.01 479.371C1085.88 479.582 1084.77 479.329 1083.91 478.67L1082.3 477.425L1083.7 475.619C1084.44 474.662 1085.49 474.006 1086.62 473.796C1087.74 473.586 1088.86 473.838 1089.71 474.497ZM1077.47 473.689C1075.76 472.366 1074.71 470.338 1074.55 468.05C1074.39 465.762 1075.13 463.4 1076.61 461.483L1078 459.677L1079.62 460.923C1081.32 462.246 1082.37 464.274 1082.53 466.562C1082.69 468.85 1081.95 471.211 1080.48 473.128L1079.08 474.934L1077.47 473.689Z" fill="#FA7070" fill-opacity="0.2"/>
</g>
<path d="M1325.19 127.625H1345.94V132.812H1325.19V127.625ZM1364.09 130.219C1363.71 130.219 1363.32 130.131 1362.97 129.963C1362.62 129.794 1362.31 129.549 1362.07 129.246L1352.47 117.25H1325.19V112.062H1353.72C1354.11 112.063 1354.49 112.15 1354.84 112.319C1355.19 112.487 1355.5 112.732 1355.74 113.035L1363.9 123.234L1377.5 102.842C1377.73 102.497 1378.04 102.212 1378.4 102.011C1378.76 101.81 1379.17 101.7 1379.58 101.688C1380 101.677 1380.41 101.765 1380.78 101.945C1381.16 102.126 1381.48 102.393 1381.73 102.725L1388.73 112.062H1397.81V117.25H1387.44C1387.03 117.25 1386.64 117.156 1386.28 116.976C1385.92 116.796 1385.6 116.535 1385.36 116.213L1379.78 108.768L1366.25 129.065C1366.03 129.404 1365.72 129.685 1365.37 129.885C1365.01 130.086 1364.61 130.199 1364.21 130.216L1364.09 130.219ZM1348.53 96.5V83.5312H1351.12C1353.88 83.5278 1356.51 82.4336 1358.46 80.4887C1360.4 78.5437 1361.5 75.9068 1361.5 73.1562V65.375H1353.72C1351.06 65.3794 1348.51 66.4078 1346.59 68.2463C1345.25 65.8076 1343.28 63.7736 1340.88 62.3562C1338.49 60.9388 1335.75 60.1899 1332.97 60.1875H1325.19V67.9688C1325.19 72.0947 1326.83 76.0503 1329.75 78.9678C1332.67 81.8853 1336.62 83.5264 1340.75 83.5312H1343.34V96.5H1325.19V101.688H1361.5V96.5H1348.53ZM1353.72 70.5625H1356.31V73.1562C1356.31 74.5316 1355.76 75.8503 1354.79 76.8228C1353.82 77.7954 1352.5 78.3424 1351.12 78.3438H1348.53V75.75C1348.53 74.3746 1349.08 73.0559 1350.05 72.0834C1351.02 71.1109 1352.34 70.5639 1353.72 70.5625ZM1340.75 78.3438C1338 78.3403 1335.36 77.2461 1333.42 75.3012C1331.47 73.3562 1330.38 70.7193 1330.38 67.9688V65.375H1332.97C1335.72 65.3784 1338.36 66.4726 1340.3 68.4176C1342.25 70.3625 1343.34 72.9994 1343.34 75.75V78.3438H1340.75Z" fill="#FA7070" fill-opacity="0.2"/>
<g clip-path="url(#clip8_1096_538)">
<path d="M643.275 444.972L662.601 437.417L664.489 442.248L645.164 449.803L643.275 444.972ZM680.455 433.221C680.093 433.363 679.704 433.421 679.317 433.391C678.929 433.362 678.553 433.246 678.217 433.052L664.911 425.374L639.497 435.309L637.609 430.478L664.181 420.089C664.543 419.948 664.932 419.89 665.32 419.919C665.707 419.948 666.083 420.064 666.42 420.258L677.735 426.785L682.971 402.843C683.06 402.438 683.244 402.06 683.509 401.74C683.774 401.421 684.112 401.17 684.494 401.009C684.876 400.847 685.291 400.78 685.705 400.812C686.118 400.844 686.518 400.974 686.871 401.193L696.793 407.339L705.248 404.034L707.137 408.865L697.474 412.643C697.099 412.79 696.695 412.847 696.294 412.81C695.893 412.774 695.506 412.644 695.164 412.432L687.255 407.532L682.045 431.361C681.957 431.759 681.777 432.132 681.519 432.448C681.261 432.763 680.931 433.014 680.558 433.178L680.455 433.221ZM653.683 407.484L648.961 395.405L651.377 394.461C653.937 393.456 655.995 391.477 657.098 388.957C658.202 386.438 658.26 383.583 657.262 381.02L654.429 373.773L647.182 376.606C644.71 377.578 642.707 379.465 641.591 381.875C639.452 380.093 636.875 378.916 634.127 378.469C631.379 378.021 628.561 378.319 625.967 379.33L618.72 382.164L621.553 389.411C623.06 393.252 626.029 396.338 629.809 397.993C633.588 399.648 637.87 399.736 641.714 398.238L644.13 397.294L648.852 409.373L631.942 415.983L633.831 420.815L667.651 407.593L665.762 402.762L653.683 407.484ZM649.071 381.438L651.486 380.493L652.431 382.909C652.93 384.191 652.901 385.618 652.349 386.878C651.798 388.138 650.769 389.127 649.488 389.629L647.072 390.574L646.128 388.158C645.629 386.877 645.658 385.449 646.209 384.189C646.761 382.929 647.79 381.94 649.071 381.438ZM639.825 393.407C637.262 394.405 634.408 394.346 631.888 393.243C629.369 392.14 627.39 390.082 626.385 387.522L625.44 385.106L627.856 384.162C630.419 383.163 633.273 383.222 635.793 384.326C638.313 385.429 640.292 387.486 641.297 390.047L642.241 392.463L639.825 393.407Z" fill="#FA7070" fill-opacity="0.2"/>
</g>
<path d="M781.521 593.367C781.923 591.491 781.935 589.571 781.559 587.725C781.182 585.879 780.424 584.145 779.331 582.628C778.238 581.112 776.832 579.845 775.2 578.904C773.567 577.963 771.742 577.369 769.835 577.156C765.933 576.723 761.941 577.79 758.684 580.138C755.427 582.486 753.153 585.936 752.331 589.775L749.581 604.475L734.765 602.438C730.863 602.005 726.871 603.072 723.614 605.42C720.357 607.768 718.083 611.217 717.261 615.057C716.86 616.933 716.847 618.853 717.223 620.699C717.6 622.545 718.358 624.279 719.451 625.795C720.544 627.312 721.95 628.579 723.582 629.52C725.215 630.46 727.04 631.055 728.947 631.267L772.784 636.662L781.521 593.367ZM734.815 583.993C738.073 581.644 740.309 578.159 741.03 574.303C741.751 570.447 740.899 566.537 738.661 563.433C736.424 560.329 732.983 558.285 729.097 557.75C725.211 557.216 721.198 558.235 717.94 560.584C714.682 562.932 712.447 566.418 711.726 570.274C711.004 574.129 711.856 578.039 714.094 581.143C716.332 584.248 719.772 586.292 723.658 586.826C727.544 587.36 731.557 586.341 734.815 583.993Z" fill="#FA7070" fill-opacity="0.2" stroke="#FA7070" stroke-opacity="0.2" stroke-linecap="round" stroke-linejoin="round"/>
<g clip-path="url(#clip9_1096_538)">
<path d="M826.156 95.2255C826.557 93.3491 826.569 91.4295 826.191 89.5836C825.814 87.7376 825.055 86.004 823.961 84.4881C822.867 82.9721 821.461 81.7057 819.828 80.7658C818.195 79.826 816.369 79.2323 814.462 79.021C810.559 78.5896 806.569 79.659 803.313 82.0086C800.057 84.3582 797.785 87.8088 796.964 91.6486L794.222 106.35L779.405 104.321C775.502 103.889 771.511 104.959 768.256 107.308C765 109.658 762.727 113.108 761.907 116.948C761.507 118.825 761.495 120.744 761.872 122.59C762.25 124.436 763.009 126.17 764.103 127.686C765.197 129.202 766.603 130.468 768.236 131.408C769.869 132.348 771.694 132.941 773.601 133.153L817.441 138.525L826.156 95.2255ZM779.446 85.875C782.702 83.5248 784.936 80.0382 785.655 76.1821C786.375 72.3261 785.521 68.4165 783.281 65.3135C781.042 62.2104 777.601 60.1681 773.714 59.6358C769.828 59.1035 765.815 60.1247 762.559 62.4749C759.302 64.8252 757.068 68.3118 756.349 72.1678C755.63 76.0239 756.483 79.9334 758.723 83.0365C760.962 86.1395 764.403 88.1819 768.29 88.7142C772.176 89.2465 776.189 88.2252 779.446 85.875Z" fill="#FA7070" fill-opacity="0.2" stroke="#FA7070" stroke-opacity="0.2" stroke-linecap="round" stroke-linejoin="round"/>
</g>
<path d="M857.406 429.381C858.829 428.094 859.961 426.544 860.736 424.826C861.51 423.109 861.909 421.259 861.909 419.389C861.909 417.52 861.51 415.67 860.736 413.952C859.961 412.235 858.829 410.685 857.406 409.398C854.494 406.764 850.632 405.296 846.617 405.296C842.601 405.296 838.74 406.764 835.827 409.398L825 419.714L814.173 409.398C811.261 406.764 807.399 405.296 803.384 405.296C799.369 405.296 795.507 406.764 792.594 409.398C791.172 410.685 790.039 412.235 789.265 413.952C788.491 415.67 788.091 417.52 788.091 419.389C788.091 421.259 788.491 423.109 789.265 424.826C790.039 426.544 791.172 428.094 792.594 429.381L825 459.393L857.406 429.381ZM825 394.464C829.016 394.464 832.868 392.944 835.708 390.238C838.548 387.532 840.143 383.862 840.143 380.036C840.143 376.209 838.548 372.539 835.708 369.833C832.868 367.127 829.016 365.607 825 365.607C820.984 365.607 817.132 367.127 814.293 369.833C811.453 372.539 809.857 376.209 809.857 380.036C809.857 383.862 811.453 387.532 814.293 390.238C817.132 392.944 820.984 394.464 825 394.464Z" fill="#FA7070" fill-opacity="0.2" stroke="#FA7070" stroke-opacity="0.2" stroke-linecap="round" stroke-linejoin="round"/>
<g clip-path="url(#clip10_1096_538)">
<path fill-rule="evenodd" clip-rule="evenodd" d="M1331.99 601.231C1332.41 601.282 1332.82 601.412 1333.19 601.615C1333.56 601.818 1333.89 602.089 1334.15 602.413C1334.41 602.737 1334.61 603.108 1334.72 603.504C1334.83 603.9 1334.86 604.313 1334.81 604.721L1334.05 610.583L1342.66 610.583L1343.53 603.946C1343.63 603.123 1344.08 602.375 1344.76 601.866C1345.44 601.358 1346.3 601.129 1347.15 601.232C1348.01 601.335 1348.79 601.76 1349.32 602.414C1349.85 603.069 1350.08 603.898 1349.98 604.721L1349.21 610.583L1354.33 610.583C1355.2 610.583 1356.02 610.912 1356.63 611.498C1357.24 612.085 1357.58 612.879 1357.58 613.708C1357.58 614.537 1357.24 615.332 1356.63 615.918C1356.02 616.504 1355.2 616.833 1354.33 616.833L1348.4 616.833L1347.32 625.167L1353.25 625.167C1354.11 625.167 1354.94 625.496 1355.55 626.082C1356.16 626.668 1356.5 627.463 1356.5 628.292C1356.5 629.12 1356.16 629.915 1355.55 630.501C1354.94 631.087 1354.11 631.417 1353.25 631.417L1346.51 631.417L1345.64 638.054C1345.54 638.876 1345.09 639.624 1344.41 640.133C1343.73 640.642 1342.87 640.87 1342.01 640.768C1341.16 640.665 1340.38 640.24 1339.85 639.585C1339.32 638.931 1339.09 638.101 1339.19 637.279L1339.95 631.417L1331.34 631.417L1330.48 638.054C1330.42 638.461 1330.29 638.854 1330.08 639.211C1329.87 639.568 1329.58 639.881 1329.25 640.133C1328.91 640.385 1328.52 640.571 1328.11 640.68C1327.7 640.789 1327.27 640.818 1326.85 640.768C1326.42 640.717 1326.02 640.586 1325.64 640.383C1325.27 640.18 1324.95 639.909 1324.69 639.585C1324.42 639.261 1324.23 638.891 1324.12 638.495C1324 638.1 1323.97 637.686 1324.03 637.279L1324.79 631.417L1320.75 631.417C1319.89 631.417 1319.06 631.087 1318.45 630.501C1317.84 629.915 1317.5 629.12 1317.5 628.292C1317.5 627.463 1317.84 626.668 1318.45 626.082C1319.06 625.496 1319.89 625.167 1320.75 625.167L1325.6 625.167L1326.68 616.833L1321.83 616.833C1320.97 616.833 1320.14 616.504 1319.54 615.918C1318.93 615.332 1318.58 614.537 1318.58 613.708C1318.58 612.879 1318.93 612.085 1319.54 611.498C1320.14 610.912 1320.97 610.583 1321.83 610.583L1327.49 610.583L1328.36 603.946C1328.41 603.538 1328.55 603.145 1328.76 602.788C1328.97 602.431 1329.25 602.117 1329.59 601.865C1329.92 601.612 1330.31 601.426 1330.72 601.317C1331.13 601.208 1331.56 601.18 1331.99 601.231ZM1340.77 625.167L1341.85 616.833L1333.24 616.833L1332.15 625.167L1340.77 625.167Z" fill="#FACDCD"/>
<g clip-path="url(#clip11_1096_538)">
<path fill-rule="evenodd" clip-rule="evenodd" d="M1331.99 601.231C1332.41 601.282 1332.82 601.412 1333.19 601.615C1333.56 601.818 1333.89 602.089 1334.15 602.413C1334.41 602.737 1334.61 603.108 1334.72 603.504C1334.83 603.9 1334.86 604.313 1334.81 604.721L1334.05 610.583H1342.66L1343.53 603.946C1343.63 603.123 1344.08 602.375 1344.76 601.866C1345.44 601.358 1346.3 601.129 1347.15 601.232C1348.01 601.335 1348.79 601.76 1349.32 602.414C1349.85 603.069 1350.08 603.898 1349.98 604.721L1349.21 610.583H1354.33C1355.2 610.583 1356.02 610.912 1356.63 611.498C1357.24 612.085 1357.58 612.879 1357.58 613.708C1357.58 614.537 1357.24 615.332 1356.63 615.918C1356.02 616.504 1355.2 616.833 1354.33 616.833H1348.4L1347.32 625.167H1353.25C1354.11 625.167 1354.94 625.496 1355.55 626.082C1356.16 626.668 1356.5 627.463 1356.5 628.292C1356.5 629.12 1356.16 629.915 1355.55 630.501C1354.94 631.087 1354.11 631.417 1353.25 631.417H1346.51L1345.64 638.054C1345.54 638.876 1345.09 639.624 1344.41 640.133C1343.73 640.642 1342.87 640.87 1342.01 640.768C1341.16 640.665 1340.38 640.24 1339.85 639.585C1339.32 638.931 1339.09 638.101 1339.19 637.279L1339.95 631.417H1331.34L1330.48 638.054C1330.42 638.461 1330.29 638.854 1330.08 639.211C1329.87 639.568 1329.58 639.881 1329.25 640.133C1328.91 640.385 1328.52 640.571 1328.11 640.68C1327.7 640.789 1327.27 640.818 1326.85 640.768C1326.42 640.717 1326.02 640.586 1325.64 640.383C1325.27 640.18 1324.95 639.909 1324.69 639.585C1324.42 639.261 1324.23 638.891 1324.12 638.495C1324 638.1 1323.97 637.686 1324.03 637.279L1324.79 631.417H1320.75C1319.89 631.417 1319.06 631.087 1318.45 630.501C1317.84 629.915 1317.5 629.12 1317.5 628.292C1317.5 627.463 1317.84 626.668 1318.45 626.082C1319.06 625.496 1319.89 625.167 1320.75 625.167H1325.6L1326.68 616.833H1321.83C1320.97 616.833 1320.14 616.504 1319.54 615.918C1318.93 615.332 1318.58 614.537 1318.58 613.708C1318.58 612.879 1318.93 612.085 1319.54 611.498C1320.14 610.912 1320.97 610.583 1321.83 610.583H1327.49L1328.36 603.946C1328.41 603.538 1328.55 603.145 1328.76 602.788C1328.97 602.431 1329.25 602.117 1329.59 601.865C1329.92 601.612 1330.31 601.426 1330.72 601.317C1331.13 601.208 1331.56 601.18 1331.99 601.231ZM1340.77 625.167L1341.85 616.833H1333.24L1332.15 625.167H1340.77Z" fill="#FACDCD"/>
</g>
</g>
<g clip-path="url(#clip12_1096_538)">
<path fill-rule="evenodd" clip-rule="evenodd" d="M648.986 44.7135C649.41 44.7545 649.819 44.8602 650.19 45.0244C650.562 45.1887 650.888 45.4082 651.15 45.6706C651.412 45.933 651.605 46.233 651.718 46.5535C651.832 46.874 651.863 47.2087 651.809 47.5385L651.047 52.2846H659.661L660.526 46.9111C660.633 46.2453 661.075 45.6398 661.756 45.2278C662.436 44.8158 663.299 44.6311 664.154 44.7143C665.009 44.7975 665.787 45.1418 666.317 45.6714C666.846 46.2011 667.083 46.8727 666.976 47.5385L666.213 52.2846H671.333C672.195 52.2846 673.022 52.5512 673.631 53.0256C674.241 53.5001 674.583 54.1436 674.583 54.8145C674.583 55.4855 674.241 56.129 673.631 56.6035C673.022 57.0779 672.195 57.3444 671.333 57.3444H665.401L664.318 64.0909H670.25C671.112 64.0909 671.939 64.3574 672.548 64.8319C673.158 65.3063 673.5 65.9498 673.5 66.6208C673.5 67.2917 673.158 67.9352 672.548 68.4097C671.939 68.8841 671.112 69.1507 670.25 69.1507H663.505L662.643 74.5242C662.536 75.19 662.094 75.7955 661.413 76.2075C660.733 76.6195 659.87 76.8042 659.015 76.721C658.159 76.6378 657.382 76.2935 656.852 75.7639C656.323 75.2342 656.086 74.5626 656.193 73.8968L656.953 69.1507H648.338L647.476 74.5242C647.423 74.8539 647.287 75.1722 647.076 75.4611C646.865 75.7499 646.583 76.0035 646.247 76.2075C645.91 76.4115 645.524 76.5619 645.113 76.65C644.701 76.7381 644.272 76.7622 643.848 76.721C643.425 76.6798 643.016 76.5741 642.645 76.4099C642.274 76.2456 641.948 76.0261 641.686 75.7639C641.424 75.5016 641.23 75.2018 641.117 74.8814C641.004 74.561 640.973 74.2265 641.026 73.8968L641.786 69.1507H637.75C636.888 69.1507 636.061 68.8841 635.452 68.4097C634.842 67.9352 634.5 67.2917 634.5 66.6208C634.5 65.9498 634.842 65.3063 635.452 64.8319C636.061 64.3574 636.888 64.0909 637.75 64.0909H642.599L643.682 57.3444H638.833C637.971 57.3444 637.145 57.0779 636.535 56.6035C635.926 56.129 635.583 55.4855 635.583 54.8145C635.583 54.1436 635.926 53.5001 636.535 53.0256C637.145 52.5512 637.971 52.2846 638.833 52.2846H644.495L645.359 46.9111C645.412 46.5813 645.547 46.2627 645.758 45.9737C645.969 45.6846 646.251 45.4307 646.587 45.2265C646.924 45.0222 647.309 44.8716 647.721 44.7833C648.133 44.695 648.563 44.6724 648.986 44.7135ZM657.77 64.0909L658.853 57.3444H650.236L649.153 64.0909H657.77Z" fill="#FA7070" fill-opacity="0.2"/>
</g>
<path fill-rule="evenodd" clip-rule="evenodd" d="M1170.36 423.138C1164.03 413.431 1156.37 398.407 1161.71 388.755C1170.62 372.63 1192.14 373.2 1200.15 391.046C1221.92 383.986 1236.8 396.597 1227.89 412.719C1222.55 422.374 1203.61 427.765 1190.46 430.419C1184.51 431.618 1181.53 432.22 1178.09 430.974C1174.65 429.728 1173.22 427.532 1170.36 423.138ZM1213.8 398.685C1214.46 398.924 1214.97 399.369 1215.22 399.923C1215.48 400.477 1215.45 401.094 1215.15 401.64L1213.25 405.065L1217.39 406.563C1218.05 406.801 1218.56 407.247 1218.81 407.801C1219.07 408.355 1219.04 408.972 1218.74 409.517C1218.44 410.062 1217.89 410.49 1217.21 410.707C1216.53 410.924 1215.78 410.912 1215.12 410.674L1210.98 409.176L1209.09 412.601C1208.79 413.146 1208.24 413.575 1207.56 413.791C1206.88 414.008 1206.13 413.996 1205.47 413.758C1204.82 413.52 1204.3 413.074 1204.05 412.52C1203.8 411.966 1203.83 411.349 1204.13 410.804L1206.02 407.378L1201.88 405.88C1201.23 405.642 1200.71 405.197 1200.46 404.643C1200.21 404.089 1200.24 403.471 1200.54 402.926C1200.84 402.381 1201.39 401.953 1202.07 401.736C1202.75 401.519 1203.5 401.531 1204.16 401.77L1208.29 403.268L1210.18 399.842C1210.49 399.297 1211.04 398.869 1211.71 398.652C1212.39 398.435 1213.14 398.447 1213.8 398.685Z" fill="#FA7070" fill-opacity="0.2"/>
<path fill-rule="evenodd" clip-rule="evenodd" d="M927.356 766.735C921.032 757.029 913.374 742.005 918.707 732.353C927.617 716.228 949.143 716.798 957.153 734.643C978.924 727.583 993.797 740.195 984.888 756.317C979.554 765.972 960.611 771.363 947.461 774.017C941.509 775.216 938.531 775.818 935.09 774.572C931.649 773.325 930.217 771.13 927.356 766.735ZM970.802 742.283C971.46 742.521 971.971 742.967 972.224 743.521C972.476 744.075 972.449 744.692 972.148 745.237L970.255 748.663L974.391 750.161C975.049 750.399 975.561 750.844 975.813 751.398C976.066 751.952 976.038 752.57 975.737 753.115C975.436 753.66 974.886 754.088 974.207 754.305C973.529 754.522 972.778 754.51 972.12 754.271L967.984 752.773L966.091 756.199C965.789 756.744 965.239 757.172 964.561 757.389C963.882 757.606 963.131 757.594 962.473 757.356C961.815 757.117 961.303 756.672 961.051 756.118C960.799 755.564 960.826 754.947 961.127 754.401L963.02 750.976L958.884 749.478C958.226 749.24 957.714 748.794 957.462 748.24C957.209 747.686 957.236 747.069 957.538 746.524C957.839 745.979 958.389 745.551 959.068 745.334C959.746 745.117 960.497 745.129 961.155 745.367L965.291 746.865L967.184 743.44C967.485 742.895 968.036 742.466 968.714 742.25C969.393 742.033 970.143 742.045 970.802 742.283Z" fill="#FA7070" fill-opacity="0.2"/>
<path fill-rule="evenodd" clip-rule="evenodd" d="M1300.49 341.489C1289.82 333.127 1275.25 319.313 1275.25 306.253C1275.25 284.433 1295.19 276.286 1311.5 293.136C1327.81 276.286 1347.75 284.433 1347.75 306.249C1347.75 319.313 1333.18 333.127 1322.51 341.489C1317.68 345.272 1315.27 347.167 1311.5 347.167C1307.73 347.167 1305.32 345.275 1300.49 341.489ZM1327.81 296.177C1328.53 296.177 1329.23 296.47 1329.73 296.992C1330.24 297.513 1330.53 298.221 1330.53 298.958V303.594H1335.06C1335.78 303.594 1336.48 303.887 1336.98 304.408C1337.49 304.93 1337.78 305.637 1337.78 306.375C1337.78 307.113 1337.49 307.82 1336.98 308.342C1336.48 308.863 1335.78 309.156 1335.06 309.156H1330.53V313.792C1330.53 314.529 1330.24 315.237 1329.73 315.758C1329.23 316.28 1328.53 316.573 1327.81 316.573C1327.09 316.573 1326.4 316.28 1325.89 315.758C1325.38 315.237 1325.09 314.529 1325.09 313.792V309.156H1320.56C1319.84 309.156 1319.15 308.863 1318.64 308.342C1318.13 307.82 1317.84 307.113 1317.84 306.375C1317.84 305.637 1318.13 304.93 1318.64 304.408C1319.15 303.887 1319.84 303.594 1320.56 303.594H1325.09V298.958C1325.09 298.221 1325.38 297.513 1325.89 296.992C1326.4 296.47 1327.09 296.177 1327.81 296.177Z" fill="#FA7070" fill-opacity="0.2"/>
<g clip-path="url(#clip13_1096_538)">
<mask id="mask0_1096_538" style="mask-type:luminance" maskUnits="userSpaceOnUse" x="605" y="653" width="110" height="110">
<path d="M654.554 653L714.018 701.919L664.464 762.155L605 713.236L654.554 653Z" fill="white"/>
</mask>
<g mask="url(#mask0_1096_538)">
<path fill-rule="evenodd" clip-rule="evenodd" d="M714.018 701.919L654.554 653L605 713.236L664.464 762.155L714.018 701.919ZM675.201 678.403C674.216 677.592 672.944 677.211 671.666 677.343C670.388 677.476 669.209 678.111 668.388 679.11L664.671 676.052C663.685 675.242 662.414 674.861 661.136 674.993C659.858 675.126 658.679 675.761 657.858 676.76L628.951 711.897C628.129 712.896 627.733 714.176 627.849 715.455C627.966 716.734 628.585 717.909 629.57 718.72L641.959 728.911L644.023 726.401L631.635 716.21C631.306 715.939 631.1 715.548 631.061 715.122C631.023 714.695 631.155 714.269 631.429 713.936L660.335 678.798C660.609 678.465 661.002 678.253 661.428 678.209C661.854 678.165 662.278 678.292 662.606 678.562L666.323 681.62C665.501 682.618 665.105 683.898 665.221 685.177C665.338 686.457 665.957 687.631 666.942 688.442L676.853 696.595C677.839 697.406 679.11 697.787 680.388 697.654C681.666 697.522 682.845 696.886 683.666 695.888L687.383 698.945C687.712 699.215 687.918 699.607 687.957 700.033C687.995 700.46 687.863 700.886 687.589 701.219L671.071 721.298L673.549 723.336L690.067 703.258C690.888 702.259 691.285 700.979 691.169 699.7C691.052 698.421 690.433 697.246 689.448 696.435L685.731 693.378C686.553 692.379 686.949 691.1 686.833 689.82C686.717 688.541 686.098 687.367 685.112 686.556L675.201 678.403ZM670.865 681.148C671.139 680.815 671.532 680.604 671.958 680.559C672.384 680.515 672.808 680.642 673.136 680.912L683.047 689.066C683.376 689.336 683.582 689.727 683.621 690.154C683.659 690.58 683.527 691.007 683.254 691.34L681.189 693.849C680.915 694.182 680.522 694.394 680.096 694.438C679.67 694.483 679.246 694.356 678.918 694.085L669.007 685.932C668.678 685.662 668.472 685.27 668.433 684.844C668.395 684.417 668.527 683.991 668.801 683.658L670.865 681.148ZM663.432 700.284L666.529 696.519L669.007 698.557L665.91 702.322L669.626 705.379L667.561 707.889L663.845 704.832L660.748 708.597L658.27 706.558L661.367 702.794L657.651 699.736L659.716 697.226L663.432 700.284ZM649.531 719.706L653.661 714.687L656.138 716.725L654.396 718.843L657.483 718.62C659.38 718.427 661.289 718.718 663.032 719.466C664.775 720.213 666.295 721.393 667.451 722.896C668.607 724.398 669.361 726.174 669.644 728.059C669.926 729.943 669.728 731.875 669.067 733.673L666.043 732.589C666.517 731.299 666.658 729.913 666.453 728.561C666.247 727.21 665.701 725.937 664.867 724.863C664.033 723.788 662.938 722.948 661.684 722.419C660.43 721.891 659.059 721.693 657.699 721.843L654.93 722.044L656.758 723.547L654.693 726.057L649.737 721.98C649.409 721.71 649.203 721.319 649.164 720.892C649.125 720.466 649.257 720.039 649.531 719.706ZM667.219 737.765L662.263 733.689L660.199 736.198L662.026 737.702L659.256 737.902C657.896 738.052 656.525 737.854 655.271 737.326C654.016 736.798 652.921 735.957 652.086 734.883C651.252 733.808 650.707 732.535 650.501 731.184C650.296 729.832 650.437 728.446 650.912 727.155L647.89 726.072C647.228 727.871 647.03 729.802 647.312 731.687C647.595 733.571 648.349 735.347 649.505 736.85C650.661 738.352 652.182 739.532 653.925 740.28C655.667 741.027 657.576 741.318 659.473 741.125L662.561 740.902L660.818 743.021L663.296 745.059L667.425 740.039C667.699 739.706 667.831 739.28 667.792 738.853C667.754 738.427 667.547 738.035 667.219 737.765Z" fill="#FA7070" fill-opacity="0.2"/>
</g>
</g>
<g clip-path="url(#clip14_1096_538)">
<mask id="mask1_1096_538" style="mask-type:luminance" maskUnits="userSpaceOnUse" x="1134" y="258" width="77" height="78">
<path d="M1134 258H1211V336H1134V258Z" fill="white"/>
</mask>
<g mask="url(#mask1_1096_538)">
<path fill-rule="evenodd" clip-rule="evenodd" d="M1211 258H1134V336H1211V258ZM1166.08 264.5C1164.81 264.5 1163.58 265.014 1162.68 265.928C1161.78 266.842 1161.27 268.082 1161.27 269.375H1156.46C1155.18 269.375 1153.96 269.889 1153.06 270.803C1152.15 271.717 1151.65 272.957 1151.65 274.25V319.75C1151.65 321.043 1152.15 322.283 1153.06 323.197C1153.96 324.111 1155.18 324.625 1156.46 324.625H1172.5V321.375H1156.46C1156.03 321.375 1155.62 321.204 1155.32 320.899C1155.02 320.594 1154.85 320.181 1154.85 319.75V274.25C1154.85 273.819 1155.02 273.406 1155.32 273.101C1155.62 272.796 1156.03 272.625 1156.46 272.625H1161.27C1161.27 273.918 1161.78 275.158 1162.68 276.072C1163.58 276.986 1164.81 277.5 1166.08 277.5H1178.92C1180.19 277.5 1181.42 276.986 1182.32 276.072C1183.22 275.158 1183.73 273.918 1183.73 272.625H1188.54C1188.97 272.625 1189.38 272.796 1189.68 273.101C1189.98 273.406 1190.15 273.819 1190.15 274.25V300.25H1193.35V274.25C1193.35 272.957 1192.85 271.717 1191.94 270.803C1191.04 269.889 1189.82 269.375 1188.54 269.375H1183.73C1183.73 268.082 1183.22 266.842 1182.32 265.928C1181.42 265.014 1180.19 264.5 1178.92 264.5H1166.08ZM1164.48 269.375C1164.48 268.944 1164.65 268.531 1164.95 268.226C1165.25 267.921 1165.66 267.75 1166.08 267.75H1178.92C1179.34 267.75 1179.75 267.921 1180.05 268.226C1180.35 268.531 1180.52 268.944 1180.52 269.375V272.625C1180.52 273.056 1180.35 273.469 1180.05 273.774C1179.75 274.079 1179.34 274.25 1178.92 274.25H1166.08C1165.66 274.25 1165.25 274.079 1164.95 273.774C1164.65 273.469 1164.48 273.056 1164.48 272.625V269.375ZM1170.9 288.875V284H1174.1V288.875H1178.92V292.125H1174.1V297H1170.9V292.125H1166.08V288.875H1170.9ZM1172.5 312.706V306.206H1175.71V308.949L1177.95 306.815C1179.29 305.461 1180.95 304.473 1182.77 303.943C1184.59 303.413 1186.52 303.358 1188.37 303.784C1190.21 304.21 1191.92 305.102 1193.34 306.378C1194.75 307.654 1195.83 309.271 1196.46 311.081L1193.44 312.165C1192.98 310.867 1192.21 309.707 1191.19 308.793C1190.18 307.88 1188.95 307.244 1187.62 306.944C1186.29 306.645 1184.91 306.691 1183.61 307.08C1182.3 307.469 1181.12 308.187 1180.16 309.166L1178.15 311.081H1180.52V314.331H1174.1C1173.68 314.331 1173.27 314.159 1172.97 313.855C1172.67 313.55 1172.5 313.137 1172.5 312.706ZM1197.63 315.415H1191.22V318.665H1193.58L1191.57 320.579C1190.62 321.559 1189.43 322.277 1188.13 322.666C1186.82 323.055 1185.44 323.102 1184.12 322.802C1182.79 322.502 1181.56 321.866 1180.54 320.953C1179.52 320.039 1178.75 318.879 1178.3 317.581L1175.28 318.665C1175.91 320.474 1176.98 322.091 1178.4 323.367C1179.81 324.643 1181.52 325.535 1183.37 325.961C1185.22 326.387 1187.14 326.332 1188.96 325.802C1190.78 325.272 1192.44 324.284 1193.79 322.93L1196.03 320.797V323.54H1199.24V317.04C1199.24 316.609 1199.07 316.195 1198.77 315.89C1198.47 315.586 1198.06 315.415 1197.63 315.415Z" fill="#FA7070" fill-opacity="0.2"/>
</g>
</g>
<g clip-path="url(#clip15_1096_538)">
<mask id="mask2_1096_538" style="mask-type:luminance" maskUnits="userSpaceOnUse" x="1312" y="705" width="110" height="110">
<path d="M1363.44 705L1421.32 755.783L1369.88 814.415L1312 763.632L1363.44 705Z" fill="white"/>
</mask>
<g mask="url(#mask2_1096_538)">
<path fill-rule="evenodd" clip-rule="evenodd" d="M1421.32 755.783L1363.44 705L1312 763.632L1369.88 814.415L1421.32 755.783ZM1383.27 731.046C1382.31 730.204 1381.05 729.783 1379.77 729.875C1378.49 729.967 1377.29 730.564 1376.44 731.536L1372.82 728.362C1371.86 727.52 1370.6 727.099 1369.32 727.191C1368.04 727.283 1366.84 727.881 1365.99 728.853L1335.98 763.054C1335.13 764.026 1334.69 765.293 1334.77 766.575C1334.84 767.858 1335.42 769.051 1336.38 769.893L1348.44 780.473L1350.59 778.03L1338.53 767.45C1338.21 767.169 1338.01 766.772 1337.99 766.344C1337.96 765.917 1338.11 765.494 1338.39 765.17L1368.4 730.969C1368.69 730.645 1369.08 730.445 1369.51 730.415C1369.94 730.384 1370.36 730.525 1370.68 730.805L1374.3 733.979C1373.44 734.951 1373.01 736.217 1373.08 737.5C1373.16 738.782 1373.74 739.976 1374.7 740.817L1384.35 749.281C1385.3 750.123 1386.56 750.544 1387.84 750.452C1389.13 750.36 1390.32 749.763 1391.18 748.791L1394.8 751.965C1395.12 752.245 1395.31 752.643 1395.33 753.071C1395.36 753.498 1395.21 753.92 1394.93 754.244L1377.78 773.788L1380.19 775.904L1397.34 756.36C1398.19 755.388 1398.63 754.122 1398.55 752.839C1398.48 751.557 1397.9 750.364 1396.94 749.522L1393.32 746.348C1394.17 745.376 1394.61 744.109 1394.54 742.827C1394.46 741.545 1393.88 740.351 1392.92 739.509L1383.27 731.046ZM1378.85 733.652C1379.14 733.328 1379.54 733.129 1379.96 733.098C1380.39 733.068 1380.81 733.208 1381.13 733.489L1390.78 741.952C1391.1 742.233 1391.29 742.631 1391.31 743.058C1391.34 743.486 1391.19 743.908 1390.91 744.232L1388.77 746.675C1388.48 746.999 1388.08 747.198 1387.66 747.229C1387.23 747.259 1386.81 747.119 1386.49 746.838L1376.84 738.375C1376.52 738.094 1376.33 737.696 1376.3 737.269C1376.28 736.841 1376.42 736.419 1376.71 736.095L1378.85 733.652ZM1370.81 752.542L1374.03 748.877L1376.44 750.993L1373.23 754.658L1376.84 757.832L1374.7 760.275L1371.08 757.101L1367.87 760.765L1365.46 758.649L1368.67 754.985L1365.05 751.811L1367.2 749.368L1370.81 752.542ZM1356.3 771.513L1360.59 766.627L1363 768.743L1361.19 770.805L1364.29 770.68C1366.19 770.548 1368.09 770.899 1369.8 771.702C1371.52 772.504 1373 773.732 1374.11 775.27C1375.22 776.809 1375.92 778.608 1376.14 780.5C1376.36 782.393 1376.1 784.317 1375.38 786.094L1372.4 784.914C1372.91 783.639 1373.1 782.258 1372.93 780.901C1372.77 779.544 1372.27 778.254 1371.47 777.154C1370.67 776.054 1369.6 775.179 1368.36 774.611C1367.13 774.043 1365.76 773.801 1364.4 773.908L1361.63 774.021L1363.4 775.581L1361.26 778.024L1356.44 773.793C1356.12 773.512 1355.92 773.114 1355.9 772.687C1355.87 772.259 1356.02 771.837 1356.3 771.513ZM1373.41 790.125L1368.58 785.893L1366.44 788.336L1368.22 789.896L1365.45 790.008C1364.08 790.116 1362.72 789.874 1361.48 789.306C1360.24 788.738 1359.17 787.863 1358.38 786.763C1357.58 785.663 1357.07 784.373 1356.91 783.015C1356.75 781.658 1356.93 780.277 1357.45 779.002L1354.46 777.824C1353.74 779.6 1353.48 781.525 1353.7 783.417C1353.93 785.309 1354.62 787.109 1355.73 788.647C1356.84 790.185 1358.32 791.413 1360.04 792.215C1361.76 793.018 1363.66 793.369 1365.56 793.237L1368.65 793.112L1366.84 795.174L1369.26 797.29L1373.54 792.404C1373.83 792.08 1373.97 791.658 1373.95 791.23C1373.92 790.803 1373.73 790.405 1373.41 790.125Z" fill="#FA7070" fill-opacity="0.2"/>
</g>
</g>
<g clip-path="url(#clip16_1096_538)">
<path d="M985.127 559.452L953.969 594.638C950.916 598.086 951.237 603.375 954.686 606.429L989.871 637.586C993.321 640.641 998.61 640.319 1001.66 636.871L1032.82 601.685C1035.87 598.237 1035.55 592.947 1032.1 589.892L996.92 558.736C993.47 555.681 988.18 556.004 985.127 559.452ZM974.681 581.576C976.927 579.041 980.79 578.788 983.307 581.017C985.825 583.247 986.042 587.111 983.796 589.648C981.551 592.183 977.687 592.436 975.17 590.206C972.653 587.977 972.436 584.112 974.681 581.576ZM1016.06 596.033C1015.44 597.323 1013.99 597.916 1012.81 597.354L997.412 589.996L995.889 591.709L1020.46 603.438L1001.91 624.387L987.297 601.412L985.778 603.133L994.944 617.526C995.647 618.63 995.234 620.142 994.029 620.908C992.822 621.677 991.346 621.529 990.476 620.142L981.08 605.366C977.323 599.461 981.214 595.385 981.214 595.385L989.169 586.401C989.169 586.401 992.744 582.046 999.062 585.059L1014.86 592.6C1016.35 593.297 1016.67 594.743 1016.06 596.033Z" fill="#FA7070" fill-opacity="0.2"/>
<path d="M993.9 598.555C992.636 599.977 991.958 601.825 992 603.727C992.043 605.629 992.804 607.444 994.131 608.808C995.458 610.172 997.251 610.982 999.152 611.077C1001.05 611.172 1002.92 610.544 1004.37 609.32L1005.92 610.689L1004.42 612.385L1006.11 613.88L1007.61 612.184L1009.3 613.684L1010.8 611.997L1009.1 610.496L1010.6 608.801L1008.91 607.306L1007.41 609.001L1005.86 607.63C1006.84 606.117 1007.24 604.305 1007 602.522C1006.75 600.739 1005.88 599.102 1004.53 597.909C1003.79 597.254 1002.93 596.75 1001.99 596.428C1001.06 596.106 1000.07 595.97 999.081 596.03C998.094 596.09 997.129 596.344 996.24 596.777C995.351 597.21 994.556 597.815 993.9 598.555ZM1003.37 606.991C1002.44 608.034 1001.14 608.668 999.753 608.752C998.362 608.836 996.994 608.365 995.951 607.441C994.908 606.517 994.274 605.217 994.19 603.826C994.105 602.435 994.577 601.068 995.501 600.025C995.958 599.508 996.513 599.087 997.133 598.785C997.753 598.482 998.427 598.305 999.116 598.264C999.804 598.222 1000.49 598.316 1001.15 598.541C1001.8 598.766 1002.4 599.117 1002.92 599.575C1003.43 600.032 1003.85 600.587 1004.16 601.207C1004.46 601.827 1004.64 602.501 1004.68 603.189C1004.72 603.878 1004.63 604.568 1004.4 605.221C1004.18 605.873 1003.83 606.474 1003.37 606.991Z" fill="#FA7070" fill-opacity="0.2"/>
</g>
<g clip-path="url(#clip17_1096_538)">
<path d="M600.392 160.494L569.061 195.527C565.991 198.959 566.286 204.25 569.72 207.321L604.751 238.651C608.186 241.723 613.476 241.427 616.546 237.994L647.877 202.962C650.947 199.529 650.654 194.237 647.219 191.166L612.188 159.836C608.753 156.764 603.461 157.062 600.392 160.494ZM589.837 182.567C592.095 180.042 595.959 179.809 598.465 182.05C600.972 184.292 601.171 188.158 598.912 190.683C596.654 193.208 592.79 193.441 590.283 191.199C587.777 188.958 587.579 185.092 589.837 182.567ZM631.14 197.227C630.518 198.514 629.065 199.1 627.884 198.532L612.526 191.098L610.995 192.804L635.51 204.654L616.857 225.511L602.355 202.465L600.828 204.178L609.923 218.616C610.62 219.723 610.2 221.233 608.991 221.994C607.78 222.757 606.305 222.601 605.441 221.21L596.119 206.388C592.39 200.464 596.302 196.407 596.302 196.407L604.301 187.463C604.301 187.463 607.897 183.126 614.2 186.17L629.965 193.789C631.444 194.492 631.762 195.94 631.14 197.227Z" fill="#FA7070" fill-opacity="0.2"/>
<path d="M608.958 199.658C607.638 201.028 606.886 202.847 606.852 204.749C606.818 206.652 607.506 208.496 608.777 209.912C610.048 211.327 611.808 212.21 613.702 212.381C615.597 212.552 617.487 211.999 618.991 210.834L620.48 212.264L618.911 213.899L620.538 215.46L622.107 213.826L623.74 215.393L625.301 213.766L623.668 212.199L625.236 210.566L623.609 209.004L622.041 210.638L620.549 209.205C621.584 207.733 622.058 205.939 621.885 204.147C621.711 202.355 620.902 200.685 619.603 199.439C618.89 198.754 618.049 198.217 617.128 197.857C616.207 197.497 615.224 197.323 614.235 197.343C613.247 197.363 612.272 197.578 611.367 197.975C610.461 198.372 609.642 198.945 608.958 199.658ZM618.079 208.467C617.114 209.472 615.79 210.053 614.396 210.081C613.003 210.11 611.656 209.584 610.65 208.619C609.645 207.654 609.064 206.329 609.036 204.936C609.007 203.543 609.533 202.196 610.498 201.19C610.976 200.693 611.547 200.294 612.179 200.017C612.811 199.74 613.491 199.59 614.181 199.576C614.87 199.562 615.556 199.684 616.199 199.935C616.841 200.186 617.428 200.561 617.926 201.039C618.424 201.516 618.823 202.087 619.1 202.719C619.377 203.351 619.527 204.031 619.541 204.721C619.555 205.411 619.434 206.096 619.183 206.739C618.932 207.382 618.557 207.969 618.079 208.467Z" fill="#FA7070" fill-opacity="0.2"/>
</g>
<g clip-path="url(#clip18_1096_538)">
<path d="M1152.66 167.308H1105.66C1101.05 167.308 1097.3 171.055 1097.3 175.662V222.659C1097.3 227.267 1101.05 231.013 1105.66 231.013H1152.66C1157.26 231.013 1161.01 227.267 1161.01 222.659V175.662C1161.01 171.054 1157.26 167.308 1152.66 167.308ZM1129.17 174.155C1132.55 174.155 1135.3 176.88 1135.3 180.242C1135.3 183.605 1132.55 186.33 1129.17 186.33C1125.78 186.33 1123.03 183.605 1123.03 180.242C1123.03 176.88 1125.78 174.155 1129.17 174.155ZM1145.77 214.715C1144.4 215.109 1142.99 214.416 1142.63 213.158L1137.93 196.754L1135.64 196.75L1143.15 222.923H1115.17L1122.68 196.75L1120.38 196.754L1115.69 213.158C1115.33 214.416 1113.92 215.109 1112.55 214.715C1111.17 214.321 1110.3 213.118 1110.76 211.547L1115.6 194.717C1117.53 187.989 1123.16 188.2 1123.16 188.2H1135.16C1135.16 188.2 1140.79 187.989 1142.72 194.717L1147.55 211.547C1148.01 213.118 1147.15 214.32 1145.77 214.715Z" fill="#FA7070" fill-opacity="0.2"/>
<path d="M1129.2 199.8C1127.29 199.796 1125.46 200.513 1124.06 201.806C1122.67 203.099 1121.81 204.872 1121.67 206.769C1121.53 208.667 1122.11 210.547 1123.3 212.033C1124.49 213.518 1126.2 214.499 1128.08 214.777V216.842H1125.81V219.097H1128.08V221.36H1130.33V219.097H1132.6V216.842H1130.33V214.773C1132.11 214.501 1133.74 213.6 1134.91 212.234C1136.08 210.869 1136.73 209.128 1136.73 207.328C1136.73 206.339 1136.53 205.36 1136.15 204.447C1135.77 203.533 1135.22 202.703 1134.52 202.004C1133.82 201.305 1132.99 200.751 1132.08 200.372C1131.16 199.994 1130.18 199.8 1129.2 199.8ZM1129.16 212.48C1127.76 212.48 1126.43 211.926 1125.44 210.941C1124.46 209.956 1123.9 208.619 1123.9 207.226C1123.9 205.832 1124.46 204.496 1125.44 203.511C1126.43 202.525 1127.76 201.972 1129.16 201.972C1129.85 201.972 1130.53 202.108 1131.17 202.372C1131.8 202.636 1132.38 203.023 1132.87 203.511C1133.36 203.999 1133.75 204.578 1134.01 205.215C1134.27 205.853 1134.41 206.536 1134.41 207.226C1134.41 207.916 1134.27 208.599 1134.01 209.236C1133.75 209.874 1133.36 210.453 1132.87 210.941C1132.38 211.429 1131.8 211.816 1131.17 212.08C1130.53 212.344 1129.85 212.48 1129.16 212.48Z" fill="#FA7070" fill-opacity="0.2"/>
</g>
<path d="M1201.5 693.397C1186.5 693.397 1180.55 681.669 1174.25 669.277C1169.7 660.315 1164 649.14 1156.5 649.14C1139.55 649.14 1139 668.309 1139 668.503H1129C1129 667.479 1129.3 643.608 1156.5 643.608C1171.5 643.608 1177.55 655.364 1183.85 667.784C1188.15 676.248 1194 687.865 1201.5 687.865C1218.7 687.865 1219.15 668.696 1219.15 668.503H1229.15C1229.15 669.526 1228.85 693.397 1201.5 693.397Z" fill="#FA7070" fill-opacity="0.2"/>
<path d="M1289.5 196.75C1274.5 196.75 1268.55 182.263 1262.25 166.957C1257.7 155.887 1252 142.083 1244.5 142.083C1227.55 142.083 1227 165.761 1227 166H1217C1217 164.736 1217.3 135.25 1244.5 135.25C1259.5 135.25 1265.55 149.771 1271.85 165.112C1276.15 175.567 1282 189.917 1289.5 189.917C1306.7 189.917 1307.15 166.239 1307.15 166H1317.15C1317.15 167.264 1316.85 196.75 1289.5 196.75Z" fill="#FA7070" fill-opacity="0.2"/>
<g clip-path="url(#clip19_1096_538)">
<path d="M575.222 563.194V541.639H566.889C564.679 541.639 562.559 542.49 560.996 544.006C559.434 545.522 558.556 547.578 558.556 549.722V598.222C558.56 598.722 558.708 599.212 558.982 599.635C559.257 600.059 559.648 600.4 560.111 600.62C560.558 600.817 561.05 600.896 561.538 600.848C562.025 600.801 562.492 600.629 562.889 600.351L577.195 590.139H614.528C615.581 590.169 616.629 589.989 617.607 589.61C618.585 589.232 619.473 588.662 620.215 587.937C620.957 587.212 621.538 586.347 621.922 585.396C622.305 584.444 622.483 583.427 622.445 582.406V579.361H591.889C587.469 579.361 583.229 577.658 580.104 574.626C576.978 571.594 575.222 567.482 575.222 563.194Z" fill="#FA7070" fill-opacity="0.2"/>
<path d="M636.333 548.375C633.122 548.383 629.952 547.668 627.073 546.287C624.194 544.906 621.685 542.896 619.741 540.416C617.798 537.935 616.474 535.052 615.873 531.992C615.272 528.931 615.411 525.777 616.278 522.778H591.889C589.679 522.778 587.559 523.629 585.996 525.145C584.434 526.661 583.556 528.717 583.556 530.861V563.194C583.556 565.338 584.434 567.394 585.996 568.91C587.559 570.426 589.679 571.278 591.889 571.278H629.528L642.806 581.274C643.2 581.557 643.665 581.734 644.153 581.786C644.641 581.838 645.135 581.764 645.583 581.571C646.056 581.352 646.456 581.009 646.736 580.58C647.016 580.151 647.165 579.653 647.167 579.146V545.33C643.916 547.299 640.166 548.353 636.333 548.375Z" fill="#FA7070" fill-opacity="0.2"/>
<path d="M636.333 541.639C644.004 541.639 650.222 535.607 650.222 528.167C650.222 520.726 644.004 514.694 636.333 514.694C628.663 514.694 622.444 520.726 622.444 528.167C622.444 535.607 628.663 541.639 636.333 541.639Z" fill="#FA7070" fill-opacity="0.2"/>
</g>
<g clip-path="url(#clip20_1096_538)">
<path d="M840.408 575.721L825.535 560.119L819.504 565.869C817.904 567.394 816.957 569.473 816.872 571.648C816.787 573.824 817.57 575.918 819.049 577.47L852.513 612.575C852.862 612.934 853.306 613.187 853.797 613.304C854.288 613.421 854.807 613.398 855.294 613.237C855.753 613.072 856.163 612.79 856.484 612.419C856.804 612.048 857.023 611.602 857.119 611.126L860.427 593.864L887.45 568.104C888.233 567.4 888.867 566.546 889.314 565.597C889.761 564.648 890.011 563.624 890.048 562.587C890.085 561.55 889.908 560.523 889.529 559.57C889.15 558.616 888.577 557.757 887.845 557.044L885.744 554.841L863.627 575.923C860.427 578.973 856.184 580.665 851.829 580.628C847.475 580.59 843.367 578.825 840.408 575.721Z" fill="#FA7070" fill-opacity="0.2"/>
<path d="M874.417 522.829C872.097 525.05 869.31 526.72 866.273 527.707C863.236 528.693 860.033 528.971 856.915 528.516C853.797 528.062 850.849 526.888 848.302 525.088C845.756 523.287 843.68 520.909 842.238 518.139L824.585 534.967C822.985 536.492 822.039 538.571 821.953 540.746C821.868 542.922 822.651 545.016 824.131 546.568L846.44 569.971C847.919 571.523 849.973 572.406 852.151 572.424C854.328 572.443 856.45 571.597 858.049 570.072L885.293 544.102L901.801 542.176C902.282 542.109 902.741 541.916 903.13 541.617C903.519 541.318 903.825 540.924 904.017 540.474C904.208 539.99 904.26 539.466 904.167 538.962C904.074 538.458 903.839 537.995 903.489 537.626L880.157 513.15C879.162 516.818 877.175 520.169 874.417 522.829Z" fill="#FA7070" fill-opacity="0.2"/>
<path d="M869.769 517.953C875.321 512.66 875.66 504.004 870.526 498.618C865.393 493.233 856.73 493.157 851.178 498.45C845.625 503.743 845.286 512.399 850.42 517.785C855.554 523.17 864.217 523.246 869.769 517.953Z" fill="#FA7070" fill-opacity="0.2"/>
</g>
<path d="M850.667 751.969C845.208 763.28 829.55 763.498 813 763.739C801.033 763.909 786.102 764.14 783.373 769.796C777.204 782.577 799.058 789.968 799.281 790.038L795.641 797.579C794.464 797.206 767.109 788.293 777.008 767.782C782.467 756.472 798.193 756.188 814.775 755.957C826.078 755.795 841.573 755.611 844.302 749.956C850.562 736.986 828.672 729.671 828.449 729.6L832.088 722.06C833.266 722.432 860.62 731.345 850.667 751.969Z" fill="#FA7070" fill-opacity="0.2"/>
<path fill-rule="evenodd" clip-rule="evenodd" d="M1008.92 250.412C995.655 248.136 976.492 243.287 970.742 233.794C961.136 217.933 975.45 204.905 997.515 211.339C1004.74 193.276 1026.23 192.092 1035.84 207.95C1041.59 217.447 1034.59 232.682 1028.69 242.561C1026.02 247.032 1024.69 249.27 1021.3 250.613C1017.92 251.957 1014.92 251.443 1008.92 250.412ZM1013.5 207.735C1014.15 207.478 1014.9 207.445 1015.59 207.642C1016.27 207.84 1016.84 208.252 1017.17 208.788L1019.21 212.157L1023.28 210.542C1023.92 210.285 1024.67 210.252 1025.36 210.449C1026.05 210.647 1026.62 211.059 1026.94 211.595C1027.27 212.131 1027.32 212.747 1027.09 213.308C1026.86 213.869 1026.37 214.329 1025.72 214.586L1021.66 216.201L1023.7 219.57C1024.02 220.106 1024.08 220.723 1023.85 221.283C1023.62 221.844 1023.13 222.304 1022.48 222.561C1021.83 222.818 1021.08 222.851 1020.4 222.654C1019.71 222.457 1019.14 222.044 1018.81 221.508L1016.77 218.139L1012.71 219.754C1012.06 220.011 1011.31 220.044 1010.62 219.847C1009.93 219.649 1009.36 219.237 1009.04 218.701C1008.71 218.165 1008.66 217.549 1008.89 216.988C1009.12 216.427 1009.61 215.968 1010.26 215.711L1014.32 214.095L1012.28 210.726C1011.96 210.19 1011.9 209.574 1012.13 209.013C1012.36 208.452 1012.85 207.992 1013.5 207.735Z" fill="#FA7070" fill-opacity="0.2"/>
</g>
<defs>
<clipPath id="clip0_1096_538">
<rect width="1440" height="829" fill="white"/>
</clipPath>
<clipPath id="clip1_1096_538">
<rect width="147" height="161" fill="white" transform="translate(1297 367)"/>
</clipPath>
<clipPath id="clip2_1096_538">
<rect width="100" height="97" fill="white" transform="translate(1145 506)"/>
</clipPath>
<clipPath id="clip3_1096_538">
<rect width="52" height="50" fill="white" transform="translate(1384 232)"/>
</clipPath>
<clipPath id="clip4_1096_538">
<rect width="52" height="50" fill="white" transform="translate(864.803 250) rotate(25.8521)"/>
</clipPath>
<clipPath id="clip5_1096_538">
<rect width="52" height="50" fill="white" transform="translate(1164 25)"/>
</clipPath>
<clipPath id="clip6_1096_538">
<rect width="100" height="97" fill="white" transform="translate(730.134 192.181) rotate(40.2161)"/>
</clipPath>
<clipPath id="clip7_1096_538">
<rect width="83" height="83" fill="white" transform="translate(1025 461.006) rotate(-17.5347)"/>
</clipPath>
<clipPath id="clip8_1096_538">
<rect width="83" height="83" fill="white" transform="translate(612 379.221) rotate(-21.3529)"/>
</clipPath>
<clipPath id="clip9_1096_538">
<rect width="106" height="101" fill="white" transform="translate(737 50)"/>
</clipPath>
<clipPath id="clip10_1096_538">
<rect width="52" height="50" fill="white" transform="translate(1311 596)"/>
</clipPath>
<clipPath id="clip11_1096_538">
<rect width="52" height="50" fill="white" transform="translate(1311 596)"/>
</clipPath>
<clipPath id="clip12_1096_538">
<rect width="52" height="40.4785" fill="white" transform="translate(628 40.4785)"/>
</clipPath>
<clipPath id="clip13_1096_538">
<rect width="77" height="78" fill="white" transform="translate(654.554 653) rotate(39.443)"/>
</clipPath>
<clipPath id="clip14_1096_538">
<rect width="77" height="78" fill="white" transform="translate(1134 258)"/>
</clipPath>
<clipPath id="clip15_1096_538">
<rect width="77" height="78" fill="white" transform="translate(1363.44 705) rotate(41.2632)"/>
</clipPath>
<clipPath id="clip16_1096_538">
<rect width="64" height="64" fill="white" transform="translate(948 600.915) rotate(-48.4749)"/>
</clipPath>
<clipPath id="clip17_1096_538">
<rect width="64" height="64" fill="white" transform="translate(563 200.174) rotate(-46.1754)"/>
</clipPath>
<clipPath id="clip18_1096_538">
<rect width="64" height="64" fill="white" transform="translate(1097 167)"/>
</clipPath>
<clipPath id="clip19_1096_538">
<rect width="100" height="97" fill="white" transform="translate(553 512)"/>
</clipPath>
<clipPath id="clip20_1096_538">
<rect width="100" height="97" fill="white" transform="translate(789 553.999) rotate(-43.6289)"/>
</clipPath>
</defs>
</svg>
