<svg width="1440" height="336" viewBox="0 0 1440 336" fill="none" xmlns="http://www.w3.org/2000/svg">
<rect width="1440" height="336" fill="#43D7C2"/>
<path fill-rule="evenodd" clip-rule="evenodd" d="M196.986 131.096C197.41 131.146 197.819 131.273 198.19 131.47C198.562 131.668 198.888 131.932 199.15 132.248C199.412 132.564 199.605 132.925 199.718 133.31C199.832 133.696 199.863 134.099 199.809 134.496L199.047 140.207H207.661L208.526 133.741C208.633 132.939 209.075 132.211 209.756 131.715C210.436 131.219 211.299 130.997 212.154 131.097C213.009 131.197 213.787 131.612 214.317 132.249C214.846 132.886 215.083 133.694 214.976 134.496L214.213 140.207H219.333C220.195 140.207 221.022 140.527 221.631 141.098C222.241 141.669 222.583 142.444 222.583 143.251C222.583 144.058 222.241 144.833 221.631 145.404C221.022 145.974 220.195 146.295 219.333 146.295H213.401L212.318 154.413H218.25C219.112 154.413 219.939 154.734 220.548 155.305C221.158 155.876 221.5 156.65 221.5 157.458C221.5 158.265 221.158 159.039 220.548 159.61C219.939 160.181 219.112 160.502 218.25 160.502H211.505L210.643 166.968C210.536 167.769 210.094 168.498 209.413 168.993C208.733 169.489 207.87 169.711 207.015 169.611C206.159 169.511 205.382 169.097 204.852 168.46C204.323 167.822 204.086 167.014 204.193 166.213L204.953 160.502H196.338L195.476 166.968C195.423 167.365 195.287 167.748 195.076 168.095C194.865 168.443 194.583 168.748 194.247 168.993C193.91 169.239 193.524 169.42 193.113 169.526C192.701 169.632 192.272 169.661 191.848 169.611C191.425 169.562 191.016 169.435 190.645 169.237C190.274 169.039 189.948 168.775 189.686 168.46C189.424 168.144 189.23 167.783 189.117 167.398C189.004 167.012 188.973 166.61 189.026 166.213L189.786 160.502H185.75C184.888 160.502 184.061 160.181 183.452 159.61C182.842 159.039 182.5 158.265 182.5 157.458C182.5 156.65 182.842 155.876 183.452 155.305C184.061 154.734 184.888 154.413 185.75 154.413H190.599L191.682 146.295H186.833C185.971 146.295 185.145 145.974 184.535 145.404C183.926 144.833 183.583 144.058 183.583 143.251C183.583 142.444 183.926 141.669 184.535 141.098C185.145 140.527 185.971 140.207 186.833 140.207H192.495L193.359 133.741C193.412 133.344 193.547 132.96 193.758 132.613C193.969 132.265 194.251 131.959 194.587 131.713C194.924 131.468 195.309 131.286 195.721 131.18C196.133 131.074 196.563 131.047 196.986 131.096ZM205.77 154.413L206.853 146.295H198.236L197.153 154.413H205.77Z" fill="white" fill-opacity="0.15"/>
<g clip-path="url(#clip0_1049_539)">
<path d="M1230.15 222.053C1215.4 217.379 1204.1 206.645 1200.1 192.423C1193.14 167.707 1210.51 141.826 1238.2 134.028C1265.88 126.23 1294.21 139.238 1301.17 163.953C1308.13 188.667 1290.76 214.548 1263.07 222.346C1260.95 222.945 1258.8 223.425 1256.64 223.791L1242.15 241.809C1239.68 244.356 1238.18 245.34 1235.1 244.169C1231.49 242.782 1230.92 240.291 1230.96 236.491L1230.15 222.053ZM1209.72 189.712C1212.88 200.913 1222.65 209.451 1235.79 212.536L1239.72 213.466L1239.97 217.763L1240.48 226.965L1251.24 213.555L1253.07 213.302C1255.44 212.979 1257.79 212.493 1260.11 211.84C1282.93 205.412 1296.68 184.922 1291.54 166.665C1286.4 148.408 1263.97 138.109 1241.16 144.536C1218.34 150.963 1204.58 171.454 1209.72 189.712ZM1278.55 168.363L1289.02 177.632C1289.27 177.851 1289.48 178.117 1289.63 178.417C1289.79 178.717 1289.89 179.044 1289.92 179.379C1289.96 179.715 1289.94 180.052 1289.86 180.372C1289.78 180.693 1289.64 180.989 1289.44 181.245C1289.25 181.501 1289.01 181.712 1288.74 181.865C1288.47 182.018 1288.17 182.111 1287.86 182.137C1287.55 182.164 1287.24 182.125 1286.94 182.021C1286.64 181.917 1286.35 181.751 1286.11 181.533L1276.23 172.788L1274.78 175.537L1276.8 182.698C1276.98 183.355 1276.92 184.053 1276.63 184.639C1276.33 185.224 1275.83 185.648 1275.23 185.817C1274.62 185.987 1273.97 185.889 1273.41 185.543C1272.86 185.198 1272.44 184.635 1272.26 183.977L1270.13 176.417C1269.93 176.058 1269.82 175.658 1269.8 175.251L1266.01 161.817C1265.83 161.159 1265.89 160.461 1266.18 159.876C1266.48 159.291 1266.98 158.867 1267.59 158.697C1268.19 158.527 1268.84 158.626 1269.4 158.971C1269.95 159.316 1270.37 159.879 1270.56 160.537L1272.84 168.638L1279.36 156.221C1279.67 155.668 1280.18 155.278 1280.78 155.134C1281.37 154.991 1282 155.104 1282.54 155.45C1283.08 155.797 1283.48 156.349 1283.67 156.992C1283.85 157.634 1283.79 158.316 1283.52 158.894L1278.55 168.363ZM1267.16 182.486C1267.76 182.317 1268.41 182.415 1268.97 182.76C1269.53 183.105 1269.95 183.669 1270.13 184.326C1270.32 184.984 1270.25 185.682 1269.96 186.267C1269.66 186.852 1269.16 187.276 1268.56 187.446L1259.26 190.065C1258.66 190.233 1258.01 190.134 1257.45 189.789C1256.9 189.443 1256.48 188.881 1256.29 188.224L1250.14 166.373C1250.03 166.042 1249.98 165.694 1250 165.35C1250.02 165.005 1250.11 164.672 1250.25 164.37C1250.39 164.068 1250.6 163.803 1250.84 163.591C1251.09 163.38 1251.37 163.226 1251.68 163.14C1251.98 163.053 1252.31 163.036 1252.63 163.088C1252.95 163.14 1253.26 163.262 1253.54 163.444C1253.82 163.627 1254.06 163.868 1254.26 164.151C1254.45 164.435 1254.6 164.756 1254.68 165.095L1260.13 184.466L1267.16 182.486ZM1237.36 184.695L1243.78 182.886L1238.18 174.777L1237.36 184.695ZM1250.22 183.833L1253.25 188.225C1253.45 188.5 1253.6 188.813 1253.69 189.146C1253.78 189.479 1253.81 189.825 1253.77 190.163C1253.73 190.502 1253.64 190.825 1253.48 191.116C1253.32 191.406 1253.11 191.656 1252.86 191.853C1252.61 192.049 1252.32 192.187 1252.01 192.258C1251.7 192.33 1251.38 192.333 1251.07 192.268C1250.75 192.203 1250.45 192.071 1250.18 191.881C1249.91 191.69 1249.67 191.444 1249.48 191.157L1246.87 187.363L1236.91 190.17L1236.51 194.891C1236.48 195.224 1236.39 195.545 1236.25 195.836C1236.1 196.127 1235.91 196.381 1235.67 196.585C1235.43 196.788 1235.15 196.937 1234.85 197.023C1234.56 197.108 1234.24 197.129 1233.93 197.084C1233.62 197.038 1233.32 196.928 1233.04 196.758C1232.76 196.589 1232.52 196.364 1232.32 196.096C1232.12 195.828 1231.97 195.523 1231.88 195.198C1231.78 194.873 1231.75 194.534 1231.78 194.2L1233.74 170.538C1233.79 169.776 1234.06 169.058 1234.5 168.48C1234.94 167.903 1235.54 167.492 1236.23 167.304C1236.91 167.144 1237.63 167.216 1238.3 167.509C1238.96 167.802 1239.54 168.303 1239.94 168.944L1249.12 182.237C1249.64 182.582 1250.03 183.122 1250.21 183.746L1250.22 183.833ZM1229.68 172.164C1230.07 173.53 1229.37 174.928 1228.11 175.282L1222.63 176.827L1228.16 196.456C1228.34 197.114 1228.28 197.813 1227.99 198.399C1227.69 198.985 1227.19 199.409 1226.58 199.579C1225.98 199.749 1225.33 199.65 1224.77 199.305C1224.21 198.959 1223.79 198.395 1223.61 197.737L1218.08 178.109L1212.5 179.681C1211.89 179.851 1211.24 179.752 1210.69 179.407C1210.13 179.062 1209.71 178.499 1209.53 177.841C1209.34 177.184 1209.4 176.485 1209.7 175.9C1209.99 175.315 1210.5 174.891 1211.1 174.721L1226.72 170.322C1227.97 169.97 1229.3 170.792 1229.68 172.164Z" fill="white" fill-opacity="0.15"/>
</g>
<g clip-path="url(#clip1_1049_539)">
<path d="M358.338 217.43L362.339 196.249L354.151 194.702C351.979 194.292 349.738 194.735 347.921 195.934C346.104 197.134 344.86 198.991 344.462 201.098L335.46 248.755C335.371 249.248 335.425 249.756 335.616 250.223C335.808 250.69 336.129 251.098 336.543 251.4C336.945 251.676 337.414 251.845 337.902 251.889C338.39 251.933 338.88 251.851 339.322 251.651L355.275 244.272L391.959 251.202C392.988 251.427 394.052 251.445 395.083 251.254C396.115 251.064 397.093 250.669 397.956 250.094C398.82 249.52 399.551 248.777 400.105 247.914C400.658 247.05 401.022 246.083 401.174 245.072L401.739 242.081L371.715 236.409C367.371 235.588 363.522 233.128 361.013 229.569C358.505 226.009 357.542 221.643 358.338 217.43Z" fill="white" fill-opacity="0.15"/>
<path d="M421.138 214.211C417.981 213.622 414.999 212.331 412.426 210.44C409.854 208.549 407.761 206.108 406.312 203.31C404.862 200.512 404.097 197.433 404.074 194.314C404.052 191.196 404.773 188.122 406.182 185.336L382.217 180.809C380.046 180.399 377.805 180.842 375.988 182.042C374.171 183.241 372.926 185.098 372.528 187.205L366.527 218.976C366.129 221.083 366.61 223.266 367.864 225.046C369.118 226.826 371.043 228.056 373.215 228.466L410.2 235.453L421.391 247.74C421.726 248.091 422.151 248.351 422.62 248.493C423.09 248.635 423.589 248.653 424.066 248.547C424.571 248.42 425.027 248.156 425.382 247.787C425.737 247.417 425.976 246.956 426.072 246.458L432.348 213.23C428.789 214.561 424.908 214.9 421.138 214.211Z" fill="white" fill-opacity="0.15"/>
<path d="M422.388 207.592C429.926 209.016 437.155 204.243 438.537 196.932C439.918 189.621 434.927 182.54 427.39 181.116C419.852 179.692 412.623 184.465 411.241 191.776C409.86 199.087 414.851 206.168 422.388 207.592Z" fill="white" fill-opacity="0.15"/>
</g>
<g clip-path="url(#clip2_1049_539)">
<path d="M915.206 124.423L932.19 136.344L929.21 140.59L912.226 128.669L915.206 124.423ZM945.561 148.899C945.243 148.675 944.979 148.383 944.789 148.044C944.599 147.705 944.488 147.328 944.463 146.94L943.501 131.608L921.167 115.931L924.148 111.685L947.5 128.077C947.818 128.301 948.081 128.593 948.271 128.932C948.461 129.271 948.573 129.648 948.597 130.036L949.419 143.073L972.261 134.192C972.647 134.042 973.064 133.987 973.477 134.031C973.889 134.075 974.285 134.218 974.631 134.447C974.977 134.675 975.263 134.984 975.465 135.346C975.667 135.708 975.779 136.114 975.792 136.529L976.16 148.195L983.59 153.41L980.61 157.656L972.118 151.695C971.788 151.464 971.517 151.159 971.326 150.805C971.135 150.451 971.028 150.057 971.016 149.654L970.724 140.354L947.99 149.194C947.61 149.342 947.2 149.397 946.794 149.357C946.388 149.316 945.997 149.181 945.653 148.96L945.561 148.899ZM952.195 112.359L959.646 101.744L961.769 103.235C964.022 104.812 966.809 105.431 969.519 104.957C972.228 104.482 974.638 102.953 976.222 100.704L980.692 94.3347L974.323 89.8641C972.147 88.3417 969.467 87.7173 966.842 88.1207C967.144 85.353 966.698 82.555 965.551 80.0181C964.404 77.4812 962.597 75.2983 960.32 73.6968L953.951 69.2263L949.481 75.5951C947.114 78.9749 946.185 83.1554 946.897 87.2195C947.608 91.2836 949.903 94.8995 953.277 97.2739L955.4 98.764L947.949 109.379L933.089 98.9475L930.108 103.193L959.83 124.056L962.81 119.81L952.195 112.359ZM971.343 94.11L973.466 95.6002L971.976 97.7231C971.184 98.8481 969.979 99.6131 968.624 99.8504C967.269 100.088 965.876 99.7778 964.749 98.9887L962.626 97.4985L964.117 95.3756C964.908 94.2506 966.113 93.4856 967.468 93.2483C968.823 93.011 970.216 93.3209 971.343 94.11ZM956.258 93.028C954.008 91.4449 952.479 89.0343 952.004 86.325C951.53 83.6157 952.149 80.8287 953.727 78.5755L955.217 76.4525L957.34 77.9427C959.589 79.5258 961.119 81.9363 961.593 84.6457C962.068 87.355 961.448 90.1419 959.871 92.3952L958.381 94.5181L956.258 93.028Z" fill="white" fill-opacity="0.15"/>
</g>
<g clip-path="url(#clip3_1049_539)">
<path d="M56.2755 155.972L75.6011 148.417L77.49 153.248L58.1643 160.804L56.2755 155.972ZM93.4555 144.222C93.0935 144.363 92.7044 144.421 92.317 144.392C91.9296 144.362 91.5537 144.246 91.217 144.052L77.911 136.374L52.4978 146.309L50.609 141.478L77.1817 131.089C77.5437 130.948 77.9328 130.89 78.3202 130.919C78.7076 130.949 79.0835 131.065 79.4201 131.259L90.7358 137.785L95.9715 113.843C96.0602 113.438 96.2448 113.06 96.5099 112.741C96.7749 112.422 97.1126 112.171 97.4946 112.009C97.8766 111.848 98.2918 111.78 98.7054 111.812C99.119 111.844 99.5188 111.975 99.8714 112.193L109.794 118.34L118.249 115.034L120.138 119.866L110.475 123.643C110.1 123.79 109.696 123.847 109.295 123.811C108.894 123.774 108.507 123.645 108.164 123.433L100.255 118.532L95.0451 142.361C94.9579 142.76 94.7778 143.132 94.5195 143.448C94.2611 143.764 93.9318 144.014 93.5584 144.179L93.4555 144.222ZM66.6838 118.484L61.9618 106.405L64.3775 105.461C66.938 104.456 68.9955 102.477 70.0987 99.9575C71.202 97.4379 71.2609 94.5836 70.2626 92.0206L67.4294 84.7735L60.1823 87.6067C57.7101 88.5779 55.7077 90.465 54.5918 92.8752C52.4529 91.0929 49.8752 89.9168 47.1273 89.4692C44.3794 89.0217 41.5617 89.3192 38.9678 90.3306L31.7207 93.1639L34.5539 100.411C36.0607 104.252 39.0295 107.338 42.809 108.993C46.5885 110.648 50.8702 110.737 54.7147 109.239L57.1304 108.294L61.8524 120.373L44.9425 126.984L46.8313 131.815L80.6512 118.593L78.7624 113.762L66.6838 118.484ZM62.0711 92.4381L64.4868 91.4937L65.4312 93.9094C65.9307 95.1909 65.9014 96.6182 65.3498 97.8781C64.7981 99.138 63.7691 100.128 62.4886 100.63L60.0729 101.574L59.1285 99.1584C58.629 97.8769 58.6583 96.4496 59.21 95.1897C59.7616 93.9298 60.7906 92.9402 62.0711 92.4381ZM52.8258 104.407C50.2628 105.406 47.4085 105.347 44.8889 104.243C42.3693 103.14 40.3901 101.083 39.3854 98.5222L38.4409 96.1065L40.8566 95.162C43.4196 94.1637 46.274 94.2227 48.7936 95.3259C51.3132 96.4292 53.2924 98.4867 54.2971 101.047L55.2415 103.463L52.8258 104.407Z" fill="white" fill-opacity="0.15"/>
</g>
<path d="M166.521 243.367C166.923 241.49 166.935 239.571 166.559 237.725C166.182 235.878 165.424 234.144 164.331 232.628C163.238 231.111 161.832 229.844 160.2 228.904C158.567 227.963 156.742 227.368 154.835 227.156C150.933 226.723 146.941 227.79 143.684 230.138C140.427 232.486 138.153 235.935 137.331 239.775L134.581 254.475L119.765 252.438C115.863 252.004 111.871 253.072 108.614 255.42C105.357 257.768 103.083 261.217 102.261 265.056C101.86 266.933 101.847 268.852 102.223 270.698C102.6 272.545 103.358 274.279 104.451 275.795C105.544 277.312 106.95 278.579 108.582 279.519C110.215 280.46 112.04 281.055 113.947 281.267L157.784 286.662L166.521 243.367ZM119.815 233.992C123.073 231.644 125.309 228.158 126.03 224.303C126.751 220.447 125.899 216.537 123.661 213.433C121.424 210.329 117.983 208.284 114.097 207.75C110.211 207.216 106.198 208.235 102.94 210.584C99.6823 212.932 97.4468 216.418 96.7255 220.273C96.0042 224.129 96.8562 228.039 99.0939 231.143C101.332 234.247 104.772 236.291 108.658 236.826C112.544 237.36 116.557 236.341 119.815 233.992Z" fill="white" fill-opacity="0.15" stroke="white" stroke-opacity="0.15" stroke-linecap="round" stroke-linejoin="round"/>
<g clip-path="url(#clip4_1049_539)">
<path d="M314.247 108.879C315.319 108.361 316.263 107.637 317.024 106.749C317.784 105.862 318.345 104.83 318.671 103.718C318.997 102.605 319.082 101.434 318.921 100.277C318.76 99.1193 318.356 97.9993 317.734 96.9848C316.46 94.9091 314.417 93.3614 312.027 92.6609C309.637 91.9604 307.083 92.1606 304.89 93.2201L296.645 97.4717L292.001 89.4421C290.727 87.3665 288.684 85.8188 286.294 85.1183C283.904 84.4178 281.349 84.6179 279.157 85.6774C278.085 86.1954 277.14 86.9202 276.38 87.8076C275.62 88.6949 275.059 89.7264 274.733 90.8391C274.407 91.9518 274.322 93.1225 274.483 94.28C274.644 95.4375 275.048 96.5576 275.67 97.572L289.723 121.089L314.247 108.879ZM301.05 82.4424C303.441 83.143 305.999 82.9102 308.161 81.7951C310.324 80.6799 311.913 78.7738 312.581 76.4961C313.249 74.2184 312.939 71.7556 311.721 69.6495C310.503 67.5435 308.476 65.9667 306.085 65.266C303.695 64.5653 301.137 64.7982 298.974 65.9133C296.812 67.0284 295.222 68.9345 294.554 71.2123C293.887 73.49 294.196 75.9528 295.414 78.0588C296.633 80.1649 298.66 81.7417 301.05 82.4424Z" fill="white" fill-opacity="0.15" stroke="white" stroke-opacity="0.15" stroke-linecap="round" stroke-linejoin="round"/>
</g>
<g clip-path="url(#clip5_1049_539)">
<path d="M1110.9 261.5C1112.59 260.582 1114.05 259.34 1115.21 257.851C1116.36 256.362 1117.18 254.657 1117.62 252.84C1118.06 251.022 1118.1 249.13 1117.75 247.279C1117.4 245.428 1116.66 243.656 1115.58 242.072C1113.36 238.83 1109.95 236.498 1106.05 235.558C1102.15 234.619 1098.05 235.142 1094.6 237.021L1081.66 244.516L1073.55 231.952C1071.33 228.71 1067.92 226.379 1064.02 225.439C1060.11 224.499 1056.02 225.023 1052.57 226.902C1050.88 227.82 1049.42 229.062 1048.27 230.55C1047.11 232.039 1046.29 233.744 1045.85 235.562C1045.41 237.379 1045.37 239.271 1045.72 241.122C1046.07 242.974 1046.81 244.745 1047.89 246.33L1072.37 283.093L1110.9 261.5ZM1087.57 219.968C1091.47 220.908 1095.57 220.332 1098.97 218.366C1102.36 216.4 1104.77 213.205 1105.67 209.485C1106.56 205.764 1105.87 201.823 1103.74 198.527C1101.62 195.232 1098.23 192.852 1094.32 191.912C1090.42 190.972 1086.32 191.549 1082.92 193.515C1079.53 195.481 1077.12 198.675 1076.22 202.396C1075.33 206.116 1076.02 210.058 1078.15 213.353C1080.28 216.648 1083.66 219.028 1087.57 219.968Z" fill="white" fill-opacity="0.15" stroke="white" stroke-opacity="0.15" stroke-linecap="round" stroke-linejoin="round"/>
</g>
<g clip-path="url(#clip6_1049_539)">
<g clip-path="url(#clip7_1049_539)">
<path fill-rule="evenodd" clip-rule="evenodd" d="M1301.99 28.0962C1302.41 28.1456 1302.82 28.2728 1303.19 28.4704C1303.56 28.668 1303.89 28.9322 1304.15 29.2479C1304.41 29.5636 1304.61 29.9246 1304.72 30.3103C1304.83 30.696 1304.86 31.0987 1304.81 31.4956L1304.05 37.2067H1312.66L1313.53 30.7406C1313.63 29.9394 1314.08 29.2108 1314.76 28.7151C1315.44 28.2193 1316.3 27.9971 1317.15 28.0972C1318.01 28.1973 1318.79 28.6116 1319.32 29.2489C1319.85 29.8863 1320.08 30.6944 1319.98 31.4956L1319.21 37.2067H1324.33C1325.2 37.2067 1326.02 37.5274 1326.63 38.0983C1327.24 38.6692 1327.58 39.4436 1327.58 40.251C1327.58 41.0584 1327.24 41.8327 1326.63 42.4036C1326.02 42.9745 1325.2 43.2952 1324.33 43.2952H1318.4L1317.32 51.4133H1323.25C1324.11 51.4133 1324.94 51.7341 1325.55 52.305C1326.16 52.8759 1326.5 53.6502 1326.5 54.4576C1326.5 55.265 1326.16 56.0393 1325.55 56.6102C1324.94 57.1812 1324.11 57.5019 1323.25 57.5019H1316.51L1315.64 63.9679C1315.54 64.7691 1315.09 65.4978 1314.41 65.9935C1313.73 66.4892 1312.87 66.7115 1312.01 66.6114C1311.16 66.5113 1310.38 66.097 1309.85 65.4597C1309.32 64.8223 1309.09 64.0142 1309.19 63.213L1309.95 57.5019H1301.34L1300.48 63.9679C1300.42 64.3647 1300.29 64.7477 1300.08 65.0953C1299.87 65.4428 1299.58 65.748 1299.25 65.9935C1298.91 66.239 1298.52 66.4199 1298.11 66.5259C1297.7 66.6319 1297.27 66.661 1296.85 66.6114C1296.42 66.5618 1296.02 66.4346 1295.64 66.237C1295.27 66.0394 1294.95 65.7752 1294.69 65.4597C1294.42 65.1441 1294.23 64.7832 1294.12 64.3978C1294 64.0123 1293.97 63.6097 1294.03 63.213L1294.79 57.5019H1290.75C1289.89 57.5019 1289.06 57.1812 1288.45 56.6102C1287.84 56.0393 1287.5 55.265 1287.5 54.4576C1287.5 53.6502 1287.84 52.8759 1288.45 52.305C1289.06 51.7341 1289.89 51.4133 1290.75 51.4133H1295.6L1296.68 43.2952H1291.83C1290.97 43.2952 1290.14 42.9745 1289.54 42.4036C1288.93 41.8327 1288.58 41.0584 1288.58 40.251C1288.58 39.4436 1288.93 38.6692 1289.54 38.0983C1290.14 37.5274 1290.97 37.2067 1291.83 37.2067H1297.49L1298.36 30.7406C1298.41 30.3437 1298.55 29.9604 1298.76 29.6126C1298.97 29.2648 1299.25 28.9592 1299.59 28.7135C1299.92 28.4677 1300.31 28.2865 1300.72 28.1802C1301.13 28.074 1301.56 28.0467 1301.99 28.0962ZM1310.77 51.4133L1311.85 43.2952H1303.24L1302.15 51.4133H1310.77Z" fill="white" fill-opacity="0.15"/>
</g>
</g>
<g clip-path="url(#clip8_1049_539)">
<path fill-rule="evenodd" clip-rule="evenodd" d="M1163.85 118.927C1154.4 117.157 1140.72 113.234 1136.44 105.018C1129.3 91.2903 1139.18 79.6403 1154.96 84.9032C1159.7 68.964 1174.91 67.5651 1182.05 81.2901C1186.33 89.5092 1181.68 102.968 1177.71 111.719C1175.91 115.679 1175.01 117.661 1172.64 118.895C1170.27 120.129 1168.13 119.729 1163.85 118.927ZM1166.21 81.4781C1166.67 81.2421 1167.2 81.2002 1167.69 81.3615C1168.18 81.5228 1168.59 81.8741 1168.83 82.3381L1170.35 85.2544L1173.2 83.7715C1173.66 83.5356 1174.19 83.4936 1174.68 83.6549C1175.17 83.8162 1175.58 84.1675 1175.82 84.6316C1176.06 85.0956 1176.12 85.6344 1175.97 86.1294C1175.82 86.6244 1175.48 87.0351 1175.02 87.271L1172.17 88.7538L1173.69 91.6701C1173.93 92.1341 1173.98 92.6729 1173.83 93.1679C1173.68 93.6629 1173.34 94.0735 1172.89 94.3095C1172.43 94.5455 1171.9 94.5874 1171.41 94.4261C1170.92 94.2648 1170.51 93.9135 1170.27 93.4495L1168.75 90.5332L1165.9 92.0161C1165.45 92.252 1164.92 92.294 1164.42 92.1327C1163.93 91.9714 1163.52 91.6201 1163.28 91.156C1163.04 90.6919 1162.99 90.1532 1163.14 89.6582C1163.29 89.1632 1163.63 88.7525 1164.08 88.5166L1166.93 87.0338L1165.41 84.1175C1165.17 83.6535 1165.12 83.1147 1165.27 82.6197C1165.42 82.1247 1165.76 81.714 1166.21 81.4781Z" fill="white" fill-opacity="0.15"/>
</g>
<path fill-rule="evenodd" clip-rule="evenodd" d="M714.986 255.096C715.41 255.146 715.819 255.273 716.19 255.47C716.562 255.668 716.888 255.932 717.15 256.248C717.412 256.564 717.605 256.925 717.718 257.31C717.832 257.696 717.863 258.099 717.809 258.496L717.047 264.207H725.661L726.526 257.741C726.633 256.939 727.075 256.211 727.756 255.715C728.436 255.219 729.299 254.997 730.154 255.097C731.009 255.197 731.787 255.612 732.317 256.249C732.846 256.886 733.083 257.694 732.976 258.496L732.213 264.207H737.333C738.195 264.207 739.022 264.527 739.631 265.098C740.241 265.669 740.583 266.444 740.583 267.251C740.583 268.058 740.241 268.833 739.631 269.404C739.022 269.974 738.195 270.295 737.333 270.295H731.401L730.318 278.413H736.25C737.112 278.413 737.939 278.734 738.548 279.305C739.158 279.876 739.5 280.65 739.5 281.458C739.5 282.265 739.158 283.039 738.548 283.61C737.939 284.181 737.112 284.502 736.25 284.502H729.505L728.643 290.968C728.536 291.769 728.094 292.498 727.413 292.993C726.733 293.489 725.87 293.711 725.015 293.611C724.159 293.511 723.382 293.097 722.852 292.46C722.323 291.822 722.086 291.014 722.193 290.213L722.953 284.502H714.338L713.476 290.968C713.423 291.365 713.287 291.748 713.076 292.095C712.865 292.443 712.583 292.748 712.247 292.993C711.91 293.239 711.524 293.42 711.113 293.526C710.701 293.632 710.272 293.661 709.848 293.611C709.425 293.562 709.016 293.435 708.645 293.237C708.274 293.039 707.948 292.775 707.686 292.46C707.424 292.144 707.23 291.783 707.117 291.398C707.004 291.012 706.973 290.61 707.026 290.213L707.786 284.502H703.75C702.888 284.502 702.061 284.181 701.452 283.61C700.842 283.039 700.5 282.265 700.5 281.458C700.5 280.65 700.842 279.876 701.452 279.305C702.061 278.734 702.888 278.413 703.75 278.413H708.599L709.682 270.295H704.833C703.971 270.295 703.145 269.974 702.535 269.404C701.926 268.833 701.583 268.058 701.583 267.251C701.583 266.444 701.926 265.669 702.535 265.098C703.145 264.527 703.971 264.207 704.833 264.207H710.495L711.359 257.741C711.412 257.344 711.547 256.96 711.758 256.613C711.969 256.265 712.251 255.959 712.587 255.713C712.924 255.468 713.309 255.286 713.721 255.18C714.133 255.074 714.563 255.047 714.986 255.096ZM723.77 278.413L724.853 270.295H716.236L715.153 278.413H723.77Z" fill="white" fill-opacity="0.15"/>
<path d="M864.1 225.472L866.487 212.836L861.602 211.913C860.306 211.668 858.969 211.933 857.885 212.648C856.801 213.364 856.059 214.472 855.821 215.729L850.45 244.161C850.397 244.455 850.43 244.758 850.544 245.037C850.658 245.315 850.85 245.558 851.097 245.739C851.337 245.904 851.616 246.004 851.908 246.031C852.199 246.057 852.491 246.008 852.755 245.888L862.272 241.486L884.158 245.62C884.772 245.755 885.406 245.765 886.021 245.652C886.637 245.538 887.22 245.302 887.735 244.96C888.251 244.617 888.687 244.174 889.017 243.659C889.347 243.143 889.565 242.566 889.655 241.964L889.992 240.179L872.08 236.795C869.489 236.306 867.192 234.838 865.695 232.714C864.199 230.591 863.625 227.986 864.1 225.472Z" fill="white" fill-opacity="0.15"/>
<path fill-rule="evenodd" clip-rule="evenodd" d="M624.716 60.9158C625.071 60.6793 625.465 60.5114 625.876 60.4219C626.287 60.3323 626.707 60.3228 627.111 60.3938C627.515 60.4649 627.896 60.6151 628.232 60.8359C628.567 61.0567 628.852 61.3438 629.068 61.6808L632.182 66.5285L638.75 60.9541L635.225 55.4648C634.788 54.7848 634.654 53.9431 634.852 53.1249C635.05 52.3066 635.564 51.5789 636.281 51.1017C636.998 50.6246 637.859 50.4371 638.675 50.5806C639.491 50.724 640.194 51.1866 640.631 51.8666L643.745 56.7144L647.649 53.4014C648.306 52.8436 649.144 52.5533 649.978 52.5941C650.812 52.635 651.574 53.0038 652.097 53.6194C652.619 54.235 652.859 55.0469 652.764 55.8766C652.669 56.7062 652.246 57.4857 651.589 58.0434L647.066 61.8822L651.493 68.7725L656.016 64.9338C656.673 64.3761 657.511 64.0857 658.345 64.1266C659.179 64.1674 659.941 64.5362 660.464 65.1518C660.986 65.7674 661.226 66.5793 661.131 67.409C661.036 68.2386 660.613 69.0181 659.956 69.5758L654.813 73.9403L658.34 79.4282C658.777 80.1082 658.911 80.9499 658.713 81.7681C658.515 82.5864 658.001 83.3141 657.284 83.7912C656.567 84.2684 655.706 84.4559 654.89 84.3124C654.074 84.169 653.371 83.7064 652.934 83.0263L649.818 78.18L643.25 83.7544L646.777 89.2423C646.993 89.579 647.137 89.9589 647.201 90.3604C647.265 90.7619 647.248 91.1771 647.15 91.5822C647.052 91.9874 646.875 92.3746 646.63 92.7217C646.385 93.0688 646.076 93.3691 645.721 93.6054C645.366 93.8416 644.972 94.0093 644.561 94.0987C644.15 94.1881 643.731 94.1976 643.327 94.1265C642.923 94.0555 642.542 93.9054 642.207 93.6847C641.871 93.4641 641.587 93.1772 641.37 92.8405L638.255 87.9941L635.177 90.6061C634.52 91.1639 633.682 91.4542 632.848 91.4133C632.014 91.3725 631.252 91.0037 630.729 90.3881C630.207 89.7725 629.967 88.9606 630.062 88.1309C630.157 87.3013 630.58 86.5218 631.237 85.9641L634.934 82.8264L630.507 75.936L626.81 79.0737C626.153 79.6314 625.315 79.9218 624.481 79.8809C623.647 79.8401 622.885 79.4713 622.362 78.8557C621.84 78.2401 621.6 77.4282 621.695 76.5985C621.79 75.7689 622.213 74.9894 622.87 74.4317L627.187 70.7682L623.662 65.2789C623.445 64.9424 623.3 64.5624 623.236 64.1609C623.171 63.7593 623.189 63.344 623.286 62.9387C623.384 62.5334 623.561 62.1459 623.806 61.7986C624.051 61.4512 624.361 61.1523 624.716 60.9158ZM646.501 73.0094L642.074 66.119L635.504 71.6949L639.931 78.5852L646.501 73.0094Z" fill="white" fill-opacity="0.15"/>
<g clip-path="url(#clip9_1049_539)">
<path d="M901.565 223.552C899.682 223.201 897.903 222.431 896.368 221.302C894.833 220.174 893.585 218.718 892.72 217.049C891.855 215.38 891.399 213.542 891.385 211.682C891.372 209.821 891.802 207.988 892.643 206.325L878.346 203.625C877.05 203.38 875.713 203.644 874.629 204.36C873.545 205.076 872.803 206.184 872.565 207.44L868.985 226.395C868.747 227.652 869.034 228.954 869.783 230.016C870.531 231.078 871.679 231.812 872.975 232.057L895.04 236.225L901.716 243.555C901.916 243.765 902.17 243.92 902.45 244.004C902.73 244.089 903.028 244.1 903.312 244.036C903.613 243.961 903.885 243.804 904.097 243.583C904.309 243.363 904.452 243.088 904.509 242.79L908.253 222.967C906.13 223.761 903.814 223.963 901.565 223.552Z" fill="white" fill-opacity="0.15"/>
<path d="M902.312 219.603C906.808 220.453 911.121 217.605 911.945 213.243C912.769 208.882 909.792 204.657 905.295 203.808C900.799 202.958 896.485 205.806 895.661 210.167C894.837 214.529 897.815 218.754 902.312 219.603Z" fill="white" fill-opacity="0.15"/>
</g>
<path fill-rule="evenodd" clip-rule="evenodd" d="M745.237 167.365C734.569 159.002 720 145.189 720 132.128C720 110.308 739.938 102.161 756.25 119.012C772.562 102.161 792.5 110.308 792.5 132.124C792.5 145.189 777.928 159.002 767.263 167.365C762.434 171.147 760.02 173.042 756.25 173.042C752.48 173.042 750.066 171.151 745.237 167.365ZM772.562 122.053C773.284 122.053 773.975 122.346 774.485 122.867C774.995 123.389 775.281 124.096 775.281 124.834V129.469H779.812C780.534 129.469 781.225 129.762 781.735 130.284C782.245 130.805 782.531 131.513 782.531 132.251C782.531 132.988 782.245 133.696 781.735 134.217C781.225 134.739 780.534 135.032 779.812 135.032H775.281V139.667C775.281 140.405 774.995 141.112 774.485 141.634C773.975 142.155 773.284 142.448 772.562 142.448C771.841 142.448 771.15 142.155 770.64 141.634C770.13 141.112 769.844 140.405 769.844 139.667V135.032H765.312C764.591 135.032 763.9 134.739 763.39 134.217C762.88 133.696 762.594 132.988 762.594 132.251C762.594 131.513 762.88 130.805 763.39 130.284C763.9 129.762 764.591 129.469 765.312 129.469H769.844V124.834C769.844 124.096 770.13 123.389 770.64 122.867C771.15 122.346 771.841 122.053 772.562 122.053Z" fill="white" fill-opacity="0.15"/>
<path d="M572.298 281.674L583.372 264.126L587.759 266.895L576.685 284.443L572.298 281.674ZM595.255 250.156C595.047 250.484 594.768 250.762 594.439 250.968C594.11 251.175 593.738 251.304 593.352 251.348L578.086 253.062L563.524 276.138L559.137 273.369L574.363 249.241C574.571 248.912 574.849 248.634 575.179 248.428C575.508 248.222 575.879 248.092 576.265 248.049L589.246 246.588L579.256 224.21C579.087 223.831 579.011 223.417 579.035 223.003C579.059 222.589 579.182 222.186 579.394 221.83C579.605 221.473 579.899 221.172 580.251 220.952C580.603 220.733 581.002 220.601 581.416 220.567L593.05 219.628L597.895 211.951L602.282 214.719L596.745 223.493C596.53 223.834 596.239 224.12 595.894 224.328C595.55 224.537 595.161 224.662 594.76 224.694L585.486 225.442L595.43 247.715C595.597 248.088 595.673 248.494 595.652 248.902C595.631 249.309 595.515 249.706 595.312 250.06L595.255 250.156ZM558.434 245.322L547.466 238.401L548.85 236.208C550.315 233.88 550.797 231.066 550.19 228.383C549.583 225.7 547.937 223.368 545.613 221.897L539.033 217.744L534.88 224.325C533.466 226.573 532.974 229.281 533.506 231.883C530.726 231.717 527.954 232.3 525.476 233.57C522.999 234.84 520.907 236.751 519.419 239.105L515.267 245.685L521.847 249.838C525.339 252.036 529.56 252.759 533.584 251.848C537.609 250.938 541.108 248.469 543.313 244.982L544.698 242.788L555.665 249.709L545.976 265.064L550.363 267.832L569.742 237.123L565.355 234.355L558.434 245.322ZM539.267 227.093L540.651 224.9L542.845 226.284C544.007 227.019 544.83 228.185 545.134 229.527C545.437 230.868 545.196 232.276 544.463 233.439L543.079 235.633L540.886 234.249C539.723 233.514 538.9 232.347 538.596 231.006C538.293 229.664 538.534 228.257 539.267 227.093ZM538.926 242.213C537.456 244.538 535.123 246.184 532.44 246.791C529.757 247.398 526.944 246.916 524.616 245.451L522.422 244.067L523.806 241.873C525.277 239.549 527.61 237.903 530.292 237.296C532.975 236.689 535.789 237.171 538.117 238.636L540.311 240.02L538.926 242.213Z" fill="white" fill-opacity="0.15"/>
<path d="M499.573 107.659C497.5 99.2939 499.308 90.8039 504.896 84.7614C514.609 74.2631 531.957 74.9801 543.718 85.8569C555.48 96.7336 557.548 113.973 547.838 124.473C538.127 134.973 520.779 134.256 509.018 123.38C508.114 122.544 507.262 121.665 506.457 120.742L493.684 119.11C491.754 118.674 490.85 118.249 490.512 116.449C490.119 114.33 491.134 113.331 492.951 112.244L499.573 107.659ZM508.986 88.5433C504.585 93.3023 503.374 100.428 505.735 107.568L506.437 109.704L504.468 111.072L500.246 113.992L509.749 115.202L510.4 115.995C511.243 117.027 512.159 118.002 513.144 118.913C522.838 127.878 536.573 128.446 543.746 120.689C550.92 112.933 549.284 99.2862 539.59 90.3212C529.896 81.3562 516.159 80.7865 508.986 88.5433ZM539.158 115.014L537.806 122.687C537.774 122.868 537.707 123.043 537.61 123.204C537.513 123.365 537.386 123.507 537.238 123.624C537.09 123.74 536.924 123.827 536.748 123.881C536.572 123.935 536.39 123.955 536.212 123.938C536.035 123.922 535.865 123.87 535.714 123.786C535.562 123.702 535.431 123.586 535.328 123.447C535.225 123.308 535.153 123.147 535.114 122.974C535.076 122.8 535.072 122.618 535.104 122.437L536.381 115.199L534.655 115.314L531.842 118.356C531.583 118.635 531.234 118.809 530.87 118.84C530.506 118.87 530.158 118.754 529.902 118.517C529.646 118.28 529.503 117.942 529.505 117.577C529.507 117.212 529.653 116.85 529.911 116.571L532.882 113.359C532.996 113.163 533.154 112.993 533.34 112.863L538.619 107.156C538.877 106.876 539.227 106.702 539.59 106.672C539.954 106.642 540.302 106.758 540.558 106.995C540.814 107.231 540.957 107.569 540.955 107.934C540.953 108.299 540.807 108.661 540.549 108.941L537.366 112.383L545.16 111.863C545.515 111.852 545.848 111.981 546.089 112.221C546.33 112.461 546.461 112.795 546.453 113.152C546.446 113.509 546.301 113.861 546.049 114.135C545.796 114.408 545.457 114.581 545.102 114.617L539.158 115.014ZM529.136 113.717C529.392 113.954 529.535 114.292 529.533 114.657C529.532 115.022 529.386 115.384 529.127 115.663C528.869 115.943 528.519 116.117 528.156 116.147C527.792 116.177 527.444 116.061 527.188 115.825L523.237 112.171C522.982 111.934 522.84 111.596 522.842 111.232C522.844 110.867 522.991 110.506 523.249 110.227L531.834 100.943C531.96 100.796 532.111 100.672 532.281 100.581C532.45 100.49 532.632 100.433 532.818 100.413C533.003 100.394 533.187 100.412 533.359 100.467C533.531 100.522 533.687 100.612 533.817 100.733C533.948 100.854 534.05 101.002 534.118 101.169C534.186 101.336 534.219 101.518 534.214 101.704C534.209 101.891 534.166 102.077 534.088 102.253C534.011 102.429 533.9 102.59 533.762 102.727L526.151 110.957L529.136 113.717ZM519.413 100.207L522.14 102.729L524.361 97.7103L519.413 100.207ZM523.566 106.065L522.362 108.782C522.29 108.957 522.185 109.12 522.053 109.259C521.921 109.399 521.764 109.512 521.593 109.593C521.422 109.674 521.239 109.721 521.056 109.732C520.872 109.742 520.692 109.715 520.525 109.652C520.359 109.589 520.209 109.493 520.086 109.367C519.962 109.242 519.868 109.091 519.807 108.922C519.746 108.754 519.72 108.572 519.732 108.387C519.743 108.203 519.791 108.019 519.873 107.847L520.913 105.5L516.681 101.586L514.324 102.773C514.157 102.856 513.979 102.908 513.799 102.923C513.619 102.939 513.44 102.919 513.274 102.865C513.107 102.81 512.956 102.722 512.829 102.606C512.701 102.489 512.6 102.347 512.531 102.186C512.463 102.025 512.427 101.849 512.427 101.668C512.427 101.488 512.462 101.306 512.531 101.133C512.6 100.96 512.701 100.799 512.829 100.66C512.956 100.521 513.107 100.407 513.273 100.323L525.084 94.3696C525.46 94.1706 525.877 94.0867 526.28 94.129C526.684 94.1713 527.054 94.3379 527.342 94.6066C527.617 94.885 527.793 95.2489 527.847 95.6498C527.902 96.0507 527.831 96.4696 527.645 96.8503L524.004 105.078C523.991 105.426 523.848 105.767 523.603 106.033L523.566 106.065ZM523.129 92.9142C522.593 93.4946 521.726 93.5707 521.192 93.0772L518.861 90.9215L511.149 99.2609C510.89 99.5406 510.54 99.7147 510.176 99.745C509.812 99.7752 509.464 99.6591 509.207 99.4221C508.951 99.1851 508.808 98.8468 508.81 98.4814C508.812 98.1161 508.958 97.7537 509.217 97.4739L516.929 89.1346L514.557 86.9411C514.301 86.7043 514.158 86.3663 514.16 86.0014C514.161 85.6364 514.308 85.2744 514.566 84.9949C514.824 84.7155 515.174 84.5416 515.538 84.5114C515.901 84.4812 516.25 84.5972 516.505 84.8339L523.141 90.97C523.672 91.4617 523.668 92.3316 523.129 92.9142Z" fill="white" fill-opacity="0.15"/>
<path fill-rule="evenodd" clip-rule="evenodd" d="M1349.3 227.358C1350 227.439 1350.67 227.647 1351.27 227.971C1351.88 228.295 1352.41 228.729 1352.84 229.247C1353.27 229.764 1353.59 230.356 1353.77 230.989C1353.96 231.621 1354.01 232.282 1353.92 232.933L1352.67 242.299H1366.75L1368.17 231.695C1368.34 230.381 1369.07 229.186 1370.18 228.373C1371.29 227.56 1372.7 227.195 1374.1 227.359C1375.5 227.524 1376.77 228.203 1377.63 229.248C1378.5 230.293 1378.89 231.619 1378.71 232.933L1377.46 242.299H1385.83C1387.24 242.299 1388.59 242.825 1389.59 243.761C1390.59 244.697 1391.15 245.967 1391.15 247.292C1391.15 248.616 1390.59 249.886 1389.59 250.822C1388.59 251.758 1387.24 252.284 1385.83 252.284H1376.14L1374.37 265.598H1384.06C1385.47 265.598 1386.82 266.124 1387.82 267.06C1388.82 267.996 1389.37 269.266 1389.37 270.59C1389.37 271.915 1388.82 273.184 1387.82 274.121C1386.82 275.057 1385.47 275.583 1384.06 275.583H1373.04L1371.63 286.187C1371.45 287.501 1370.73 288.696 1369.62 289.509C1368.51 290.322 1367.1 290.687 1365.7 290.523C1364.3 290.358 1363.03 289.679 1362.16 288.634C1361.3 287.589 1360.91 286.263 1361.08 284.949L1362.33 275.583H1348.25L1346.84 286.187C1346.75 286.838 1346.53 287.466 1346.18 288.036C1345.84 288.606 1345.38 289.107 1344.83 289.509C1344.28 289.912 1343.65 290.209 1342.97 290.382C1342.3 290.556 1341.6 290.604 1340.91 290.523C1340.21 290.441 1339.54 290.233 1338.94 289.909C1338.33 289.584 1337.8 289.151 1337.37 288.634C1336.94 288.116 1336.63 287.524 1336.44 286.892C1336.26 286.26 1336.21 285.6 1336.29 284.949L1337.54 275.583H1330.94C1329.53 275.583 1328.18 275.057 1327.18 274.121C1326.18 273.184 1325.62 271.915 1325.62 270.59C1325.62 269.266 1326.18 267.996 1327.18 267.06C1328.18 266.124 1329.53 265.598 1330.94 265.598H1338.86L1340.63 252.284H1332.71C1331.3 252.284 1329.95 251.758 1328.95 250.822C1327.96 249.886 1327.4 248.616 1327.4 247.292C1327.4 245.967 1327.96 244.697 1328.95 243.761C1329.95 242.825 1331.3 242.299 1332.71 242.299H1341.96L1343.38 231.695C1343.46 231.044 1343.68 230.415 1344.03 229.845C1344.37 229.274 1344.83 228.773 1345.38 228.37C1345.93 227.967 1346.56 227.67 1347.24 227.496C1347.91 227.321 1348.61 227.277 1349.3 227.358ZM1363.66 265.598L1365.43 252.284H1351.35L1349.58 265.598H1363.66Z" fill="white" fill-opacity="0.15"/>
<defs>
<clipPath id="clip0_1049_539">
<rect width="120" height="131" fill="white" transform="translate(1176 134.536) rotate(-15.7317)"/>
</clipPath>
<clipPath id="clip1_1049_539">
<rect width="100" height="97" fill="white" transform="translate(346.005 163) rotate(10.6972)"/>
</clipPath>
<clipPath id="clip2_1049_539">
<rect width="83" height="83" fill="white" transform="translate(952.686 62) rotate(35.0665)"/>
</clipPath>
<clipPath id="clip3_1049_539">
<rect width="83" height="83" fill="white" transform="translate(25 90.2213) rotate(-21.3529)"/>
</clipPath>
<clipPath id="clip4_1049_539">
<rect width="65.7478" height="62.6465" fill="white" transform="translate(302.469 48) rotate(52.1531)"/>
</clipPath>
<clipPath id="clip5_1049_539">
<rect width="106" height="101" fill="white" transform="translate(1043.64 176) rotate(13.5365)"/>
</clipPath>
<clipPath id="clip6_1049_539">
<rect width="85" height="79.8819" fill="white" transform="translate(1291 22.6831)"/>
</clipPath>
<clipPath id="clip7_1049_539">
<rect width="52" height="48.7085" fill="white" transform="translate(1281 23)"/>
</clipPath>
<clipPath id="clip8_1049_539">
<rect width="61.6952" height="63.1135" fill="white" transform="translate(1121 86.4702) rotate(-27.4817)"/>
</clipPath>
<clipPath id="clip9_1049_539">
<rect width="59.6591" height="57.8693" fill="white" transform="translate(856.742 193) rotate(10.6972)"/>
</clipPath>
</defs>
</svg>
