<svg width="131" height="38" viewBox="0 0 131 38" fill="none" xmlns="http://www.w3.org/2000/svg">
<path d="M0.695312 30.5078C0.617188 30.2734 0.578125 29.9922 0.578125 29.6641C0.578125 29.3828 0.632812 29.1172 0.742188 28.8672C1.02344 28.2578 1.48438 27.9531 2.125 27.9531C2.71875 27.9688 3.28906 28.3125 3.83594 28.9844C4.00781 29.2031 4.17188 29.4062 4.32812 29.5938C6.51562 32.2812 8.60938 33.625 10.6094 33.625C12.5781 33.625 14.2656 32.9141 15.6719 31.4922C17.0469 30.0859 17.7344 28.4141 17.7344 26.4766C17.7188 24.8047 17.2812 23.3828 16.4219 22.2109C15.7344 21.2578 14.5156 20.2734 12.7656 19.2578C10.9219 18.1797 9.82031 17.5156 9.46094 17.2656C8.64844 16.7031 7.96094 16.125 7.39844 15.5312C5.97656 14.0312 5.26562 12.1797 5.26562 9.97656C5.26562 9.69531 5.28125 9.39844 5.3125 9.08594C5.53125 6.71094 6.50781 4.71094 8.24219 3.08594C10.0234 1.44531 12.1172 0.625 14.5234 0.625C15.5547 0.625 16.5625 0.789062 17.5469 1.11719C19.5938 1.82031 21.1719 3.03906 22.2812 4.77344C22.4688 5.24219 22.5625 5.58594 22.5625 5.80469C22.5625 6.08594 22.4844 6.36719 22.3281 6.64844C21.9844 7.22656 21.4922 7.51562 20.8516 7.51562C20.2891 7.51562 19.8906 7.36719 19.6562 7.07031C18.0625 5.14844 16.3516 4.17969 14.5234 4.16406C13.0859 4.16406 11.8125 4.6875 10.7031 5.73438C9.46875 6.90625 8.85156 8.33594 8.85156 10.0234C8.85156 11.0703 9.17188 12.0078 9.8125 12.8359C10.3906 13.5859 11.5234 14.4688 13.2109 15.4844C15.0547 16.5781 16.4297 17.4922 17.3359 18.2266C20.2422 20.5703 21.6953 23.3203 21.6953 26.4766C21.6953 27.1797 21.625 27.8828 21.4844 28.5859C20.9688 31.0703 19.6797 33.1406 17.6172 34.7969C15.5234 36.4844 13.1875 37.3281 10.6094 37.3281C8.9375 37.3281 7.32031 36.8906 5.75781 36.0156C3.60156 34.7812 1.91406 32.9453 0.695312 30.5078ZM26.3594 34.4922L30.3438 3.92969C30.5781 2.11719 31.2266 1.20313 32.2891 1.1875C32.5391 1.1875 32.7734 1.21875 32.9922 1.28125C33.5859 1.5 33.8828 2.15625 33.8828 3.25C33.8828 4.59375 33.2344 10.3047 31.9375 20.3828C33.0938 18.3516 34.7422 17.3281 36.8828 17.3125C37.6484 17.3125 38.3594 17.5547 39.0156 18.0391C39.9531 18.7266 40.4219 19.6406 40.4219 20.7812C40.4219 20.9531 40.4219 21.3906 40.4219 22.0938C40.4062 23.7031 40.3984 24.9766 40.3984 25.9141C40.3984 29.1484 40.4844 31.0234 40.6562 31.5391C40.6875 31.6484 40.7266 31.7656 40.7734 31.8906C41.2422 33.125 41.8672 33.7422 42.6484 33.7422C42.8047 33.7422 42.9688 33.7266 43.1406 33.6953C43.5938 33.5859 44.2578 33.2188 45.1328 32.5938C45.9922 31.9688 46.6797 31.6562 47.1953 31.6562C47.3828 31.6562 47.5703 31.7109 47.7578 31.8203C48.2578 32.1172 48.5078 32.5859 48.5078 33.2266C48.5078 33.2734 48.5 33.3359 48.4844 33.4141C48.375 34.1641 47.7266 34.9453 46.5391 35.7578C45.0859 36.7266 43.6484 37.2109 42.2266 37.2109C41.6641 37.2109 41.1328 37.1406 40.6328 37C38.0391 36.2344 36.7422 33.5469 36.7422 28.9375C36.7422 28.5469 36.7578 27.9375 36.7891 27.1094C36.8359 26.125 36.8594 25.3594 36.8594 24.8125C36.8594 22.5 36.6562 21.3281 36.25 21.2969C36.1719 21.2969 36.0859 21.3125 35.9922 21.3438C35.1016 21.6875 33.9688 23.4375 32.5938 26.5938C31.3906 29.4062 30.6172 31.7734 30.2734 33.6953C30.2109 34.0078 30.1797 34.25 30.1797 34.4219C30.1328 34.9844 29.9766 35.4922 29.7109 35.9453C29.2734 36.6953 28.7188 37.0703 28.0469 37.0703C27.8594 37.0703 27.6719 37.0312 27.4844 36.9531C26.7344 36.6406 26.3594 35.9141 26.3594 34.7734V34.4922ZM46.2109 29.8281C46.2109 29.2969 46.2422 28.7344 46.3047 28.1406C46.6328 25.4688 47.4766 23.0938 48.8359 21.0156C50.4922 18.4688 52.4844 17.1953 54.8125 17.1953C55.4375 17.1953 56.0391 17.2734 56.6172 17.4297C58.6797 18.0234 59.7109 19.4766 59.7109 21.7891C59.7109 21.9609 59.7031 22.1406 59.6875 22.3281C59.5312 24.4219 58.5938 26.1797 56.875 27.6016C55.1875 29.0078 53.2266 29.7109 50.9922 29.7109C50.5703 29.7109 50.1562 29.6719 49.75 29.5938C49.7188 29.8281 49.7031 30.1562 49.7031 30.5781C49.7031 31.4844 49.8594 32.1875 50.1719 32.6875C50.5938 33.3281 51.4609 33.7031 52.7734 33.8125C53.3516 33.8125 53.9219 33.75 54.4844 33.625C55.4688 33.3906 56.6328 32.8359 57.9766 31.9609C58.8516 31.3828 59.4688 31.0938 59.8281 31.0938C60.0312 31.0938 60.2422 31.1562 60.4609 31.2812C60.9609 31.5781 61.2109 32.0078 61.2109 32.5703C61.2109 32.7578 61.1719 32.9609 61.0938 33.1797C60.6719 34.1953 59.4062 35.1562 57.2969 36.0625C55.3438 36.9062 53.625 37.3281 52.1406 37.3281C51.5781 37.3281 51.0547 37.2812 50.5703 37.1875C47.6641 36.5938 46.2109 34.1406 46.2109 29.8281ZM53.7344 20.875C52.3125 21.8281 51.1953 23.6406 50.3828 26.3125C50.7734 26.4062 51.1484 26.4531 51.5078 26.4531C52.8047 26.4531 53.9375 26.0547 54.9062 25.2578C55.9844 24.3828 56.5234 23.3438 56.5234 22.1406C56.5234 20.9375 56.1406 20.3281 55.375 20.3125C54.8281 20.3281 54.2812 20.5156 53.7344 20.875Z" fill="#FF6565"/>
<path d="M89.9922 2.61719C89.9922 2.94531 89.8984 3.25 89.7109 3.53125C89.3203 4.10938 88.7344 4.39844 87.9531 4.39844H77.2422C74.7422 24.1172 73.4219 34.3438 73.2812 35.0781C73.2656 35.1719 73.25 35.2656 73.2344 35.3594C72.9844 36.4531 72.3516 37 71.3359 37C70.9609 37 70.6328 36.8984 70.3516 36.6953C69.7578 36.2891 69.4609 35.6328 69.4609 34.7266C69.4609 34.5391 70.4062 27.4141 72.2969 13.3516C72.9375 8.61719 73.3359 5.63281 73.4922 4.39844H63.4844C63.125 4.39844 62.7812 4.34375 62.4531 4.23438C61.625 3.95312 61.2109 3.4375 61.2109 2.6875C61.2109 2.3125 61.3047 1.96094 61.4922 1.63281C61.8672 1.00781 62.4531 0.695312 63.25 0.695312H88C88.2188 0.695312 88.4531 0.742188 88.7031 0.835938C89.5625 1.16406 89.9922 1.75781 89.9922 2.61719ZM80.7812 29.6406C80.7812 29.1094 80.8125 28.5469 80.875 27.9531C81.2031 25.2656 82.0469 22.8828 83.4062 20.8047C85.0625 18.2734 87.0547 17.0078 89.3828 17.0078C90.3828 17.0078 91.2578 17.2031 92.0078 17.5938C92.3203 17.2188 92.75 17.0234 93.2969 17.0078C93.6094 17.0078 93.8047 17.0312 93.8828 17.0781C94.5547 17.2969 94.8906 17.9609 94.8906 19.0703C94.8906 19.5234 94.8125 20.5 94.6562 22C94.1719 26.4375 93.9297 29.1953 93.9297 30.2734C93.9297 30.9922 94.0781 31.6641 94.375 32.2891C94.8125 33.2266 95.3906 33.6953 96.1094 33.6953C96.25 33.6953 96.3984 33.6797 96.5547 33.6484C97.0234 33.5547 97.6953 33.1953 98.5703 32.5703C99.4297 31.9453 100.117 31.6328 100.633 31.6328C100.836 31.6328 101.047 31.7031 101.266 31.8438C101.719 32.1562 101.945 32.5703 101.945 33.0859C101.898 33.8984 101.281 34.7422 100.094 35.6172C98.6719 36.6172 97.1641 37.1172 95.5703 37.1172C93.6016 37.1016 92.1484 36.1094 91.2109 34.1406C90.9922 34.4062 90.7422 34.6719 90.4609 34.9375C88.9141 36.3906 87.3438 37.1172 85.75 37.1172C84.75 37.1172 83.8828 36.8594 83.1484 36.3438C81.5703 35.1875 80.7812 32.9531 80.7812 29.6406ZM91.0938 21.9297C91.0938 21.9297 91.1484 21.3984 91.2578 20.3359C90.9141 20.1641 90.5547 20.0781 90.1797 20.0781C89.8984 20.0781 89.6094 20.1172 89.3125 20.1953C87.8594 20.6016 86.6328 21.9453 85.6328 24.2266C84.7422 26.2734 84.2969 28.3281 84.2969 30.3906C84.2969 30.4688 84.2969 30.5469 84.2969 30.625C84.3438 32.5312 84.8281 33.4844 85.75 33.4844C86.2344 33.4688 86.8281 33.2031 87.5312 32.6875C88.25 32.1719 88.7734 31.6875 89.1016 31.2344C89.3047 30.9375 89.5781 30.0703 89.9219 28.6328C90.5469 25.9609 90.9375 23.7266 91.0938 21.9297ZM111.156 37C107.391 36.8438 104.602 34.5469 102.789 30.1094C101.445 26.7656 100.773 22.6719 100.773 17.8281C100.773 17.5781 100.789 17.2578 100.82 16.8672C101.039 13.5703 101.648 10.5469 102.648 7.79688C104.273 3.35938 106.57 1.14062 109.539 1.14062C109.695 1.14062 109.859 1.14844 110.031 1.16406C112.734 1.33594 114.086 2.90625 114.086 5.875C114.086 9.10938 112.695 12.7031 109.914 16.6562C108.148 19.1719 106.297 21.2109 104.359 22.7734C104.891 25.7422 105.477 27.9688 106.117 29.4531C107.305 32.2031 109.07 33.5781 111.414 33.5781C111.57 33.5781 111.734 33.5625 111.906 33.5312C112.422 33.4375 113.141 33.0625 114.062 32.4062C114.953 31.7969 115.648 31.4922 116.148 31.4922C116.367 31.4922 116.578 31.5625 116.781 31.7031C117.234 32.0156 117.461 32.4375 117.461 32.9688C117.43 33.7812 116.852 34.6172 115.727 35.4766C114.32 36.4922 112.797 37 111.156 37ZM109.562 4.67969C108.641 4.69531 107.828 5.09375 107.125 5.875C105.344 7.89062 104.367 12.1016 104.195 18.5078C105.133 17.5547 106.07 16.4297 107.008 15.1328C109.602 11.5859 110.898 8.59375 110.898 6.15625C110.898 6.03125 110.867 5.88281 110.805 5.71094C110.555 5.02344 110.141 4.67969 109.562 4.67969ZM113.102 34.9375C113.102 34.9375 114.438 24.5391 117.109 3.74219C117.188 3.19531 117.273 2.74219 117.367 2.38281C117.648 1.44531 118.219 0.976562 119.078 0.976562C119.25 0.976562 119.422 0.992188 119.594 1.02344C120.312 1.19531 120.672 1.875 120.672 3.0625C120.672 4.34375 120.07 9.66406 118.867 19.0234C120.367 17.7734 121.961 17.1406 123.648 17.125C124.648 17.125 125.547 17.4688 126.344 18.1562C127.422 19.125 127.961 20.4141 127.961 22.0234C127.945 24.1641 127.047 26.1641 125.266 28.0234C124.188 29.1328 122.523 30.3594 120.273 31.7031C121.07 32.7812 122.039 33.3281 123.18 33.3438C123.961 33.3438 125.078 33.0078 126.531 32.3359C127.766 31.7578 128.602 31.4688 129.039 31.4688C129.227 31.4688 129.414 31.5234 129.602 31.6328C130.102 31.9297 130.352 32.3906 130.352 33.0156C130.352 33.1094 130.336 33.2188 130.305 33.3438C130.086 34.0938 129.281 34.8672 127.891 35.6641C126.328 36.5547 124.93 37 123.695 37C120.789 36.9844 118.555 35.9062 116.992 33.7656C116.977 34.0469 116.945 34.3203 116.898 34.5859C116.602 36.1172 115.906 36.8828 114.812 36.8828C114.609 36.8828 114.398 36.8281 114.18 36.7188C113.461 36.3906 113.102 35.7969 113.102 34.9375ZM124.328 22.2109C124.328 22.0078 124.281 21.8203 124.188 21.6484C123.953 21.3047 123.617 21.1328 123.18 21.1328C122.945 21.1328 122.703 21.1641 122.453 21.2266C121.281 21.5703 120.195 22.5156 119.195 24.0625C118.102 25.75 117.555 27.4297 117.555 29.1016C122.055 26.9609 124.312 24.6641 124.328 22.2109Z" fill="#43D7C2"/>
</svg>
